STARTFONT 2.3
FONT -FontForge-Rajdhani-Book-R-Normal--32-320-72-72-P-196-ISO10646-1
SIZE 32 72 72  4
FONTBOUNDINGBOX 79 39 -14 -10
COMMENT "Generated by fontforge, http://fontforge.sourceforge.net"
COMMENT "Copyright (c) 2014 Indian Type Foundry (info@indiantypefoundry.com)"
STARTPROPERTIES 41
FOUNDRY "FontForge"
FAMILY_NAME "Rajdhani"
WEIGHT_NAME "Book"
SLANT "R"
SETWIDTH_NAME "Normal"
ADD_STYLE_NAME ""
PIXEL_SIZE 32
POINT_SIZE 320
RESOLUTION_X 72
RESOLUTION_Y 72
SPACING "P"
AVERAGE_WIDTH 196
CHARSET_REGISTRY "ISO10646"
CHARSET_ENCODING "1"
FONTNAME_REGISTRY ""
CHARSET_COLLECTIONS "ISO8859-2 ISO8859-9 ISO8859-4 ISO10646-1"
BITS_PER_PIXEL 4
FONT_NAME "Rajdhani-Regular"
FACE_NAME "Rajdhani Regular"
COPYRIGHT "Copyright (c) 2014 Indian Type Foundry (info@indiantypefoundry.com)"
FONT_VERSION "1.201;PS 1.0;hotconv 1.0.78;makeotf.lib2.5.61930; ttfautohint (v1.1) -l 7 -r 28 -G 50 -x 13 -D latn -f deva -w G"
FONT_ASCENT 26
FONT_DESCENT 6
UNDERLINE_POSITION -3
UNDERLINE_THICKNESS 2
X_HEIGHT 15
CAP_HEIGHT 19
DEFAULT_CHAR 3
RAW_ASCENT 800
RAW_DESCENT 200
NORM_SPACE 9
RELATIVE_WEIGHT 40
RELATIVE_SETWIDTH 50
SUPERSCRIPT_X 0
SUPERSCRIPT_Y 11
SUPERSCRIPT_SIZE 19
SUBSCRIPT_X 0
SUBSCRIPT_Y 2
SUBSCRIPT_SIZE 19
AVG_LOWERCASE_WIDTH 145
AVG_UPPERCASE_WIDTH 166
ENDPROPERTIES
CHARS 1043
STARTCHAR NULL.dup1
ENCODING 0
SWIDTH 0 0
DWIDTH 0 0
BBX 1 1 0 0
BITMAP
00
ENDCHAR
STARTCHAR CR
ENCODING 13
SWIDTH 0 0
DWIDTH 0 0
BBX 1 1 0 0
BITMAP
00
ENDCHAR
STARTCHAR space
ENCODING 32
SWIDTH 267 0
DWIDTH 9 0
BBX 1 1 0 0
BITMAP
00
ENDCHAR
STARTCHAR exclam
ENCODING 33
SWIDTH 237 0
DWIDTH 8 0
BBX 3 20 2 0
BITMAP
1FB0
2FB0
2FB0
2FB0
2FB0
2FB0
1FA0
1FA0
0F90
0F90
0E80
0E70
0D60
0B40
0000
0000
1F90
1FA0
1FA0
1F90
ENDCHAR
STARTCHAR quotedbl
ENCODING 34
SWIDTH 330 0
DWIDTH 11 0
BBX 7 7 2 13
BITMAP
E9001F70
E9000F70
D8000F60
C7000E50
B6000D50
A5000C40
94000A20
ENDCHAR
STARTCHAR numbersign
ENCODING 35
SWIDTH 677 0
DWIDTH 22 0
BBX 19 20 1 0
BITMAP
00000000D7000005E000
00000003F400000BB000
00000007E000001E6000
0000000CA000005F2000
0001113F611111AD1110
002FFFFFFFFFFFFFFFD0
000444CC444447F64430
000000E7000007E00000
000004F200000CA00000
000009D000001F500000
00000D8000006F100000
00003F300000AB000000
02228E222222E8221000
3FFFFFFFFFFFFFFFC000
1445F844444BD4443000
0004F200000C90000000
0008D000001F50000000
000C9000005F10000000
001F5000009C00000000
004E100000C800000000
ENDCHAR
STARTCHAR dollar
ENCODING 36
SWIDTH 504 0
DWIDTH 16 0
BBX 12 27 2 -3
BITMAP
000002710000
000004F20000
000004F20000
000004F20000
018DFFFFD910
1CFA7667AFD1
7F60000005F8
BE00000000DC
CC00000000BD
CC0000000045
CD0000000000
AF2000000000
4FD532220000
06DFFFFFFB30
000244458EF3
0000000002FA
0000000000CD
0000000000AE
AA00000000AE
CD00000000BE
AE00000000DC
6F70000005F8
0BFB7667AFD1
018DFFFFD910
000004F20000
000004F20000
000004F20000
ENDCHAR
STARTCHAR percent
ENCODING 37
SWIDTH 717 0
DWIDTH 23 0
BBX 21 20 1 0
BITMAP
02ADFEC4000001D5000000
0CE867CF300006E0000000
4F30000D80000D70000000
6F00000AB0005E10000000
6E000009B000B900000000
6E000009B003F200000000
4F10000C900AB000000000
1EB4237F502F4000000000
04EFFFF8008C0000000000
0003441001E60000000000
0000000007E00000000000
000000000D7005CEFDA200
000000005E104F7334BC00
00000000C9009B00002F30
00000004F200B900000F50
0000000AA000C800000F50
0000002F4000B900000F50
0000009C00009C00003F30
000001E500004FB768EC00
000006D0000005CEFDA200
ENDCHAR
STARTCHAR ampersand
ENCODING 38
SWIDTH 597 0
DWIDTH 19 0
BBX 16 20 2 0
BITMAP
00018DFFEA200000
001DFA779EE20000
007F600002FA0000
00BE000000BE0000
00CD0000009F0000
00CD0000009E0000
00AE000000000000
004F500000000000
000AE20000000000
05EFFD1000000000
2FE77FC222222220
8F4006FFFFFFFFF4
AE00007FC4444441
BD000008F8000000
BD0000009F600000
BD0000000AF50000
AF00000000EE3000
6F70000004FEE200
0BFA76679EC1DD10
008DFFFFD8102DC0
ENDCHAR
STARTCHAR quotesingle
ENCODING 39
SWIDTH 186 0
DWIDTH 6 0
BBX 2 6 2 14
BITMAP
CB
CB
BA
A9
98
76
ENDCHAR
STARTCHAR parenleft
ENCODING 40
SWIDTH 283 0
DWIDTH 9 0
BBX 6 24 1 -4
BITMAP
002AED
03EE96
0BE200
1F7000
3F5000
3F4000
3F4000
3F4000
3F4000
3F4000
3F4000
3F4000
3F4000
3F4000
3F4000
3F4000
3F4000
3F4000
3F4000
2F6000
0DC000
05FB42
006EFD
000033
ENDCHAR
STARTCHAR parenright
ENCODING 41
SWIDTH 283 0
DWIDTH 9 0
BBX 6 24 1 -4
BITMAP
3FD810
17AFC0
0004F7
0000BB
00009D
00008E
00008E
00008E
00008E
00008E
00008E
00008E
00008E
00008E
00008E
00008E
00008E
00008E
00008D
0000AC
0002E8
025DE2
3FFC30
142000
ENDCHAR
STARTCHAR asterisk
ENCODING 42
SWIDTH 406 0
DWIDTH 13 0
BBX 9 8 2 12
BITMAP
0003F30000
0002F20000
9A40E04B90
5ADA8BEA50
0004730000
005D1E4000
03F607E300
03A000A300
ENDCHAR
STARTCHAR plus
ENCODING 43
SWIDTH 523 0
DWIDTH 17 0
BBX 13 12 2 4
BITMAP
000005F2000000
000006F2000000
000006F2000000
000006F2000000
122227F4222210
BFFFFFFFFFFF70
344449F6444420
000006F2000000
000006F2000000
000006F2000000
000006F2000000
000005F1000000
ENDCHAR
STARTCHAR comma
ENCODING 44
SWIDTH 191 0
DWIDTH 6 0
BBX 2 8 2 -4
BITMAP
CE
DE
DE
DD
D9
D5
C1
60
ENDCHAR
STARTCHAR hyphen
ENCODING 45
SWIDTH 312 0
DWIDTH 10 0
BBX 8 3 1 9
BITMAP
12222221
BFFFFFFA
34444443
ENDCHAR
STARTCHAR period
ENCODING 46
SWIDTH 191 0
DWIDTH 6 0
BBX 2 4 2 0
BITMAP
CE
DE
DE
CE
ENDCHAR
STARTCHAR slash
ENCODING 47
SWIDTH 396 0
DWIDTH 13 0
BBX 9 20 2 0
BITMAP
0000001E90
0000005F50
000000BE00
000002F900
000007F300
00000DD000
00003F7000
00009F2000
0000EB0000
0004F60000
000AE10000
001FA00000
006F400000
00BE000000
02F8000000
07F3000000
0DC0000000
3F70000000
9F10000000
EA00000000
ENDCHAR
STARTCHAR zero
ENCODING 48
SWIDTH 514 0
DWIDTH 16 0
BBX 13 20 2 0
BITMAP
019DFFFFEB4000
1DFA76668DF500
8F60000001DE00
CE000000007F30
DC000000005F40
DB000000004F40
DB000000004F40
DB000000004F40
DB000000004F40
DB000000004F40
DB000000004F40
DB000000004F40
DB000000004F40
DB000000004F40
DB000000004F40
DC000000005F40
CE000000007F30
8F50000001DE00
1DFA76668DF500
019DFFFFEB4000
ENDCHAR
STARTCHAR one
ENCODING 49
SWIDTH 317 0
DWIDTH 10 0
BBX 7 20 1 0
BITMAP
0002BF60
019FEF60
5EF83F60
DA203F60
20003F60
00003F60
00003F60
00003F60
00003F60
00003F60
00003F60
00003F60
00003F60
00003F60
00003F60
00003F60
00003F60
00003F60
00003F60
00002F60
ENDCHAR
STARTCHAR two
ENCODING 50
SWIDTH 478 0
DWIDTH 15 0
BBX 13 20 1 0
BITMAP
003BEFFFEC5000
04FE87668DF700
0DE1000000CF10
2F800000005F40
3F600000003F60
3F600000003F50
03100000005F40
0000000000BE10
0000000009F600
00000002CF6000
0000005ED30000
000019FA100000
0002CF60000000
005ED300000000
04FB1000000000
0CE10000000000
0FA00000000000
1FA00000000000
1FC66666666630
1FFFFFFFFFFF70
ENDCHAR
STARTCHAR three
ENCODING 51
SWIDTH 496 0
DWIDTH 16 0
BBX 12 20 2 0
BITMAP
02AEFFFFD810
2EE97667AFC1
AF30000006F7
EB00000000EB
F900000000DB
9500000000DC
0000000000EB
0000000003F8
000002236DC1
00002FFFFA10
000004459FA0
0000000005F6
0000000000EA
4200000000DB
F900000000DC
F900000000DB
DB00000000FA
9F30000007F6
2EF97667AFC0
029DFFFFD810
ENDCHAR
STARTCHAR four
ENCODING 52
SWIDTH 520 0
DWIDTH 17 0
BBX 15 20 1 0
BITMAP
000000001CFB0000
000000008FEC0000
00000002F9CC0000
0000000BE1CC0000
0000005F60CC0000
000001DC00CC0000
000008F300CC0000
00002F9000CC0000
0000AE1000CC0000
0004F60000CC0000
000DC00000CC0000
007F300000CC0000
02E9000000CC0000
0AE1000000CC0000
4F82222222CC2210
8FFFFFFFFFFFFF80
2444444444DD4420
0000000000CC0000
0000000000CC0000
0000000000BC0000
ENDCHAR
STARTCHAR five
ENCODING 53
SWIDTH 482 0
DWIDTH 15 0
BBX 12 20 2 0
BITMAP
CFFFFFFFFFF3
DD6666666661
DB0000000000
DB0000000000
DB0000000000
DB0000000000
DB0022210000
DB8EFFFFE910
DEC64446AFC0
CD10000008F5
0000000002F8
0000000000F9
0000000000F9
1100000000F9
EA00000000F9
EB00000000F9
CD00000002F8
8F50000009F3
1DFA7668CF90
019DFFFFC600
ENDCHAR
STARTCHAR six
ENCODING 54
SWIDTH 497 0
DWIDTH 16 0
BBX 13 20 1 0
BITMAP
003AEFFFFFFC00
03EE9766666500
0CE20000000000
1F900000000000
2F700000000000
2F700000000000
2F700000000000
2F822222200000
2FFFFFFFFFA200
2FA4444458FD10
2F700000005F80
2F700000000EC0
2F700000000CD0
2F700000000CD0
2F700000000CD0
2F800000000CD0
1FA00000000EB0
0CE20000006F70
03FE97667AFC10
003AEFFFFD8100
ENDCHAR
STARTCHAR seven
ENCODING 55
SWIDTH 380 0
DWIDTH 12 0
BBX 12 20 0 0
BITMAP
7FFFFFFFFFF7
3666666669F6
0000000009F2
000000001EB0
000000006F50
00000000CE00
00000003F800
00000008F300
0000000EC000
0000005F6000
000000BE1000
000002F90000
000007F40000
00000DD00000
00004F700000
0000AF100000
0001FB000000
0007F5000000
000CE0000000
002F80000000
ENDCHAR
STARTCHAR eight
ENCODING 56
SWIDTH 519 0
DWIDTH 17 0
BBX 13 20 2 0
BITMAP
029DFFFFEC6000
2EFA76668CF900
9F40000000AF30
DD000000003F60
DB000000002F70
DB000000002F70
DC000000003F60
9F200000007F30
2ED5222238FA00
02DFFFFFFF9000
1CE854446AF700
8F400000009F20
CD000000004F50
DB000000002F70
DB000000002F70
DC000000002F70
CD000000004F60
8F50000000AF20
1DFA76668CF800
019DFFFFEC6000
ENDCHAR
STARTCHAR nine
ENCODING 57
SWIDTH 497 0
DWIDTH 16 0
BBX 13 20 1 0
BITMAP
003AEFFFFD8100
04FE97667BFC00
0CE20000007F60
1F900000000EB0
3F700000000DC0
3F600000000CC0
3F600000000CC0
3F600000000CC0
2F800000000CC0
0ED00000000CC0
07FB4222222DC0
007EFFFFFFFFC0
00013444444DC0
00000000000DC0
00000000000DC0
00000000000DC0
00000000000FB0
00000000006F60
016666667AFC10
03FFFFFFFD8100
ENDCHAR
STARTCHAR colon
ENCODING 58
SWIDTH 191 0
DWIDTH 6 0
BBX 2 16 2 0
BITMAP
CE
DE
DE
CE
00
00
00
00
00
00
00
00
CE
DE
DE
CE
ENDCHAR
STARTCHAR semicolon
ENCODING 59
SWIDTH 191 0
DWIDTH 6 0
BBX 2 19 2 -3
BITMAP
CE
DE
DE
CE
00
00
00
00
00
00
00
DE
DE
DE
DD
D9
D5
C1
60
ENDCHAR
STARTCHAR less
ENCODING 60
SWIDTH 513 0
DWIDTH 16 0
BBX 13 11 2 5
BITMAP
00000000001730
000000005BFF40
0000039EFC6100
0016CFD8200000
4AFE9400000000
EE500000000000
9FE93000000000
016CFD72000000
000039EFC61000
00000005BFFA20
00000000027D50
ENDCHAR
STARTCHAR equal
ENCODING 61
SWIDTH 531 0
DWIDTH 17 0
BBX 13 9 2 6
BITMAP
12222222222210
9FFFFFFFFFFF90
24444444444420
00000000000000
00000000000000
00000000000000
12222222222210
9FFFFFFFFFFF90
24444444444420
ENDCHAR
STARTCHAR greater
ENCODING 62
SWIDTH 531 0
DWIDTH 17 0
BBX 13 11 2 5
BITMAP
65000000000000
8FE93000000000
028DFD71000000
000049EFB50000
00000015BFE920
00000000018F90
000000005AFE50
0000049EFB5000
0028DFD7100000
4CFE9300000000
9B610000000000
ENDCHAR
STARTCHAR question
ENCODING 63
SWIDTH 473 0
DWIDTH 15 0
BBX 11 20 2 0
BITMAP
007DFFFD8100
0BFB767AFC10
5F7000005F70
AF1000000DB0
BE0000000BD0
BE0000000BD0
220000001EA0
00000000BF30
0000001CE400
000001CD3000
000009E20000
00000EA00000
00000F900000
00000D700000
000000000000
000000000000
00002FA00000
00002FA00000
00002FA00000
00002FA00000
ENDCHAR
STARTCHAR at
ENCODING 64
SWIDTH 753 0
DWIDTH 24 0
BBX 20 22 2 -3
BITMAP
00000000222222210000
000018DFFFFFFFFFD600
0006EE9654444456BF70
007F91000000000008F2
03F700000222221000E6
0BB00019EFFFFF8000C7
1F4000CF85445E8000B8
4F1006F500000D8000B8
5E000AE000000D8000B8
5E000BC000000D8000B8
5E000BC000000D8000B8
5E000BC000000D8000B8
5E000BC000000E8000B8
5E000AD000001F8000D7
4F0007F300007F8003F4
2F4001EE6338CE936EC0
0CA0003CFFFD3CFFFB10
05F50000343001442000
009F7000000000000000
0008FC73222222100000
00003BFFFFFFFFC00000
00000013444444300000
ENDCHAR
STARTCHAR A
ENCODING 65
SWIDTH 533 0
DWIDTH 17 0
BBX 16 20 1 0
BITMAP
000000AFB0000000
000001FEF2000000
000006F6F7000000
00000BD0DC000000
00001F808F200000
00006F303F600000
0000BD000DB00000
0001F80008F10000
0005F30003F60000
000AD00000DB0000
001F8000008F1000
005F3000003F6000
00AE2222222DB000
01FFFFFFFFFFF100
05F744444446F600
0AE000000000EB00
1F90000000009F10
5F40000000004F60
AE00000000000EB0
E9000000000009F1
ENDCHAR
STARTCHAR B
ENCODING 66
SWIDTH 546 0
DWIDTH 17 0
BBX 14 20 2 0
BITMAP
4FFFFFFFFEA200
4F96666679EE20
4F500000002FA0
4F500000000BE0
4F5000000009F0
4F5000000009F0
4F500000000AE0
4F500000001EB0
4F62222225CE30
4FFFFFFFFFD300
4F84444457DE30
4F500000001DC0
4F5000000008F2
4F5000000006F3
4F5000000006F4
4F5000000006F3
4F5000000008F2
4F500000001DD0
4F96666678EF40
4FFFFFFFFEB300
ENDCHAR
STARTCHAR C
ENCODING 67
SWIDTH 542 0
DWIDTH 17 0
BBX 14 20 2 0
BITMAP
007CFFFFFEB500
0AFC866668DF60
4F900000001CE1
8F2000000005F4
9F0000000003F6
9F0000000003F6
9F000000000151
9F000000000000
9F000000000000
9F000000000000
9F000000000000
9F000000000000
9F000000000000
9F000000000152
9F0000000003F6
9F0000000003F6
8F2000000005F4
4F900000001CE1
0AFC766668DF60
007CFFFFFEB500
ENDCHAR
STARTCHAR D
ENCODING 68
SWIDTH 557 0
DWIDTH 18 0
BBX 14 20 2 0
BITMAP
4FFFFFFFFEC500
4F96666668DF70
4F500000000CF1
4F5000000005F5
4F5000000003F6
4F5000000003F6
4F5000000003F6
4F5000000003F6
4F5000000003F6
4F5000000003F6
4F5000000003F6
4F5000000003F6
4F5000000003F6
4F5000000003F6
4F5000000003F6
4F5000000003F6
4F5000000005F5
4F500000000CF1
4F96666668DF70
4FFFFFFFFEC500
ENDCHAR
STARTCHAR E
ENCODING 69
SWIDTH 481 0
DWIDTH 15 0
BBX 12 20 2 0
BITMAP
4FFFFFFFFFF4
4F9666666661
4F5000000000
4F5000000000
4F5000000000
4F5000000000
4F5000000000
4F5000000000
4F6222222200
4FFFFFFFFF60
4F8444444410
4F5000000000
4F5000000000
4F5000000000
4F5000000000
4F5000000000
4F5000000000
4F5000000000
4F9666666661
4FFFFFFFFFF4
ENDCHAR
STARTCHAR F
ENCODING 70
SWIDTH 459 0
DWIDTH 15 0
BBX 12 20 2 0
BITMAP
4FFFFFFFFFF4
4F9666666661
4F5000000000
4F5000000000
4F5000000000
4F5000000000
4F5000000000
4F5000000000
4F5000000000
4F6222222200
4FFFFFFFFF60
4F8444444410
4F5000000000
4F5000000000
4F5000000000
4F5000000000
4F5000000000
4F5000000000
4F5000000000
4F4000000000
ENDCHAR
STARTCHAR G
ENCODING 71
SWIDTH 539 0
DWIDTH 17 0
BBX 13 20 2 0
BITMAP
007CFFFFFD8100
0AFC86667AFC10
4F900000006F70
8F200000000EC0
9F000000000CD0
9F000000000BD0
9F000000000330
9F000000000000
9F000000000000
9F000002222210
9F00001FFFFFD0
9F000004444DD0
9F000000000BD0
9F000000000BD0
9F000000000BD0
9F000000000BD0
8F200000000DC0
4F900000005F80
0AFC76667AFD10
007CFFFFFD9100
ENDCHAR
STARTCHAR H
ENCODING 72
SWIDTH 570 0
DWIDTH 18 0
BBX 14 20 2 0
BITMAP
4F4000000001F7
4F5000000001F8
4F5000000001F8
4F5000000001F8
4F5000000001F8
4F5000000001F8
4F5000000001F8
4F5000000001F8
4F6222222223F8
4FFFFFFFFFFFF8
4F8444444446F8
4F5000000001F8
4F5000000001F8
4F5000000001F8
4F5000000001F8
4F5000000001F8
4F5000000001F8
4F5000000001F8
4F5000000001F8
4F4000000001F7
ENDCHAR
STARTCHAR I
ENCODING 73
SWIDTH 230 0
DWIDTH 7 0
BBX 3 20 2 0
BITMAP
2F70
2F70
2F70
2F70
2F70
2F70
2F70
2F70
2F70
2F70
2F70
2F70
2F70
2F70
2F70
2F70
2F70
2F70
2F70
2F70
ENDCHAR
STARTCHAR J
ENCODING 74
SWIDTH 499 0
DWIDTH 16 0
BBX 13 20 1 0
BITMAP
00000000002F60
00000000003F60
00000000003F60
00000000003F60
00000000003F60
00000000003F60
00000000003F60
00000000003F60
00000000003F60
00000000003F60
00000000003F60
00000000003F60
44000000003F60
CD000000003F60
CD000000003F60
CD000000003F60
AF000000005F50
6F70000000CF10
0CFB76668DF700
018DFFFFEC5000
ENDCHAR
STARTCHAR K
ENCODING 75
SWIDTH 530 0
DWIDTH 17 0
BBX 14 20 2 0
BITMAP
4F400000001DD1
4F50000000BF40
4F50000007F700
4F5000004FA000
4F500002ED1000
4F50000CF30000
4F50009F600000
4F5005FA000000
4F503ED1000000
4F51DFE2000000
4F5AE4EC000000
4FAF505F700000
4FF6000AF30000
4F900001DC0000
4F5000004F8000
4F50000009F400
4F50000001DD10
4F500000003F90
4F5000000008F4
4F4000000000BE
ENDCHAR
STARTCHAR L
ENCODING 76
SWIDTH 451 0
DWIDTH 14 0
BBX 12 20 2 0
BITMAP
4F4000000000
4F5000000000
4F5000000000
4F5000000000
4F5000000000
4F5000000000
4F5000000000
4F5000000000
4F5000000000
4F5000000000
4F5000000000
4F5000000000
4F5000000000
4F5000000000
4F5000000000
4F5000000000
4F5000000000
4F5000000000
4F9666666663
4FFFFFFFFFF8
ENDCHAR
STARTCHAR M
ENCODING 77
SWIDTH 696 0
DWIDTH 22 0
BBX 18 20 2 0
BITMAP
4FF300000000000DF8
4FFA00000000005FF8
4FDF2000000000CDF8
4F6F8000000004F6F8
4F4AE10000000AE1F8
4F43F60000002F71F8
4F40BD0000009E11F8
4F405F400001E901F8
4F400DB00007F201F8
4F4006F3000DB001F8
4F4001E9005F4001F8
4F40008F10CC0001F8
4F40001F73F60001F8
4F400009EAE00001F8
4F400003FF800001F8
4F40000079100001F8
4F40000000000001F8
4F40000000000001F8
4F40000000000001F8
4F40000000000000F8
ENDCHAR
STARTCHAR N
ENCODING 78
SWIDTH 579 0
DWIDTH 19 0
BBX 14 20 2 0
BITMAP
4F7000000000BC
4FE200000000CD
4FFA00000000CD
4FDF40000000CD
4F5DD0000000CD
4F55F7000000CD
4F50BE200000CD
4F502FA00000CD
4F5008F40000CD
4F5000DC0000CD
4F50004F7000CD
4F50000AE100CD
4F500002EA00CD
4F5000007F40CD
4F5000000DC0CD
4F50000004F7CD
4F50000000AEDD
4F500000002EFD
4F5000000007FD
4F4000000000CC
ENDCHAR
STARTCHAR O
ENCODING 79
SWIDTH 553 0
DWIDTH 18 0
BBX 14 20 2 0
BITMAP
007CFFFFFEB400
0AFC866668EF50
4F900000001DE0
8F2000000007F3
9F0000000005F4
9F0000000004F4
9F0000000004F4
9F0000000004F4
9F0000000004F4
9F0000000004F4
9F0000000004F4
9F0000000004F4
9F0000000004F4
9F0000000004F4
9F0000000004F4
9F0000000005F4
8F2000000007F3
4F900000001DE0
0AFC766668DF50
007CFFFFFEB400
ENDCHAR
STARTCHAR P
ENCODING 80
SWIDTH 524 0
DWIDTH 17 0
BBX 13 20 2 0
BITMAP
4FFFFFFFFD9100
4F9666667AFD10
4F500000005F80
4F500000000DC0
4F500000000BE0
4F500000000BE0
4F500000000BE0
4F500000000BE0
4F500000000CD0
4F500000002FA0
4F62222225DF30
4FFFFFFFFFD400
4F844444430000
4F500000000000
4F500000000000
4F500000000000
4F500000000000
4F500000000000
4F500000000000
4F400000000000
ENDCHAR
STARTCHAR Q
ENCODING 81
SWIDTH 556 0
DWIDTH 18 0
BBX 14 24 2 -4
BITMAP
006CFFFFFEB400
09FC866668DF60
3FA00000001DE1
7F3000000006F4
8F1000000004F5
8F1000000004F5
8F1000000004F5
8F1000000004F5
8F1000000004F5
8F1000000004F5
8F1000000004F5
8F1000000004F5
8F1000000004F5
8F1000000004F5
8F1000000004F5
8F1000000004F5
7F3000000006F4
3FA00000001CE1
09FC866668DF70
006CFFFFFFC500
00000004F70000
000000009F2000
000000001EC000
0000000004F600
ENDCHAR
STARTCHAR R
ENCODING 82
SWIDTH 534 0
DWIDTH 17 0
BBX 14 20 2 0
BITMAP
4FFFFFFFFD9100
4F9666667AFD10
4F500000006F80
4F500000000DC0
4F500000000BD0
4F500000000BD0
4F500000000BD0
4F500000000CC0
4F500000002F90
4F62222236DE20
4FFFFFFFFFC300
4F844446F90000
4F500000BE1000
4F5000005F7000
4F5000000DD000
4F50000006F600
4F50000000ED00
4F500000007F40
4F500000001EB0
4F4000000008F3
ENDCHAR
STARTCHAR S
ENCODING 83
SWIDTH 562 0
DWIDTH 18 0
BBX 14 20 2 0
BITMAP
005BEFFFFEB400
07FD866678DF50
1FC10000001DE0
5F6000000007F3
6F4000000005F5
6F3000000002A3
6F500000000000
2FC10000000000
08FD7200000000
004CFFDA730000
0000269CFFD400
0000000016EF70
00000000001CF2
000000000005F5
5D2000000004F6
6F4000000004F6
5F6000000006F4
1EC00000001CE1
07FD866668DF60
005BEFFFFEB500
ENDCHAR
STARTCHAR T
ENCODING 84
SWIDTH 420 0
DWIDTH 13 0
BBX 13 20 0 0
BITMAP
6FFFFFFFFFFFC0
266667FB666650
000001F8000000
000001F8000000
000001F8000000
000001F8000000
000001F8000000
000001F8000000
000001F8000000
000001F8000000
000001F8000000
000001F8000000
000001F8000000
000001F8000000
000001F8000000
000001F8000000
000001F8000000
000001F8000000
000001F8000000
000001F7000000
ENDCHAR
STARTCHAR U
ENCODING 85
SWIDTH 552 0
DWIDTH 18 0
BBX 14 20 2 0
BITMAP
6F2000000007F1
7F2000000008F2
7F2000000008F2
7F2000000008F2
7F2000000008F2
7F2000000008F2
7F2000000008F2
7F2000000008F2
7F2000000008F2
7F2000000008F2
7F2000000008F2
7F2000000008F2
7F2000000008F2
7F2000000008F2
7F2000000008F2
6F3000000008F2
5F500000000AF0
2FB00000002FB0
08FD866679EE30
005CEFFFFEA300
ENDCHAR
STARTCHAR V
ENCODING 86
SWIDTH 500 0
DWIDTH 16 0
BBX 16 20 0 0
BITMAP
1F900000000009F1
0BE0000000000EB0
07F3000000004F70
02F8000000008F20
00DD00000000DD00
008F20000002F800
003F70000007F300
000EB000000BE000
0009F100001F9000
0004F500005F4000
0000EA0000AE0000
0000AE0000EA0000
00005F4004F50000
00001F8008F10000
00000BD00DB00000
000007F22F600000
000002F77F200000
000000CBBC000000
0000008FF8000000
0000003FF3000000
ENDCHAR
STARTCHAR W
ENCODING 87
SWIDTH 794 0
DWIDTH 25 0
BBX 24 20 1 0
BITMAP
EC000000006FB000000006F5
BF10000000AFF10000000AF2
7F40000000EBF50000000DE0
4F70000003F4D90000001FA0
1FA0000007F19D0000005F70
0CE000000BB05F2000008F30
09F200001F701F600000BF00
05F500005F300CA00000EB00
02F800009E0008E00002F800
00DB0000DA0004F40006F500
00AE0002F60000E80009F100
007F3006F10000BC000CD000
003F600AC000007F100F9000
000F900E8000002F503F6000
000BC03F4000000D906F3000
0008F17F00000009D0AE0000
0005F4BB00000005F2DB0000
0001F8F700000001F7F70000
0000DEF300000000CEF40000
00009FD0000000008FE10000
ENDCHAR
STARTCHAR X
ENCODING 88
SWIDTH 504 0
DWIDTH 16 0
BBX 14 20 1 0
BITMAP
7F4000000003E9
0DD00000000CE1
04F70000005F60
00AE200001DC00
002EA00008F300
0007F4002F9000
0000DD00BE1000
00004F74F60000
00000AEDC00000
000003FF500000
000009FEB00000
00003F86F50000
0000BE10DD0000
0005F6004F7000
000DC0000BE200
007F400002FA00
02EA0000009F30
0AF20000001EC0
3F8000000006F5
BD1000000000CD
ENDCHAR
STARTCHAR Y
ENCODING 89
SWIDTH 493 0
DWIDTH 16 0
BBX 15 20 0 0
BITMAP
1FB0000000001EC0
08F4000000008F50
01EB00000001EC00
008F40000007F400
001EB000001EC000
0008F400007F4000
0001EB0001EB0000
00007F4007F40000
00001EB01EB00000
000007F47F300000
000001ECEA000000
0000006FF3000000
0000000EB0000000
0000000EA0000000
0000000EA0000000
0000000EA0000000
0000000EA0000000
0000000EA0000000
0000000EA0000000
0000000DA0000000
ENDCHAR
STARTCHAR Z
ENCODING 90
SWIDTH 482 0
DWIDTH 15 0
BBX 14 20 1 0
BITMAP
4FFFFFFFFFFFB0
16666666668FB0
0000000000BF40
0000000005F900
000000001EE100
000000009F5000
00000003FB0000
0000000CF20000
0000007F800000
000002ED000000
00000AF4000000
00005FA0000000
0001DE10000000
0008F600000000
003FB000000000
00CF3000000000
06F80000000000
1ED10000000000
8FA66666666660
9FFFFFFFFFFFF1
ENDCHAR
STARTCHAR bracketleft
ENCODING 91
SWIDTH 287 0
DWIDTH 9 0
BBX 5 24 2 -4
BITMAP
EFFFE0
EB6660
E70000
E70000
E70000
E70000
E70000
E70000
E70000
E70000
E70000
E70000
E70000
E70000
E70000
E70000
E70000
E70000
E70000
E70000
E70000
E92210
EFFFE0
444440
ENDCHAR
STARTCHAR backslash
ENCODING 92
SWIDTH 396 0
DWIDTH 13 0
BBX 9 20 2 0
BITMAP
E900000000
9F10000000
4F60000000
0DC0000000
08F3000000
02F8000000
00CE000000
006F400000
001FA00000
000AE10000
0005F60000
0000EB0000
00009F2000
00003F7000
00000DD000
000007F300
000002F900
000000BE00
0000006F40
0000001E90
ENDCHAR
STARTCHAR bracketright
ENCODING 93
SWIDTH 287 0
DWIDTH 9 0
BBX 6 24 1 -4
BITMAP
1FFFFD
0666CD
00008D
00008D
00008D
00008D
00008D
00008D
00008D
00008D
00008D
00008D
00008D
00008D
00008D
00008D
00008D
00008D
00008D
00008D
00008D
0222AD
1FFFFD
044443
ENDCHAR
STARTCHAR asciicircum
ENCODING 94
SWIDTH 465 0
DWIDTH 15 0
BBX 12 9 1 11
BITMAP
00000CFB0000
00007F8F5000
0001EA0CD000
0007F204F500
001E9000BD00
008F20003F60
01E800000AD0
09E1000003F7
1E700000009D
ENDCHAR
STARTCHAR underscore
ENCODING 95
SWIDTH 372 0
DWIDTH 12 0
BBX 12 3 0 -4
BITMAP
122222222221
FFFFFFFFFFFD
444444444443
ENDCHAR
STARTCHAR grave
ENCODING 96
SWIDTH 269 0
DWIDTH 9 0
BBX 5 4 2 18
BITMAP
9F7000
0CF200
01DB00
002E40
ENDCHAR
STARTCHAR a
ENCODING 97
SWIDTH 502 0
DWIDTH 16 0
BBX 12 16 2 0
BITMAP
019DFFFFFFF9
1DFA766666FA
8F50000000EA
CD00000000EA
EB00000000EA
EA00000000EA
EA00000000EA
EA00000000EA
EA00000000EA
EA00000000EA
EA00000000EA
EB00000000EA
CD00000002FA
8F5000000AFA
1DFA7668CCEA
019DFFFEA1E9
ENDCHAR
STARTCHAR b
ENCODING 98
SWIDTH 504 0
DWIDTH 16 0
BBX 13 22 2 0
BITMAP
8F000000000000
9F000000000000
9F000000000000
9F000000000000
9F000000000000
9F000000000000
9F18DFFFEA2000
9FAD86679FE200
9FA0000003FA00
9F20000000AE00
9F000000008F10
9F000000008F10
9F000000008F10
9F000000008F10
9F000000008F10
9F000000008F10
9F000000008F10
9F000000008F10
9F00000000BE00
9F00000003FA00
9F7666679FE200
8FFFFFFFEA2000
ENDCHAR
STARTCHAR c
ENCODING 99
SWIDTH 394 0
DWIDTH 13 0
BBX 10 16 2 0
BITMAP
019DFFFFF7
1DFA766663
8F50000000
CD00000000
EB00000000
EA00000000
EA00000000
EA00000000
EA00000000
EA00000000
EA00000000
EB00000000
CD00000000
8F50000000
1DFA766663
019DFFFFF7
ENDCHAR
STARTCHAR d
ENCODING 100
SWIDTH 504 0
DWIDTH 16 0
BBX 12 22 2 0
BITMAP
0000000000DB
0000000000DB
0000000000DB
0000000000DB
0000000000DB
0000000000DB
019DFFFE91DB
1DFA7668CCEB
8F50000009FB
CD00000001FB
EB00000000DB
EA00000000DB
EA00000000DB
EA00000000DB
EA00000000DB
EA00000000DB
EA00000000DB
EB00000000DB
CD00000001FB
8F50000009FB
1DFA7668CDEB
019EFFFEA2DB
ENDCHAR
STARTCHAR e
ENCODING 101
SWIDTH 492 0
DWIDTH 16 0
BBX 12 16 2 0
BITMAP
019DFFFFD800
1DFA7667AFB0
8F50000007F6
CD00000000EA
EB00000000CC
EA00000000CC
EA00000000CC
EB22222222CC
EFFFFFFFFFFC
EC4444444443
EA0000000000
EA0000000000
CC0000000000
8F4000000000
1DF976666663
019DFFFFFFF8
ENDCHAR
STARTCHAR f
ENCODING 102
SWIDTH 303 0
DWIDTH 10 0
BBX 9 22 1 0
BITMAP
00006CFF10
0006FC8600
000DD00000
001F900000
002F700000
003F700000
CFFFFFFF10
568FB66600
002F700000
002F700000
002F700000
002F700000
002F700000
002F700000
002F700000
002F700000
002F700000
002F700000
002F700000
002F700000
002F700000
002F700000
ENDCHAR
STARTCHAR g
ENCODING 103
SWIDTH 506 0
DWIDTH 16 0
BBX 12 20 2 -4
BITMAP
018DFFFFFFFC
1DFA766666EC
7F60000000CC
BE00000000CC
CC00000000CC
CC00000000CC
CC00000000CC
CC00000000CC
CC00000000CC
CC00000000CC
BD00000000EC
9F30000004FC
2ED632237EEC
04DFFFFFE6CC
0003444310CC
0000000000DC
0000000000FB
0000000007F7
05666667BFC1
0CFFFFFFD810
ENDCHAR
STARTCHAR h
ENCODING 104
SWIDTH 507 0
DWIDTH 16 0
BBX 12 22 2 0
BITMAP
8F0000000000
9F0000000000
9F0000000000
9F0000000000
9F0000000000
9F0000000000
9F08DFFFE920
9FAD86679FE2
9FA0000004F9
9F30000000CD
9F000000009F
9F000000009F
9F000000009F
9F000000009F
9F000000009F
9F000000009F
9F000000009F
9F000000009F
9F000000009F
9F000000009F
9F000000009F
8F000000009E
ENDCHAR
STARTCHAR i
ENCODING 105
SWIDTH 210 0
DWIDTH 7 0
BBX 3 22 2 0
BITMAP
6F20
7F20
7F20
6F20
0000
0000
6F20
7F20
7F20
7F20
7F20
7F20
7F20
7F20
7F20
7F20
7F20
7F20
7F20
7F20
7F20
6F20
ENDCHAR
STARTCHAR j
ENCODING 106
SWIDTH 210 0
DWIDTH 7 0
BBX 7 26 -2 -4
BITMAP
00006F20
00007F20
00007F20
00006F20
00000000
00000000
00006F20
00007F20
00007F20
00007F20
00007F20
00007F20
00007F20
00007F20
00007F20
00007F20
00007F20
00007F20
00007F20
00007F20
00007F20
00007F20
00009F10
0002EC00
479EF300
9FEA3000
ENDCHAR
STARTCHAR k
ENCODING 107
SWIDTH 431 0
DWIDTH 14 0
BBX 12 22 2 0
BITMAP
8F0000000000
9F0000000000
9F0000000000
9F0000000000
9F0000000000
9F0000000000
9F0000003EA0
9F000000CE10
9F000008F500
9F00003FA000
9F0000CE1000
9F0008F60000
9F003FB00000
9F00CE200000
9F008F500000
9F000CE10000
9F0002FB0000
9F00007F6000
9F00000BE200
9F000002EC00
9F0000005F80
8F00000009F3
ENDCHAR
STARTCHAR l
ENCODING 108
SWIDTH 210 0
DWIDTH 7 0
BBX 3 22 2 0
BITMAP
6F20
7F20
7F20
7F20
7F20
7F20
7F20
7F20
7F20
7F20
7F20
7F20
7F20
7F20
7F20
7F20
7F20
7F20
7F20
7F20
7F20
6F20
ENDCHAR
STARTCHAR m
ENCODING 109
SWIDTH 769 0
DWIDTH 25 0
BBX 21 16 2 0
BITMAP
8E08DFFEA3006CFFEB5000
9FAD8679EE3AE9768DF600
9FA000002EDE200001DE10
9F30000009F60000006F40
9F00000007F40000004F50
9F00000006F30000004F60
9F00000006F30000004F60
9F00000006F30000004F60
9F00000006F30000004F60
9F00000006F30000004F60
9F00000006F30000004F60
9F00000006F30000004F60
9F00000006F30000004F60
9F00000006F30000004F60
9F00000006F30000004F60
8F00000006F30000003F50
ENDCHAR
STARTCHAR n
ENCODING 110
SWIDTH 507 0
DWIDTH 16 0
BBX 12 16 2 0
BITMAP
8E08DFFFE920
9FAD86679FE2
9FA0000004F9
9F30000000CD
9F000000009F
9F000000009F
9F000000009F
9F000000009F
9F000000009F
9F000000009F
9F000000009F
9F000000009F
9F000000009F
9F000000009F
9F000000009F
8F000000009E
ENDCHAR
STARTCHAR o
ENCODING 111
SWIDTH 496 0
DWIDTH 16 0
BBX 12 16 2 0
BITMAP
019DFFFFD810
1DFA7667AFC1
8F50000006F7
CD00000000EB
EB00000000CC
EA00000000CC
EA00000000CC
EA00000000CC
EA00000000CC
EA00000000CC
EA00000000CC
EB00000000CC
CD00000000EB
8F50000006F7
1DFA7667AFC1
019DFFFFD810
ENDCHAR
STARTCHAR p
ENCODING 112
SWIDTH 504 0
DWIDTH 16 0
BBX 13 20 2 -4
BITMAP
8E08DFFFEA2000
9FAD86679FE200
9FA0000003FA00
9F30000000BE00
9F000000009F10
9F000000008F10
9F000000008F10
9F000000008F10
9F000000008F10
9F000000008F10
9F000000008F10
9F000000009F10
9F30000000BE00
9FA0000003FA00
9FCD86679FE200
9F19EFFFEA2000
9F000000000000
9F000000000000
9F000000000000
9F000000000000
ENDCHAR
STARTCHAR q
ENCODING 113
SWIDTH 502 0
DWIDTH 16 0
BBX 12 20 2 -4
BITMAP
019DFFFFFFF9
1DFA766666FA
8F50000000EA
CD00000000EA
EB00000000EA
EA00000000EA
EA00000000EA
EA00000000EA
EA00000000EA
EA00000000EA
EA00000000EA
EB00000000FA
CD00000002FA
8F5000000BFA
1DFA7668DCEA
019DFFFEA1EA
0000000000EA
0000000000EA
0000000000EA
0000000000E9
ENDCHAR
STARTCHAR r
ENCODING 114
SWIDTH 313 0
DWIDTH 10 0
BBX 8 16 2 0
BITMAP
8E07DFF2
9F9D8661
9FC10000
9F400000
9F100000
9F000000
9F000000
9F000000
9F000000
9F000000
9F000000
9F000000
9F000000
9F000000
9F000000
8F000000
ENDCHAR
STARTCHAR s
ENCODING 115
SWIDTH 431 0
DWIDTH 14 0
BBX 12 16 1 0
BITMAP
019DFFFFFF40
0CFB76666610
4F8000000000
6F4000000000
4F5000000000
1ED200000000
03DFA4000000
0016CFD82000
0000039EF900
000000008F80
000000000CD0
0000000009F0
0000000009F1
000000001DE0
16666678DF70
3FFFFFFEC600
ENDCHAR
STARTCHAR t
ENCODING 116
SWIDTH 347 0
DWIDTH 11 0
BBX 10 19 0 0
BITMAP
0009F00000
0009F00000
0009F10000
3FFFFFFFF7
166CF76663
0009F00000
0009F00000
0009F00000
0009F00000
0009F00000
0009F00000
0009F00000
0009F00000
0009F00000
0009F10000
0008F30000
0004FA0000
00009FC865
000006CEFC
ENDCHAR
STARTCHAR u
ENCODING 117
SWIDTH 507 0
DWIDTH 16 0
BBX 12 16 2 0
BITMAP
BC00000000BC
CD00000000CC
CD00000000CC
CD00000000CC
CD00000000CC
CD00000000CC
CD00000000CC
CD00000000CC
CD00000000CC
CD00000000CC
CD00000000CC
BD00000000CC
AF00000000EC
6F70000007FC
0CFB7668BEDC
018DFFFEB2BC
ENDCHAR
STARTCHAR v
ENCODING 118
SWIDTH 416 0
DWIDTH 13 0
BBX 13 16 0 0
BITMAP
4F500000001E90
1EA00000006F40
0AE0000000AE00
06F4000000EA00
01F9000004F500
00BD000009F100
006F30000EB000
002F70003F6000
000CC0008F1000
0007F200CB0000
0002F602F60000
0000DB07F20000
00008F1BC00000
00003F6F700000
00000DEF200000
000008FC000000
ENDCHAR
STARTCHAR w
ENCODING 119
SWIDTH 683 0
DWIDTH 22 0
BBX 22 16 0 0
BITMAP
4F60000001ED00000008F1
1EA0000004FF2000000DC0
0BE0000008EF6000002F80
06F400000D8CA000006F40
02F800002F48E00000BE00
00CC00006F14F30000EA00
008F1000AB00E70004F500
004F5000E700AB0008F100
000E9003F3006F000CC000
000AD007E0002F401F7000
0005F20BA0000D806F3000
0001F71F600009C0AE0000
0000BB4F200005F1E90000
00007E9D000001F8F50000
00003FF9000000CFF10000
00000DF50000007FB00000
ENDCHAR
STARTCHAR x
ENCODING 120
SWIDTH 413 0
DWIDTH 13 0
BBX 13 16 0 0
BITMAP
0CE1000000DD00
04F8000007F500
00AF20001EC000
002FA0008F3000
0008F301E90000
0001DC09E20000
00005F7F700000
00000CFD000000
00000CFE200000
00006F5EA00000
0001EA07F40000
000AF200DD0000
004F80005F7000
00DE10000BE200
07F6000002FB00
1EC00000008F40
ENDCHAR
STARTCHAR y
ENCODING 121
SWIDTH 459 0
DWIDTH 15 0
BBX 13 20 1 -4
BITMAP
E9000000000DB0
AE100000004F60
4F60000000AE10
0EB0000001EA00
08F2000006F400
03F700000BE000
00CC00002F8000
007F30007F3000
002F8000DD0000
000BE003F70000
0005F408F20000
0001EA0EB00000
00009E5F600000
00004FEE100000
000008FA000000
000005F4000000
00000CD0000000
00007F60000000
267BFA00000000
5FFD7000000000
ENDCHAR
STARTCHAR z
ENCODING 122
SWIDTH 405 0
DWIDTH 13 0
BBX 11 16 1 0
BITMAP
AFFFFFFFFF90
46666666BF70
00000001ED10
0000000AF400
0000004F9000
000001DE1000
000009F50000
00003FB00000
0000CE200000
0007F7000000
002FC0000000
00BF30000000
06F800000000
1ED100000000
9FA666666650
DFFFFFFFFFD0
ENDCHAR
STARTCHAR braceleft
ENCODING 123
SWIDTH 298 0
DWIDTH 10 0
BBX 7 24 1 -4
BITMAP
0001AE90
000BE840
003F5000
006F0000
007E0000
007E0000
007E0000
007E0000
007E0000
009C0000
16F70000
DFA00000
48F60000
00AC0000
008E0000
007E0000
007E0000
007E0000
007E0000
006F0000
004F3000
000DC410
0004EF90
00000420
ENDCHAR
STARTCHAR bar
ENCODING 124
SWIDTH 207 0
DWIDTH 7 0
BBX 2 20 2 0
BITMAP
5E
6F
6F
6F
6F
6F
6F
6F
6F
6F
6F
6F
6F
6F
6F
6F
6F
6F
6F
5E
ENDCHAR
STARTCHAR braceright
ENCODING 125
SWIDTH 298 0
DWIDTH 10 0
BBX 7 24 1 -4
BITMAP
CE800000
59F80000
008F1000
003F3000
002F5000
002F5000
002F5000
002F5000
002F5000
001F7000
000AD410
0001CF90
0009E730
000F8000
002F5000
002F5000
002F5000
002F5000
002F5000
003F3000
006F1000
15DB0000
DFD20000
33000000
ENDCHAR
STARTCHAR asciitilde
ENCODING 126
SWIDTH 523 0
DWIDTH 17 0
BBX 13 4 2 8
BITMAP
00110000000000
4CFFFC96325C70
BC7569DFFFFD30
20000001343000
ENDCHAR
STARTCHAR uni00A0
ENCODING 160
SWIDTH 267 0
DWIDTH 9 0
BBX 1 1 0 0
BITMAP
00
ENDCHAR
STARTCHAR exclamdown
ENCODING 161
SWIDTH 237 0
DWIDTH 8 0
BBX 3 20 2 0
BITMAP
1F90
1FA0
1FA0
1F90
0000
0000
0B40
0D60
0E70
0E80
0F90
0F90
1FA0
1FA0
2FB0
2FB0
2FB0
2FB0
2FB0
1FB0
ENDCHAR
STARTCHAR cent
ENCODING 162
SWIDTH 414 0
DWIDTH 13 0
BBX 11 22 2 -3
BITMAP
000006F00000
000007F00000
000007F00000
019DFFFFFF10
1DFA76666600
8F5000000000
CD0000000000
EB0000000000
EA0000000000
EA0000000000
EA0000000000
EA0000000000
EA0000000000
EA0000000000
EB0000000000
CD0000000000
8F5000000000
1DFA76666600
019EFFFFFF10
000007F00000
000007F00000
000006E00000
ENDCHAR
STARTCHAR sterling
ENCODING 163
SWIDTH 528 0
DWIDTH 17 0
BBX 14 20 1 0
BITMAP
00006CEFFFC700
0009FC8668BFA0
003F90000009F4
007F30000003F7
008F10000001F8
008F1000000073
008F1000000000
008F1000000000
008F1000000000
129F3222210000
DFFFFFFFFA0000
34AF5444420000
008F1000000000
008F1000000000
008F1000000000
008F1000000000
008F1000000000
00CE0000000000
5AFA6666666664
CFFFFFFFFFFFFA
ENDCHAR
STARTCHAR yen
ENCODING 165
SWIDTH 499 0
DWIDTH 16 0
BBX 14 20 1 0
BITMAP
EC0000000000DD
7F5000000006F6
1ED00000000DD0
06F50000006F50
00DD000000EC00
006F600007F500
000DD0001EC000
0005F6007F4000
0111CD01EC1110
CFFFFF67FFFFFB
23333CDEB33332
000003FE200000
122222DC222221
CFFFFFFFFFFFFC
344444DD444443
000000CC000000
000000CC000000
000000CC000000
000000CC000000
000000CB000000
ENDCHAR
STARTCHAR brokenbar
ENCODING 166
SWIDTH 201 0
DWIDTH 6 0
BBX 2 20 2 0
BITMAP
7D
8E
8E
8E
8E
8E
8E
7D
00
00
00
00
7D
8E
8E
8E
8E
8E
8E
7D
ENDCHAR
STARTCHAR section
ENCODING 167
SWIDTH 454 0
DWIDTH 15 0
BBX 12 20 1 0
BITMAP
006CEFFFFF90
07FD86666630
0DD100000000
1F9000000000
1F9000000000
1FE200000000
1FEFB8520000
1F75ADFFE910
1F7000148ED1
1F70000004F6
0DC0000000F9
05FB520000E9
004BFFEC83E9
00000358CFF9
0000000008F9
0000000001F9
0000000002F8
0000000007F5
056666679FC0
0CFFFFFFD910
ENDCHAR
STARTCHAR dieresis
ENCODING 168
SWIDTH 345 0
DWIDTH 11 0
BBX 7 4 2 18
BITMAP
DA0009D0
DA000AD0
DA000AD0
DA0009D0
ENDCHAR
STARTCHAR copyright
ENCODING 169
SWIDTH 723 0
DWIDTH 23 0
BBX 19 20 2 0
BITMAP
018DFFFFFFFFFFFE9100
1CFA766666666679ED10
6F400000000000002F80
AB000000000000000AB0
B900004BEFEB400008C0
B90004FB767BF30007C0
B9000AB00000CA0007C0
B9000C8000008C0007C0
B9000C700000470007C0
B9000C700000000007C0
B9000C700000000007C0
B9000C700000240007C0
B9000C7000008C0007C0
B9000A9000009A0007C0
B90005E51014E60007C0
B900007EFFFE700008C0
AB000000121000000AB0
6F400000000000002E80
1CFA766666666679ED10
019DFFFFFFFFFFFE9200
ENDCHAR
STARTCHAR guillemotleft
ENCODING 171
SWIDTH 431 0
DWIDTH 14 0
BBX 10 12 2 2
BITMAP
0000320005
0004E300AA
004E700AD2
04F700BD20
4F700BD200
D7006D2000
BB104F5000
1CB106F500
01CB106F50
001CC006F5
0001C3005B
0000100001
ENDCHAR
STARTCHAR registered
ENCODING 174
SWIDTH 439 0
DWIDTH 14 0
BBX 10 11 2 11
BITMAP
05CFFFFC50
4FA76679F4
A70AFF906B
C20B87E02D
C20B42E01D
C20BFFC01D
C20B69702D
B50A21C14B
6D522225D7
09FFFFFFA0
0024444200
ENDCHAR
STARTCHAR macron
ENCODING 175
SWIDTH 358 0
DWIDTH 11 0
BBX 8 2 2 18
BITMAP
DFFFFFF5
56666662
ENDCHAR
STARTCHAR degree
ENCODING 176
SWIDTH 298 0
DWIDTH 10 0
BBX 5 7 2 15
BITMAP
3DFF80
7D78F0
8801F0
8801F0
7B24F0
5FFFC0
034410
ENDCHAR
STARTCHAR plusminus
ENCODING 177
SWIDTH 523 0
DWIDTH 17 0
BBX 13 13 2 3
BITMAP
000005F1000000
000006F2000000
000006F2000000
122227F4222210
BFFFFFFFFFFF70
344449F6444420
000006F2000000
000006F2000000
000005F1000000
00000000000000
12222222222210
BFFFFFFFFFFF70
34444444444420
ENDCHAR
STARTCHAR acute
ENCODING 180
SWIDTH 269 0
DWIDTH 9 0
BBX 5 4 2 18
BITMAP
00CF30
07F600
2F8000
AA0000
ENDCHAR
STARTCHAR paragraph
ENCODING 182
SWIDTH 513 0
DWIDTH 16 0
BBX 13 20 1 0
BITMAP
019DFFFFFFFF90
0CFFFE66666E90
4FFFFE00000C90
6FFFFE00000C90
6FFFFE00000C90
6FFFFE00000C90
6FFFFE00000C90
3FFFFE00000C90
0CFFFE00000C90
019DFE00000C90
00008E00000C90
00008E00000C90
00008E00000C90
00008E00000C90
00008E00000C90
00008E00000C90
00008E00000C90
00008E00000C90
00008E00000C90
00007D00000C90
ENDCHAR
STARTCHAR periodcentered
ENCODING 183
SWIDTH 207 0
DWIDTH 7 0
BBX 3 4 2 8
BITMAP
8F20
9F30
9F30
8F20
ENDCHAR
STARTCHAR cedilla
ENCODING 184
SWIDTH 257 0
DWIDTH 8 0
BBX 5 8 2 -7
BITMAP
003100
07D100
5E2000
CFC500
126E00
126F10
AFFA00
342000
ENDCHAR
STARTCHAR guillemotright
ENCODING 187
SWIDTH 431 0
DWIDTH 14 0
BBX 10 12 2 2
BITMAP
5000310000
D7005D2000
4E800AD200
03E800AD20
003E800AE2
0003F300AA
0007E202D8
008E402DA0
08E302DA00
8E302D9000
D300690000
1000100000
ENDCHAR
STARTCHAR questiondown
ENCODING 191
SWIDTH 473 0
DWIDTH 15 0
BBX 11 20 2 0
BITMAP
00008F300000
00008F400000
00008F400000
00008F300000
000000000000
000000000000
00005D100000
00007F200000
00008F100000
0001DB000000
002CE2000000
03DD20000000
2EC100000000
8F3000000220
BE0000000BD0
BD0000000CD0
AF0000000EB0
6F7000005F70
0BFA7679FD10
008DFFFD9100
ENDCHAR
STARTCHAR Agrave
ENCODING 192
SWIDTH 532 0
DWIDTH 17 0
BBX 16 27 1 0
BITMAP
0002850000000000
0001CF3000000000
00002EB000000000
000005F400000000
0000009C00000000
0000000000000000
0000000000000000
000000AFB0000000
000001FEF2000000
000006F6F7000000
00000BD0DC000000
00001F808F200000
00006F303F600000
0000BD000DB00000
0001F80008F10000
0005F30003F60000
000AD00000DB0000
001F8000008F1000
005F3000003F6000
00AE2222222DB000
01FFFFFFFFFFF100
05F744444446F600
0AE000000000EB00
1F90000000009F10
5F40000000004F60
AE00000000000EB0
E9000000000009F1
ENDCHAR
STARTCHAR Aacute
ENCODING 193
SWIDTH 532 0
DWIDTH 17 0
BBX 16 27 1 0
BITMAP
0000000005830000
000000003FD10000
00000000BE300000
00000004F6000000
0000000B90000000
0000000000000000
0000000000000000
000000AFB0000000
000001FEF2000000
000006F6F7000000
00000BD0DC000000
00001F808F200000
00006F303F600000
0000BD000DB00000
0001F80008F10000
0005F30003F60000
000AD00000DB0000
001F8000008F1000
005F3000003F6000
00AE2222222DB000
01FFFFFFFFFFF100
05F744444446F600
0AE000000000EB00
1F90000000009F10
5F40000000004F60
AE00000000000EB0
E9000000000009F1
ENDCHAR
STARTCHAR Acircumflex
ENCODING 194
SWIDTH 532 0
DWIDTH 17 0
BBX 16 27 1 0
BITMAP
0000003730000000
000000CCD0000000
000005E1E6000000
00000D706D000000
00006D100D600000
0000000000000000
0000000000000000
000000AFB0000000
000001FEF2000000
000006F6F7000000
00000BD0DC000000
00001F808F200000
00006F303F600000
0000BD000DB00000
0001F80008F10000
0005F30003F60000
000AD00000DB0000
001F8000008F1000
005F3000003F6000
00AE2222222DB000
01FFFFFFFFFFF100
05F744444446F600
0AE000000000EB00
1F90000000009F10
5F40000000004F60
AE00000000000EB0
E9000000000009F1
ENDCHAR
STARTCHAR Atilde
ENCODING 195
SWIDTH 532 0
DWIDTH 17 0
BBX 16 27 1 0
BITMAP
0000100011000000
0000D204FF700000
0000D20C88D00000
0000B44D01E00000
00005ED501D00000
0000000000000000
0000000000000000
000000AFB0000000
000001FEF2000000
000006F6F7000000
00000BD0DC000000
00001F808F200000
00006F303F600000
0000BD000DB00000
0001F80008F10000
0005F30003F60000
000AD00000DB0000
001F8000008F1000
005F3000003F6000
00AE2222222DB000
01FFFFFFFFFFF100
05F744444446F600
0AE000000000EB00
1F90000000009F10
5F40000000004F60
AE00000000000EB0
E9000000000009F1
ENDCHAR
STARTCHAR Adieresis
ENCODING 196
SWIDTH 532 0
DWIDTH 17 0
BBX 16 26 1 0
BITMAP
0000DA0009D00000
0000DA000AE00000
0000DA000AE00000
0000DA0009D00000
0000000000000000
0000000000000000
000000AFB0000000
000001FEF2000000
000006F6F7000000
00000BD0DC000000
00001F808F200000
00006F303F600000
0000BD000DB00000
0001F80008F10000
0005F30003F60000
000AD00000DB0000
001F8000008F1000
005F3000003F6000
00AE2222222DB000
01FFFFFFFFFFF100
05F744444446F600
0AE000000000EB00
1F90000000009F10
5F40000000004F60
AE00000000000EB0
E9000000000009F1
ENDCHAR
STARTCHAR Aring
ENCODING 197
SWIDTH 532 0
DWIDTH 17 0
BBX 16 29 1 0
BITMAP
0000000200000000
000006FFE6000000
00000E858E000000
00002D000E200000
00002D000D200000
00001F526F000000
000009FFF8000000
0000003420000000
0000000000000000
000000AFB0000000
000001FEF2000000
000006F6F7000000
00000BD0DC000000
00001F808F200000
00006F303F600000
0000BD000DB00000
0001F80008F10000
0005F30003F60000
000AD00000DB0000
001F8000008F1000
005F3000003F6000
00AE2222222DB000
01FFFFFFFFFFF100
05F744444446F600
0AE000000000EB00
1F90000000009F10
5F40000000004F60
AE00000000000EB0
E9000000000009F1
ENDCHAR
STARTCHAR AE
ENCODING 198
SWIDTH 773 0
DWIDTH 25 0
BBX 23 20 0 0
BITMAP
00000000003EFFFFFFFFFF90
0000000000BEFD6666666640
0000000004F7EB0000000000
000000000DD0EB0000000000
000000006F50EB0000000000
00000001EB00EB0000000000
00000008F300EB0000000000
0000002F9000EB0000000000
000000AE1000EB2222222100
000004F60000EFFFFFFFFB00
00000CC00000EC4444444300
00005F400000EB0000000000
0001DB222222EB0000000000
0007FFFFFFFFFB0000000000
001EA4444444EB0000000000
009E10000000EB0000000000
03F800000000EB0000000000
0BE100000000EB0000000000
5F7000000000ED6666666640
CD0000000000EFFFFFFFFF90
ENDCHAR
STARTCHAR Ccedilla
ENCODING 199
SWIDTH 542 0
DWIDTH 17 0
BBX 14 27 2 -7
BITMAP
007CFFFFFEB500
0AFC866668DF60
4F900000001CE1
8F2000000005F4
9F0000000003F6
9F0000000003F6
9F000000000151
9F000000000000
9F000000000000
9F000000000000
9F000000000000
9F000000000000
9F000000000000
9F000000000152
9F0000000003F6
9F0000000003F6
8F2000000005F4
4F900000001CE1
0AFC766668DF60
007CFFFFFEB500
0000008B100000
000006E4000000
000005BDD10000
00000000D40000
00000024E40000
000007FFC00000
00000143000000
ENDCHAR
STARTCHAR Egrave
ENCODING 200
SWIDTH 481 0
DWIDTH 15 0
BBX 12 27 2 0
BITMAP
003850000000
001DF2000000
0003FA000000
00006F300000
00000AB00000
000000000000
000000000000
4FFFFFFFFFF4
4F9666666661
4F5000000000
4F5000000000
4F5000000000
4F5000000000
4F5000000000
4F5000000000
4F6222222200
4FFFFFFFFF60
4F8444444410
4F5000000000
4F5000000000
4F5000000000
4F5000000000
4F5000000000
4F5000000000
4F5000000000
4F9666666661
4FFFFFFFFFF4
ENDCHAR
STARTCHAR Eacute
ENCODING 201
SWIDTH 481 0
DWIDTH 15 0
BBX 12 27 2 0
BITMAP
000000048300
0000001EE100
0000009F4000
000002F70000
00000AA00000
000000000000
000000000000
4FFFFFFFFFF4
4F9666666661
4F5000000000
4F5000000000
4F5000000000
4F5000000000
4F5000000000
4F5000000000
4F6222222200
4FFFFFFFFF60
4F8444444410
4F5000000000
4F5000000000
4F5000000000
4F5000000000
4F5000000000
4F5000000000
4F5000000000
4F9666666661
4FFFFFFFFFF4
ENDCHAR
STARTCHAR Ecircumflex
ENCODING 202
SWIDTH 481 0
DWIDTH 15 0
BBX 12 27 2 0
BITMAP
000006600000
00005EE50000
0000D77D0000
0007D01E6000
000E6006E000
000000000000
000000000000
4FFFFFFFFFF4
4F9666666661
4F5000000000
4F5000000000
4F5000000000
4F5000000000
4F5000000000
4F5000000000
4F6222222200
4FFFFFFFFF60
4F8444444410
4F5000000000
4F5000000000
4F5000000000
4F5000000000
4F5000000000
4F5000000000
4F5000000000
4F9666666661
4FFFFFFFFFF4
ENDCHAR
STARTCHAR Edieresis
ENCODING 203
SWIDTH 481 0
DWIDTH 15 0
BBX 12 26 2 0
BITMAP
005F2002F500
006F3003F600
006F3003F600
005F2002F500
000000000000
000000000000
4FFFFFFFFFF4
4F9666666661
4F5000000000
4F5000000000
4F5000000000
4F5000000000
4F5000000000
4F5000000000
4F6222222200
4FFFFFFFFF60
4F8444444410
4F5000000000
4F5000000000
4F5000000000
4F5000000000
4F5000000000
4F5000000000
4F5000000000
4F9666666661
4FFFFFFFFFF4
ENDCHAR
STARTCHAR Igrave
ENCODING 204
SWIDTH 230 0
DWIDTH 7 0
BBX 5 27 0 0
BITMAP
770000
8F7000
0CE100
02E900
004E10
000000
000000
002F70
002F70
002F70
002F70
002F70
002F70
002F70
002F70
002F70
002F70
002F70
002F70
002F70
002F70
002F70
002F70
002F70
002F70
002F70
002F70
ENDCHAR
STARTCHAR Iacute
ENCODING 205
SWIDTH 231 0
DWIDTH 7 0
BBX 6 27 2 0
BITMAP
000583
002FD1
00AF30
03F600
0BA000
000000
000000
2F7000
2F7000
2F7000
2F7000
2F7000
2F7000
2F7000
2F7000
2F7000
2F7000
2F7000
2F7000
2F7000
2F7000
2F7000
2F7000
2F7000
2F7000
2F7000
2F7000
ENDCHAR
STARTCHAR Icircumflex
ENCODING 206
SWIDTH 229 0
DWIDTH 7 0
BBX 7 27 0 0
BITMAP
00274000
00ACE100
03F2C800
0B904F20
4F200B90
00000000
00000000
002F7000
002F7000
002F7000
002F7000
002F7000
002F7000
002F7000
002F7000
002F7000
002F7000
002F7000
002F7000
002F7000
002F7000
002F7000
002F7000
002F7000
002F7000
002F7000
002F7000
ENDCHAR
STARTCHAR Idieresis
ENCODING 207
SWIDTH 230 0
DWIDTH 7 0
BBX 8 26 0 0
BITMAP
AC0007F1
BD0008F1
BD0008F1
AC0007F1
00000000
00000000
002F7000
002F7000
002F7000
002F7000
002F7000
002F7000
002F7000
002F7000
002F7000
002F7000
002F7000
002F7000
002F7000
002F7000
002F7000
002F7000
002F7000
002F7000
002F7000
002F7000
ENDCHAR
STARTCHAR Eth
ENCODING 208
SWIDTH 514 0
DWIDTH 16 0
BBX 16 20 0 0
BITMAP
002FFFFFFFFEC600
003FA6666668CF80
003F600000000BF2
003F6000000003F6
003F6000000001F8
003F6000000001F8
003F6000000001F8
003F6000000001F8
025F8222210001F8
3FFFFFFFFC0001F8
047F9444430001F8
003F6000000001F8
003F6000000001F8
003F6000000001F8
003F6000000001F8
003F6000000001F8
003F6000000003F6
003F600000000AF2
003FA6666668CF80
002FFFFFFFFFC600
ENDCHAR
STARTCHAR Ntilde
ENCODING 209
SWIDTH 579 0
DWIDTH 19 0
BBX 14 27 2 0
BITMAP
00001000100000
0002D008FE3000
0002D02F6A9000
0001F39A05A000
0000BFF304B000
00001420013000
00000000000000
4F7000000000BC
4FE200000000CD
4FFA00000000CD
4FDF40000000CD
4F5DD0000000CD
4F55F7000000CD
4F50BE200000CD
4F502FA00000CD
4F5008F40000CD
4F5000DC0000CD
4F50004F7000CD
4F50000AE100CD
4F500002EA00CD
4F5000007F40CD
4F5000000DC0CD
4F50000004F7CD
4F50000000AEDD
4F500000002EFD
4F5000000007FD
4F4000000000CC
ENDCHAR
STARTCHAR Ograve
ENCODING 210
SWIDTH 553 0
DWIDTH 18 0
BBX 14 27 2 0
BITMAP
00067200000000
0004FB00000000
00008F50000000
00000BD0000000
000002D5000000
00000000000000
00000000000000
007CFFFFFEB400
0AFC866668EF50
4F900000001DE0
8F2000000007F3
9F0000000005F4
9F0000000004F4
9F0000000004F4
9F0000000004F4
9F0000000004F4
9F0000000004F4
9F0000000004F4
9F0000000004F4
9F0000000004F4
9F0000000004F4
9F0000000004F4
9F0000000005F4
8F2000000007F3
4F900000001DE0
0AFC766668DF50
007CFFFFFEB400
ENDCHAR
STARTCHAR Oacute
ENCODING 211
SWIDTH 553 0
DWIDTH 18 0
BBX 14 27 2 0
BITMAP
00000000582000
00000003FC0000
0000000BE20000
0000004F500000
000000C8000000
00000000000000
00000000000000
007CFFFFFEB400
0AFC866668EF50
4F900000001DE0
8F2000000007F3
9F0000000005F4
9F0000000004F4
9F0000000004F4
9F0000000004F4
9F0000000004F4
9F0000000004F4
9F0000000004F4
9F0000000004F4
9F0000000004F4
9F0000000004F4
9F0000000004F4
9F0000000005F4
8F2000000007F3
4F900000001DE0
0AFC766668DF50
007CFFFFFEB400
ENDCHAR
STARTCHAR Ocircumflex
ENCODING 212
SWIDTH 553 0
DWIDTH 18 0
BBX 14 27 2 0
BITMAP
00000175000000
000007DF300000
00001E59B00000
00008C02F40000
0001E4008C0000
00000000000000
00000000000000
007CFFFFFEB400
0AFC866668EF50
4F900000001DE0
8F2000000007F3
9F0000000005F4
9F0000000004F4
9F0000000004F4
9F0000000004F4
9F0000000004F4
9F0000000004F4
9F0000000004F4
9F0000000004F4
9F0000000004F4
9F0000000004F4
9F0000000004F4
9F0000000005F4
8F2000000007F3
4F900000001DE0
0AFC766668DF50
007CFFFFFEB400
ENDCHAR
STARTCHAR Otilde
ENCODING 213
SWIDTH 553 0
DWIDTH 18 0
BBX 14 27 2 0
BITMAP
00010000100000
0009601DFB0000
0009608C5E2000
0008A3E40B4000
0003FFC00B4000
00002400031000
00000000000000
007CFFFFFEB400
0AFC866668EF50
4F900000001DE0
8F2000000007F3
9F0000000005F4
9F0000000004F4
9F0000000004F4
9F0000000004F4
9F0000000004F4
9F0000000004F4
9F0000000004F4
9F0000000004F4
9F0000000004F4
9F0000000004F4
9F0000000004F4
9F0000000005F4
8F2000000007F3
4F900000001DE0
0AFC766668DF50
007CFFFFFEB400
ENDCHAR
STARTCHAR Odieresis
ENCODING 214
SWIDTH 553 0
DWIDTH 18 0
BBX 14 26 2 0
BITMAP
0008F0005F3000
0008F0005F3000
0008F0005F3000
0008F0005F3000
00000000000000
00000000000000
007CFFFFFEB400
0AFC866668EF50
4F900000001DE0
8F2000000007F3
9F0000000005F4
9F0000000004F4
9F0000000004F4
9F0000000004F4
9F0000000004F4
9F0000000004F4
9F0000000004F4
9F0000000004F4
9F0000000004F4
9F0000000004F4
9F0000000004F4
9F0000000005F4
8F2000000007F3
4F900000001DE0
0AFC766668DF50
007CFFFFFEB400
ENDCHAR
STARTCHAR multiply
ENCODING 215
SWIDTH 493 0
DWIDTH 16 0
BBX 10 10 3 5
BITMAP
AA000002D6
7FA0002DE3
07FA02DE30
007FBDE300
0008FF3000
002DEFA000
02DE36FA00
2DE3006FA0
CE300007F8
4300000052
ENDCHAR
STARTCHAR Oslash
ENCODING 216
SWIDTH 559 0
DWIDTH 18 0
BBX 16 20 1 0
BITMAP
0006CFFFFFEB5092
009FC866668CFBE1
03FA00000000CF50
07F300000001EF50
08F10000000BEF60
08F10000007E5F60
08F1000003F43F60
08F100001D803F60
08F10000AC003F60
08F10006E2003F60
08F1003F50003F60
08F101D900003F60
08F10AC000003F60
08F16E2000003F60
08F3E50000003F60
08FD900000003F60
07FC000000005F50
06FA00000000CF10
2ECFC766668DF700
4906CEFFFFEC5000
ENDCHAR
STARTCHAR Ugrave
ENCODING 217
SWIDTH 552 0
DWIDTH 18 0
BBX 14 27 2 0
BITMAP
00048400000000
0002EE10000000
00005F70000000
000009E1000000
000000C8000000
00000000000000
00000000000000
6F2000000007F1
7F2000000008F2
7F2000000008F2
7F2000000008F2
7F2000000008F2
7F2000000008F2
7F2000000008F2
7F2000000008F2
7F2000000008F2
7F2000000008F2
7F2000000008F2
7F2000000008F2
7F2000000008F2
7F2000000008F2
7F2000000008F2
6F3000000008F2
5F500000000AF0
2FB00000002FB0
08FD866679EE30
005CEFFFFEA300
ENDCHAR
STARTCHAR Uacute
ENCODING 218
SWIDTH 552 0
DWIDTH 18 0
BBX 14 27 2 0
BITMAP
00000000583000
00000003FD1000
0000000BE30000
0000004F600000
000000B9000000
00000000000000
00000000000000
6F2000000007F1
7F2000000008F2
7F2000000008F2
7F2000000008F2
7F2000000008F2
7F2000000008F2
7F2000000008F2
7F2000000008F2
7F2000000008F2
7F2000000008F2
7F2000000008F2
7F2000000008F2
7F2000000008F2
7F2000000008F2
7F2000000008F2
6F3000000008F2
5F500000000AF0
2FB00000002FB0
08FD866679EE30
005CEFFFFEA300
ENDCHAR
STARTCHAR Ucircumflex
ENCODING 219
SWIDTH 552 0
DWIDTH 18 0
BBX 14 27 2 0
BITMAP
00000175000000
000007DF300000
00001E49B00000
00009C02F40000
0002F4008C0000
00000000000000
00000000000000
6F2000000007F1
7F2000000008F2
7F2000000008F2
7F2000000008F2
7F2000000008F2
7F2000000008F2
7F2000000008F2
7F2000000008F2
7F2000000008F2
7F2000000008F2
7F2000000008F2
7F2000000008F2
7F2000000008F2
7F2000000008F2
7F2000000008F2
6F3000000008F2
5F500000000AF0
2FB00000002FB0
08FD866679EE30
005CEFFFFEA300
ENDCHAR
STARTCHAR Udieresis
ENCODING 220
SWIDTH 552 0
DWIDTH 18 0
BBX 14 26 2 0
BITMAP
0008F0005F3000
0008F0005F3000
0008F0005F3000
0008F0005F3000
00000000000000
00000000000000
6F2000000007F1
7F2000000008F2
7F2000000008F2
7F2000000008F2
7F2000000008F2
7F2000000008F2
7F2000000008F2
7F2000000008F2
7F2000000008F2
7F2000000008F2
7F2000000008F2
7F2000000008F2
7F2000000008F2
7F2000000008F2
7F2000000008F2
6F3000000008F2
5F500000000AF0
2FB00000002FB0
08FD866679EE30
005CEFFFFEA300
ENDCHAR
STARTCHAR Yacute
ENCODING 221
SWIDTH 493 0
DWIDTH 16 0
BBX 15 27 0 0
BITMAP
0000000004830000
000000001EE10000
000000009F400000
00000002F7000000
0000000AB0000000
0000000000000000
0000000000000000
1FB0000000001EC0
08F4000000008F50
01EB00000001EC00
008F40000007F400
001EB000001EC000
0008F400007F4000
0001EB0001EB0000
00007F4007F40000
00001EB01EB00000
000007F47F300000
000001ECEA000000
0000006FF3000000
0000000EB0000000
0000000EA0000000
0000000EA0000000
0000000EA0000000
0000000EA0000000
0000000EA0000000
0000000EA0000000
0000000DA0000000
ENDCHAR
STARTCHAR Thorn
ENCODING 222
SWIDTH 501 0
DWIDTH 16 0
BBX 11 20 3 0
BITMAP
4F4000000000
5F5000000000
5F5000000000
5F5000000000
5FFFFFFD8100
5F96667BFB00
5F5000007F60
5F5000000FA0
5F5000000DC0
5F5000000CC0
5F5000000CC0
5F5000000CC0
5F5000000EB0
5F5000004F80
5F622236EE10
5FFFFFFFC300
5F8444420000
5F5000000000
5F5000000000
4F4000000000
ENDCHAR
STARTCHAR germandbls
ENCODING 223
SWIDTH 540 0
DWIDTH 17 0
BBX 14 20 2 0
BITMAP
006CEFFFFD8100
08FD86667BFC00
2FB00000007F60
6F400000000FA0
7F200000000DB0
7F200000000DB0
7F200000000EA0
7F200000005F60
7F20002237EB00
7F2003FFFFB100
7F2000446AFC10
7F200000005F80
7F200000000BE0
7F2000000009F0
7F2000000008F1
7F2000000009F1
7F200000000BE0
7F200000003FA0
7F20056679FE20
7F200CFFFEA200
ENDCHAR
STARTCHAR agrave
ENCODING 224
SWIDTH 502 0
DWIDTH 16 0
BBX 12 22 2 0
BITMAP
0007F8000000
0000AF300000
00001CC00000
000002D60000
000000000000
000000000000
019DFFFFFFF9
1DFA766666FA
8F50000000EA
CD00000000EA
EB00000000EA
EA00000000EA
EA00000000EA
EA00000000EA
EA00000000EA
EA00000000EA
EA00000000EA
EB00000000EA
CD00000002FA
8F5000000AFA
1DFA7668CCEA
019DFFFEA1E9
ENDCHAR
STARTCHAR aacute
ENCODING 225
SWIDTH 502 0
DWIDTH 16 0
BBX 12 22 2 0
BITMAP
00000005FB00
0000001ED100
0000009E2000
000003E40000
000000000000
000000000000
019DFFFFFFF9
1DFA766666FA
8F50000000EA
CD00000000EA
EB00000000EA
EA00000000EA
EA00000000EA
EA00000000EA
EA00000000EA
EA00000000EA
EA00000000EA
EB00000000EA
CD00000002FA
8F5000000AFA
1DFA7668CCEA
019DFFFEA1E9
ENDCHAR
STARTCHAR acircumflex
ENCODING 226
SWIDTH 502 0
DWIDTH 16 0
BBX 12 22 2 0
BITMAP
00000AF70000
00005E4E2000
0000D70AB000
0007D002E400
000000000000
000000000000
019DFFFFFFF9
1DFA766666FA
8F50000000EA
CD00000000EA
EB00000000EA
EA00000000EA
EA00000000EA
EA00000000EA
EA00000000EA
EA00000000EA
EA00000000EA
EB00000000EA
CD00000002FA
8F5000000AFA
1DFA7668CCEA
019DFFFEA1E9
ENDCHAR
STARTCHAR atilde
ENCODING 227
SWIDTH 504 0
DWIDTH 16 0
BBX 12 22 2 0
BITMAP
000B402DE800
000B409B8F00
000972E20E10
0003DE600D10
000000000000
000000000000
019DFFFFFFF9
1DFA766666FA
8F50000000EA
CD00000000EA
EB00000000EA
EA00000000EA
EA00000000EA
EA00000000EA
EA00000000EA
EA00000000EA
EA00000000EA
EB00000000EA
CD00000002FA
8F5000000AFA
1DFA7668CCEA
019DFFFEA1E9
ENDCHAR
STARTCHAR adieresis
ENCODING 228
SWIDTH 502 0
DWIDTH 16 0
BBX 12 22 2 0
BITMAP
000CA0009E00
000DB0009E00
000DB0009E00
000CA0009E00
000000000000
000000000000
019DFFFFFFF9
1DFA766666FA
8F50000000EA
CD00000000EA
EB00000000EA
EA00000000EA
EA00000000EA
EA00000000EA
EA00000000EA
EA00000000EA
EA00000000EA
EB00000000EA
CD00000002FA
8F5000000AFA
1DFA7668CCEA
019DFFFEA1E9
ENDCHAR
STARTCHAR aring
ENCODING 229
SWIDTH 502 0
DWIDTH 16 0
BBX 12 24 2 0
BITMAP
000001200000
0000CFFE3000
0005D55AA000
00077003B000
00077003B000
0005B328A000
0001DFFF4000
000014420000
019DFFFFFFF9
1DFA766666FA
8F50000000EA
CD00000000EA
EB00000000EA
EA00000000EA
EA00000000EA
EA00000000EA
EA00000000EA
EA00000000EA
EA00000000EA
EB00000000EA
CD00000002FA
8F5000000AFA
1DFA7668CCEA
019DFFFEA1E9
ENDCHAR
STARTCHAR ae
ENCODING 230
SWIDTH 795 0
DWIDTH 25 0
BBX 22 16 2 0
BITMAP
05FFFFFEC5018DFFFEC500
02666668BF7CFA7668CF70
0000000009FF3000000AE1
0000000002FB00000003F5
0000000000F900000001F6
0000222223F900000001F6
02BFFFFFFFF900000001F6
2EE8544445FA22222223F6
9F30000000FFFFFFFFFFF6
DB00000000FB4444444441
E900000000F90000000000
EA00000001F90000000000
DC00000003FC0000000000
8F4000000BFF4000000000
1DF97668DF4EF976666662
019DFFFEA3029EFFFFFFF5
ENDCHAR
STARTCHAR ccedilla
ENCODING 231
SWIDTH 394 0
DWIDTH 13 0
BBX 10 23 2 -7
BITMAP
019DFFFFF7
1DFA766663
8F50000000
CD00000000
EB00000000
EA00000000
EA00000000
EA00000000
EA00000000
EA00000000
EA00000000
EB00000000
CD00000000
8F50000000
1DFA766663
019DFFFFF7
00001C7000
0000AC3000
00008BEA00
0000002F00
0000127F00
0000BFF800
0000342000
ENDCHAR
STARTCHAR egrave
ENCODING 232
SWIDTH 492 0
DWIDTH 16 0
BBX 12 22 2 0
BITMAP
004FC0000000
0007F6000000
00009E100000
00000B900000
000000000000
000000000000
019DFFFFD800
1DFA7667AFB0
8F50000007F6
CD00000000EA
EB00000000CC
EA00000000CC
EA00000000CC
EB22222222CC
EFFFFFFFFFFC
EC4444444443
EA0000000000
EA0000000000
CC0000000000
8F4000000000
1DF976666663
019DFFFFFFF8
ENDCHAR
STARTCHAR eacute
ENCODING 233
SWIDTH 492 0
DWIDTH 16 0
BBX 12 22 2 0
BITMAP
0000002EE100
000000BE3000
000005F50000
00000D700000
000000000000
000000000000
019DFFFFD800
1DFA7667AFB0
8F50000007F6
CD00000000EA
EB00000000CC
EA00000000CC
EA00000000CC
EB22222222CC
EFFFFFFFFFFC
EC4444444443
EA0000000000
EA0000000000
CC0000000000
8F4000000000
1DF976666663
019DFFFFFFF8
ENDCHAR
STARTCHAR ecircumflex
ENCODING 234
SWIDTH 492 0
DWIDTH 16 0
BBX 12 22 2 0
BITMAP
00002EE20000
0000B9AA0000
0005E12E5000
000D6007D000
000000000000
000000000000
019DFFFFD800
1DFA7667AFB0
8F50000007F6
CD00000000EA
EB00000000CC
EA00000000CC
EA00000000CC
EB22222222CC
EFFFFFFFFFFC
EC4444444443
EA0000000000
EA0000000000
CC0000000000
8F4000000000
1DF976666663
019DFFFFFFF8
ENDCHAR
STARTCHAR edieresis
ENCODING 235
SWIDTH 492 0
DWIDTH 16 0
BBX 12 22 2 0
BITMAP
006F2002F500
006F2003F500
006F2003F500
006F2002F500
000000000000
000000000000
019DFFFFD800
1DFA7667AFB0
8F50000007F6
CD00000000EA
EB00000000CC
EA00000000CC
EA00000000CC
EB22222222CC
EFFFFFFFFFFC
EC4444444443
EA0000000000
EA0000000000
CC0000000000
8F4000000000
1DF976666663
019DFFFFFFF8
ENDCHAR
STARTCHAR igrave
ENCODING 236
SWIDTH 210 0
DWIDTH 7 0
BBX 6 22 -1 0
BITMAP
3FC000
06F800
008F20
000AA0
000000
000000
0006F2
0007F2
0007F2
0007F2
0007F2
0007F2
0007F2
0007F2
0007F2
0007F2
0007F2
0007F2
0007F2
0007F2
0007F2
0006F2
ENDCHAR
STARTCHAR iacute
ENCODING 237
SWIDTH 208 0
DWIDTH 7 0
BBX 5 22 2 0
BITMAP
004FD0
00CE20
07F300
1E5000
000000
000000
6F2000
7F2000
7F2000
7F2000
7F2000
7F2000
7F2000
7F2000
7F2000
7F2000
7F2000
7F2000
7F2000
7F2000
7F2000
6F2000
ENDCHAR
STARTCHAR icircumflex
ENCODING 238
SWIDTH 210 0
DWIDTH 7 0
BBX 7 22 0 0
BITMAP
00AF6000
05E5E200
1D60AA00
8C002E40
00000000
00000000
006F2000
007F2000
007F2000
007F2000
007F2000
007F2000
007F2000
007F2000
007F2000
007F2000
007F2000
007F2000
007F2000
007F2000
007F2000
006F2000
ENDCHAR
STARTCHAR idieresis
ENCODING 239
SWIDTH 210 0
DWIDTH 7 0
BBX 7 22 0 0
BITMAP
F8000CB0
F8000CB0
F8000CB0
F7000CB0
00000000
00000000
006F2000
007F2000
007F2000
007F2000
007F2000
007F2000
007F2000
007F2000
007F2000
007F2000
007F2000
007F2000
007F2000
007F2000
007F2000
006F2000
ENDCHAR
STARTCHAR eth
ENCODING 240
SWIDTH 488 0
DWIDTH 16 0
BBX 12 23 2 0
BITMAP
001200000100
007E30005E30
001CE207F700
0001DD9E5000
00003FF40000
0002DCEB0000
004EA14FA000
01F80005F900
002000007F70
000022210AF2
02BFFFFFB4F7
2EF85456BDE9
9F40000009F9
DD00000002F9
EB00000000F9
EA00000000F9
EA00000000F9
EA00000000F9
EB00000000F9
CD00000003F8
8F5000000AF3
1DFA7668CF90
019DFFFFC700
ENDCHAR
STARTCHAR ntilde
ENCODING 241
SWIDTH 507 0
DWIDTH 16 0
BBX 12 22 2 0
BITMAP
004A008EC100
004B03F7D600
003D3B907800
000DFE207800
000141002200
000000000000
8E08DFFFE920
9FAD86679FE2
9FA0000004F9
9F30000000CD
9F000000009F
9F000000009F
9F000000009F
9F000000009F
9F000000009F
9F000000009F
9F000000009F
9F000000009F
9F000000009F
9F000000009F
9F000000009F
8F000000009E
ENDCHAR
STARTCHAR ograve
ENCODING 242
SWIDTH 496 0
DWIDTH 16 0
BBX 12 22 2 0
BITMAP
008F90000000
000BF3000000
0001CC000000
00002D600000
000000000000
000000000000
019DFFFFD810
1DFA7667AFC1
8F50000006F7
CD00000000EB
EB00000000CC
EA00000000CC
EA00000000CC
EA00000000CC
EA00000000CC
EA00000000CC
EA00000000CC
EB00000000CC
CD00000000EB
8F50000006F7
1DFA7667AFC1
019DFFFFD810
ENDCHAR
STARTCHAR oacute
ENCODING 243
SWIDTH 496 0
DWIDTH 16 0
BBX 12 22 2 0
BITMAP
00000009F600
0000004F9000
000000DB0000
000007D10000
000000000000
000000000000
019DFFFFD810
1DFA7667AFC1
8F50000006F7
CD00000000EB
EB00000000CC
EA00000000CC
EA00000000CC
EA00000000CC
EA00000000CC
EA00000000CC
EA00000000CC
EB00000000CC
CD00000000EB
8F50000006F7
1DFA7667AFC1
019DFFFFD810
ENDCHAR
STARTCHAR ocircumflex
ENCODING 244
SWIDTH 496 0
DWIDTH 16 0
BBX 12 22 2 0
BITMAP
00003EE10000
0000C8A90000
0006E12F4000
001E5008C000
000000000000
000000000000
019DFFFFD810
1DFA7667AFC1
8F50000006F7
CD00000000EB
EB00000000CC
EA00000000CC
EA00000000CC
EA00000000CC
EA00000000CC
EA00000000CC
EA00000000CC
EB00000000CC
CD00000000EB
8F50000006F7
1DFA7667AFC1
019DFFFFD810
ENDCHAR
STARTCHAR otilde
ENCODING 245
SWIDTH 496 0
DWIDTH 16 0
BBX 12 22 2 0
BITMAP
008601BFA000
008707D7E300
007A3D50B400
003FFC00B400
000241003100
000000000000
019DFFFFD810
1DFA7667AFC1
8F50000006F7
CD00000000EB
EB00000000CC
EA00000000CC
EA00000000CC
EA00000000CC
EA00000000CC
EA00000000CC
EA00000000CC
EB00000000CC
CD00000000EB
8F50000006F7
1DFA7667AFC1
019DFFFFD810
ENDCHAR
STARTCHAR odieresis
ENCODING 246
SWIDTH 496 0
DWIDTH 16 0
BBX 12 22 2 0
BITMAP
006F1003F400
007F2004F500
007F2004F500
006F1003F400
000000000000
000000000000
019DFFFFD810
1DFA7667AFC1
8F50000006F7
CD00000000EB
EB00000000CC
EA00000000CC
EA00000000CC
EA00000000CC
EA00000000CC
EA00000000CC
EA00000000CC
EB00000000CC
CD00000000EB
8F50000006F7
1DFA7667AFC1
019DFFFFD810
ENDCHAR
STARTCHAR divide
ENCODING 247
SWIDTH 510 0
DWIDTH 16 0
BBX 12 12 2 4
BITMAP
000007C00000
000008C00000
000006A00000
000000000000
122222222221
9FFFFFFFFFFE
244444444444
000000000000
000000000000
000007C00000
000008C00000
000006A00000
ENDCHAR
STARTCHAR oslash
ENCODING 248
SWIDTH 521 0
DWIDTH 17 0
BBX 16 16 0 0
BITMAP
00006CEFFFEA2001
0008FC86678EE3BA
002FA0000002EFD2
007F30000001CF20
008F1000001CFF30
008F100001CC7F30
008F10001CC16F30
008F1001DB106F30
008F102DB1006F30
008F12DB00006F30
008F3DA000006F30
008FEA0000007F30
007FA00000009F20
03EFA0000001ED00
1E98FC76678EF400
03006CEFFFEB3000
ENDCHAR
STARTCHAR ugrave
ENCODING 249
SWIDTH 507 0
DWIDTH 16 0
BBX 12 22 2 0
BITMAP
006FA0000000
0009F5000000
0000BD100000
00001C800000
000000000000
000000000000
BC00000000BC
CD00000000CC
CD00000000CC
CD00000000CC
CD00000000CC
CD00000000CC
CD00000000CC
CD00000000CC
CD00000000CC
CD00000000CC
CD00000000CC
BD00000000CC
AF00000000EC
6F70000007FC
0CFB7668BEDC
018DFFFEB2BC
ENDCHAR
STARTCHAR uacute
ENCODING 250
SWIDTH 507 0
DWIDTH 16 0
BBX 12 22 2 0
BITMAP
00000009F800
0000003FA000
000000CC1000
000006D10000
000000000000
000000000000
BC00000000BC
CD00000000CC
CD00000000CC
CD00000000CC
CD00000000CC
CD00000000CC
CD00000000CC
CD00000000CC
CD00000000CC
CD00000000CC
CD00000000CC
BD00000000CC
AF00000000EC
6F70000007FC
0CFB7668BEDC
018DFFFEB2BC
ENDCHAR
STARTCHAR ucircumflex
ENCODING 251
SWIDTH 507 0
DWIDTH 16 0
BBX 12 22 2 0
BITMAP
00002EE30000
0000AA9B0000
0004E21E5000
000D7006D000
000000000000
000000000000
BC00000000BC
CD00000000CC
CD00000000CC
CD00000000CC
CD00000000CC
CD00000000CC
CD00000000CC
CD00000000CC
CD00000000CC
CD00000000CC
CD00000000CC
BD00000000CC
AF00000000EC
6F70000007FC
0CFB7668BEDC
018DFFFEB2BC
ENDCHAR
STARTCHAR udieresis
ENCODING 252
SWIDTH 507 0
DWIDTH 16 0
BBX 12 22 2 0
BITMAP
005F3002F600
005F3002F600
005F3002F600
005F3002F600
000000000000
000000000000
BC00000000BC
CD00000000CC
CD00000000CC
CD00000000CC
CD00000000CC
CD00000000CC
CD00000000CC
CD00000000CC
CD00000000CC
CD00000000CC
CD00000000CC
BD00000000CC
AF00000000EC
6F70000007FC
0CFB7668BEDC
018DFFFEB2BC
ENDCHAR
STARTCHAR yacute
ENCODING 253
SWIDTH 459 0
DWIDTH 15 0
BBX 13 26 1 -4
BITMAP
00000003ED0000
0000000CE20000
0000007F400000
000001E6000000
00000000000000
00000000000000
E9000000000DB0
AE100000004F60
4F60000000AE10
0EB0000001EA00
08F2000006F400
03F700000BE000
00CC00002F8000
007F30007F3000
002F8000DD0000
000BE003F70000
0005F408F20000
0001EA0EB00000
00009E5F600000
00004FEE100000
000008FA000000
000005F4000000
00000CD0000000
00007F60000000
267BFA00000000
5FFD7000000000
ENDCHAR
STARTCHAR thorn
ENCODING 254
SWIDTH 508 0
DWIDTH 16 0
BBX 13 26 2 -4
BITMAP
7F200000000000
7F200000000000
7F200000000000
7F200000000000
7F200000000000
7F200000000000
7F27DFFFEA3000
7FAD87679EF300
7FC1000002EC00
7F400000009F10
7F200000007F20
7F200000006F30
7F200000006F30
7F200000006F30
7F200000006F30
7F200000006F30
7F200000006F30
7F200000007F20
7F400000009F10
7FC1000002EC00
7FCD87679EF400
7F28DFFFEA3000
7F200000000000
7F200000000000
7F200000000000
7F200000000000
ENDCHAR
STARTCHAR ydieresis
ENCODING 255
SWIDTH 459 0
DWIDTH 15 0
BBX 13 26 1 -4
BITMAP
000F8000CB0000
000F8000CB0000
000F8000CB0000
000F7000CB0000
00000000000000
00000000000000
E9000000000DB0
AE100000004F60
4F60000000AE10
0EB0000001EA00
08F2000006F400
03F700000BE000
00CC00002F8000
007F30007F3000
002F8000DD0000
000BE003F70000
0005F408F20000
0001EA0EB00000
00009E5F600000
00004FEE100000
000008FA000000
000005F4000000
00000CD0000000
00007F60000000
267BFA00000000
5FFD7000000000
ENDCHAR
STARTCHAR Amacron
ENCODING 256
SWIDTH 532 0
DWIDTH 17 0
BBX 16 26 1 0
BITMAP
0000222222200000
0001FFFFFFF20000
0000444444400000
0000000000000000
0000000000000000
0000000000000000
000000AFB0000000
000001FEF2000000
000006F6F7000000
00000BD0DC000000
00001F808F200000
00006F303F600000
0000BD000DB00000
0001F80008F10000
0005F30003F60000
000AD00000DB0000
001F8000008F1000
005F3000003F6000
00AE2222222DB000
01FFFFFFFFFFF100
05F744444446F600
0AE000000000EB00
1F90000000009F10
5F40000000004F60
AE00000000000EB0
E9000000000009F1
ENDCHAR
STARTCHAR amacron
ENCODING 257
SWIDTH 502 0
DWIDTH 16 0
BBX 12 20 2 0
BITMAP
000BFFFFFF60
000466666620
000000000000
000000000000
019DFFFFFFF9
1DFA766666FA
8F50000000EA
CD00000000EA
EB00000000EA
EA00000000EA
EA00000000EA
EA00000000EA
EA00000000EA
EA00000000EA
EA00000000EA
EB00000000EA
CD00000002FA
8F5000000AFA
1DFA7668CCEA
019DFFFEA1E9
ENDCHAR
STARTCHAR Abreve
ENCODING 258
SWIDTH 532 0
DWIDTH 17 0
BBX 16 27 1 0
BITMAP
0000530003500000
0000A80007A00000
0000890009900000
00003E303E300000
000006DED6000000
0000000000000000
0000000000000000
000000AFB0000000
000001FEF2000000
000006F6F7000000
00000BD0DC000000
00001F808F200000
00006F303F600000
0000BD000DB00000
0001F80008F10000
0005F30003F60000
000AD00000DB0000
001F8000008F1000
005F3000003F6000
00AE2222222DB000
01FFFFFFFFFFF100
05F744444446F600
0AE000000000EB00
1F90000000009F10
5F40000000004F60
AE00000000000EB0
E9000000000009F1
ENDCHAR
STARTCHAR abreve
ENCODING 259
SWIDTH 502 0
DWIDTH 16 0
BBX 12 22 2 0
BITMAP
000890004C00
0007B0006B00
0003E402C600
00005CED8000
000000000000
000000000000
019DFFFFFFF9
1DFA766666FA
8F50000000EA
CD00000000EA
EB00000000EA
EA00000000EA
EA00000000EA
EA00000000EA
EA00000000EA
EA00000000EA
EA00000000EA
EB00000000EA
CD00000002FA
8F5000000AFA
1DFA7668CCEA
019DFFFEA1E9
ENDCHAR
STARTCHAR Aogonek
ENCODING 260
SWIDTH 532 0
DWIDTH 17 0
BBX 16 24 1 -4
BITMAP
000000AFB0000000
000001FEF2000000
000006F6F7000000
00000BD0DC000000
00001F808F200000
00006F303F600000
0000BD000DB00000
0001F80008F10000
0005F30003F60000
000AD00000DB0000
001F8000008F1000
005F3000003F6000
00AE2222222DB000
01FFFFFFFFFFF100
05F744444446F600
0AE000000000DB00
1F90000000009F10
5F40000000004F60
AE00000000000EB0
E900000000000CF1
0000000000007900
000000000004C200
00000000000DFF50
0000000000024100
ENDCHAR
STARTCHAR aogonek
ENCODING 261
SWIDTH 502 0
DWIDTH 16 0
BBX 12 20 2 -4
BITMAP
019DFFFFFFF9
1DFA766666FA
8F50000000EA
CD00000000EA
EB00000000EA
EA00000000EA
EA00000000EA
EA00000000EA
EA00000000EA
EA00000000EA
EA00000000EA
EB00000000EA
CD00000002FA
8F5000000AFA
1DFA7668CCEA
019DFFFEA3F9
000000000B40
000000009810
00000001FFD1
000000003300
ENDCHAR
STARTCHAR Cacute
ENCODING 262
SWIDTH 542 0
DWIDTH 17 0
BBX 14 27 2 0
BITMAP
00000000583000
00000003FD1000
0000000BF30000
0000004F600000
000000B9000000
00000000000000
00000000000000
007CFFFFFEB500
0AFC866668DF60
4F900000001CE1
8F2000000005F4
9F0000000003F6
9F0000000003F6
9F000000000151
9F000000000000
9F000000000000
9F000000000000
9F000000000000
9F000000000000
9F000000000000
9F000000000152
9F0000000003F6
9F0000000003F6
8F2000000005F4
4F900000001CE1
0AFC766668DF60
007CFFFFFEB500
ENDCHAR
STARTCHAR cacute
ENCODING 263
SWIDTH 394 0
DWIDTH 13 0
BBX 10 22 2 0
BITMAP
0000007F90
000002FB00
00000BD100
00004E2000
0000000000
0000000000
019DFFFFF7
1DFA766663
8F50000000
CD00000000
EB00000000
EA00000000
EA00000000
EA00000000
EA00000000
EA00000000
EA00000000
EB00000000
CD00000000
8F50000000
1DFA766663
019DFFFFF7
ENDCHAR
STARTCHAR Cdotaccent
ENCODING 266
SWIDTH 542 0
DWIDTH 17 0
BBX 14 26 2 0
BITMAP
000000DA000000
000000EB000000
000000EB000000
000000DA000000
00000000000000
00000000000000
007CFFFFFEB500
0AFC866668DF60
4F900000001CE1
8F2000000005F4
9F0000000003F6
9F0000000003F6
9F000000000151
9F000000000000
9F000000000000
9F000000000000
9F000000000000
9F000000000000
9F000000000000
9F000000000152
9F0000000003F6
9F0000000003F6
8F2000000005F4
4F900000001CE1
0AFC766668DF60
007CFFFFFEB500
ENDCHAR
STARTCHAR cdotaccent
ENCODING 267
SWIDTH 394 0
DWIDTH 13 0
BBX 10 22 2 0
BITMAP
00006F2000
00007F2000
00007F2000
00006F2000
0000000000
0000000000
019DFFFFF7
1DFA766663
8F50000000
CD00000000
EB00000000
EA00000000
EA00000000
EA00000000
EA00000000
EA00000000
EA00000000
EB00000000
CD00000000
8F50000000
1DFA766663
019DFFFFF7
ENDCHAR
STARTCHAR Ccaron
ENCODING 268
SWIDTH 542 0
DWIDTH 17 0
BBX 14 27 2 0
BITMAP
00017200270000
0000B900C90000
00003F24E20000
00000A9C800000
000003ED100000
00000000000000
00000000000000
007CFFFFFEB500
0AFC866668DF60
4F900000001CE1
8F2000000005F4
9F0000000003F6
9F0000000003F6
9F000000000151
9F000000000000
9F000000000000
9F000000000000
9F000000000000
9F000000000000
9F000000000000
9F000000000152
9F0000000003F6
9F0000000003F6
8F2000000005F4
4F900000001CE1
0AFC766668DF60
007CFFFFFEB500
ENDCHAR
STARTCHAR ccaron
ENCODING 269
SWIDTH 394 0
DWIDTH 13 0
BBX 10 22 2 0
BITMAP
005E101D70
000C808D00
0003E4E400
00008F9000
0000000000
0000000000
019DFFFFF7
1DFA766663
8F50000000
CD00000000
EB00000000
EA00000000
EA00000000
EA00000000
EA00000000
EA00000000
EA00000000
EB00000000
CD00000000
8F50000000
1DFA766663
019DFFFFF7
ENDCHAR
STARTCHAR Dcaron
ENCODING 270
SWIDTH 557 0
DWIDTH 18 0
BBX 14 27 2 0
BITMAP
00027100460000
0000D700D70000
00006E16D00000
00000C8D600000
000004FC000000
00000000000000
00000000000000
4FFFFFFFFEC500
4F96666668DF70
4F500000000CF1
4F5000000005F5
4F5000000003F6
4F5000000003F6
4F5000000003F6
4F5000000003F6
4F5000000003F6
4F5000000003F6
4F5000000003F6
4F5000000003F6
4F5000000003F6
4F5000000003F6
4F5000000003F6
4F5000000003F6
4F5000000005F5
4F500000000CF1
4F96666668DF70
4FFFFFFFFEC500
ENDCHAR
STARTCHAR dcaron
ENCODING 271
SWIDTH 534 0
DWIDTH 17 0
BBX 16 22 2 0
BITMAP
0000000000DB05F4
0000000000DB06F4
0000000000DB06F4
0000000000DB06F1
0000000000DB06C0
0000000000DB0680
019DFFFEA3DB0530
1DC310026DEB0000
8F20000005FB0000
CC00000000FB0000
EA00000000DB0000
EA00000000DB0000
EA00000000DB0000
EA00000000DB0000
EA00000000DB0000
EA00000000DB0000
EA00000000DB0000
EB00000000EB0000
CD00000001FB0000
8F50000009FB0000
1DFA7668CDEB0000
019EFFFEA2DB0000
ENDCHAR
STARTCHAR Dcroat
ENCODING 272
SWIDTH 514 0
DWIDTH 16 0
BBX 16 20 0 0
BITMAP
002FFFFFFFFEC600
003FA6666668CF80
003F600000000BF2
003F6000000003F6
003F6000000001F8
003F6000000001F8
003F6000000001F8
025F8222210001F8
3FFFFFFFFC0001F8
047F9444430001F8
003F6000000001F8
003F6000000001F8
003F6000000001F8
003F6000000001F8
003F6000000001F8
003F6000000001F8
003F6000000003F6
003F600000000AF2
003FA6666668CF80
002FFFFFFFFFC600
ENDCHAR
STARTCHAR dcroat
ENCODING 273
SWIDTH 539 0
DWIDTH 17 0
BBX 15 22 2 0
BITMAP
0000000000DB0000
0000000000DB0000
0000122222EC2200
0000AFFFFFFFFF70
0000344445ED4410
0000000000DB0000
0000000000DB0000
0000222100DB0000
02BFFFFFC3DB0000
2EE85446ADEB0000
9F40000007FB0000
DC00000001FB0000
EB00000000DB0000
EA00000000DB0000
EA00000000DB0000
EA00000000DB0000
EA00000000DB0000
EB00000000EB0000
CD00000001FB0000
8F50000009FB0000
1DFA7668CDEB0000
019DFFFEA2DB0000
ENDCHAR
STARTCHAR Emacron
ENCODING 274
SWIDTH 481 0
DWIDTH 15 0
BBX 12 26 2 0
BITMAP
001222222100
009FFFFFF900
002444444200
000000000000
000000000000
000000000000
4FFFFFFFFFF4
4F9666666661
4F5000000000
4F5000000000
4F5000000000
4F5000000000
4F5000000000
4F5000000000
4F6222222200
4FFFFFFFFF60
4F8444444410
4F5000000000
4F5000000000
4F5000000000
4F5000000000
4F5000000000
4F5000000000
4F5000000000
4F9666666661
4FFFFFFFFFF4
ENDCHAR
STARTCHAR emacron
ENCODING 275
SWIDTH 492 0
DWIDTH 16 0
BBX 12 20 2 0
BITMAP
009FFFFFF800
003666666300
000000000000
000000000000
019DFFFFD800
1DFA7667AFB0
8F50000007F6
CD00000000EA
EB00000000CC
EA00000000CC
EA00000000CC
EB22222222CC
EFFFFFFFFFFC
EC4444444443
EA0000000000
EA0000000000
CC0000000000
8F4000000000
1DF976666663
019DFFFFFFF8
ENDCHAR
STARTCHAR Ebreve
ENCODING 276
SWIDTH 481 0
DWIDTH 15 0
BBX 12 27 2 0
BITMAP
002600017000
005D0002F000
003E0004D000
000D711B8000
0003BED91000
000000000000
000000000000
4FFFFFFFFFF4
4F9666666661
4F5000000000
4F5000000000
4F5000000000
4F5000000000
4F5000000000
4F5000000000
4F6222222200
4FFFFFFFFF60
4F8444444410
4F5000000000
4F5000000000
4F5000000000
4F5000000000
4F5000000000
4F5000000000
4F5000000000
4F9666666661
4FFFFFFFFFF4
ENDCHAR
STARTCHAR ebreve
ENCODING 277
SWIDTH 492 0
DWIDTH 16 0
BBX 12 22 2 0
BITMAP
004D0001F100
003E0003E000
001D601AA000
0003BEEA1000
000000000000
000000000000
019DFFFFD800
1DFA7667AFB0
8F50000007F6
CD00000000EA
EB00000000CC
EA00000000CC
EA00000000CC
EB22222222CC
EFFFFFFFFFFC
EC4444444443
EA0000000000
EA0000000000
CC0000000000
8F4000000000
1DF976666663
019DFFFFFFF8
ENDCHAR
STARTCHAR Edotaccent
ENCODING 278
SWIDTH 496 0
DWIDTH 16 0
BBX 12 26 2 0
BITMAP
00000CC00000
00000CC00000
00000CC00000
00000CC00000
000000000000
000000000000
4FFFFFFFFFF4
4F9666666661
4F5000000000
4F5000000000
4F5000000000
4F5000000000
4F5000000000
4F5000000000
4F6222222200
4FFFFFFFFF60
4F8444444410
4F5000000000
4F5000000000
4F5000000000
4F5000000000
4F5000000000
4F5000000000
4F5000000000
4F9666666661
4FFFFFFFFFF4
ENDCHAR
STARTCHAR edotaccent
ENCODING 279
SWIDTH 492 0
DWIDTH 16 0
BBX 12 22 2 0
BITMAP
00000CC00000
00000CC00000
00000CC00000
00000CC00000
000000000000
000000000000
019DFFFFD800
1DFA7667AFB0
8F50000007F6
CD00000000EA
EB00000000CC
EA00000000CC
EA00000000CC
EB22222222CC
EFFFFFFFFFFC
EC4444444443
EA0000000000
EA0000000000
CC0000000000
8F4000000000
1DF976666663
019DFFFFFFF8
ENDCHAR
STARTCHAR Eogonek
ENCODING 280
SWIDTH 481 0
DWIDTH 15 0
BBX 12 24 2 -4
BITMAP
4FFFFFFFFFF4
4F9666666661
4F5000000000
4F5000000000
4F5000000000
4F5000000000
4F5000000000
4F5000000000
4F6222222200
4FFFFFFFFF60
4F8444444410
4F5000000000
4F5000000000
4F5000000000
4F5000000000
4F5000000000
4F5000000000
4F5000000000
4F9666666661
4FFFFFFFFFF4
00000004C100
0000001C3100
0000009FF900
000000142000
ENDCHAR
STARTCHAR eogonek
ENCODING 281
SWIDTH 492 0
DWIDTH 16 0
BBX 12 20 2 -4
BITMAP
019DFFFFD800
1DFA7667AFB0
8F50000007F6
CD00000000EA
EB00000000CC
EA00000000CC
EA00000000CC
EB22222222CC
EFFFFFFFFFFC
EC4444444443
EA0000000000
EA0000000000
CC0000000000
8F4000000000
1DF976666663
019DFFFFFFF8
00000003C100
0000001C4100
0000006FF800
000000042000
ENDCHAR
STARTCHAR Ecaron
ENCODING 282
SWIDTH 481 0
DWIDTH 15 0
BBX 12 27 2 0
BITMAP
000720027000
000AB00AB000
0002F42F3000
00008BAA0000
00001EE20000
000000000000
000000000000
4FFFFFFFFFF4
4F9666666661
4F5000000000
4F5000000000
4F5000000000
4F5000000000
4F5000000000
4F5000000000
4F6222222200
4FFFFFFFFF60
4F8444444410
4F5000000000
4F5000000000
4F5000000000
4F5000000000
4F5000000000
4F5000000000
4F5000000000
4F9666666661
4FFFFFFFFFF4
ENDCHAR
STARTCHAR ecaron
ENCODING 283
SWIDTH 492 0
DWIDTH 16 0
BBX 12 22 2 0
BITMAP
000D6007D000
0005E11E5000
0000B99A0000
00002EE20000
000000000000
000000000000
019DFFFFD800
1DFA7667AFB0
8F50000007F6
CD00000000EA
EB00000000CC
EA00000000CC
EA00000000CC
EB22222222CC
EFFFFFFFFFFC
EC4444444443
EA0000000000
EA0000000000
CC0000000000
8F4000000000
1DF976666663
019DFFFFFFF8
ENDCHAR
STARTCHAR Gcircumflex
ENCODING 284
SWIDTH 539 0
DWIDTH 17 0
BBX 13 27 2 0
BITMAP
00000274000000
00000ACE100000
00003F2C800000
0000C904E10000
0004E200B80000
00000000000000
00000000000000
007CFFFFFD8100
0AFC86667AFC10
4F900000006F70
8F200000000EC0
9F000000000CD0
9F000000000BD0
9F000000000330
9F000000000000
9F000000000000
9F000002222210
9F00001FFFFFD0
9F000004444DD0
9F000000000BD0
9F000000000BD0
9F000000000BD0
9F000000000BD0
8F200000000DC0
4F900000005F80
0AFC76667AFD10
007CFFFFFD9100
ENDCHAR
STARTCHAR gcircumflex
ENCODING 285
SWIDTH 506 0
DWIDTH 16 0
BBX 12 26 2 -4
BITMAP
000007FA0000
00002F4E4000
0000B907D100
0005E100C700
000000000000
000000000000
018DFFFFFFFC
1DFA766666EC
7F60000000CC
BE00000000CC
CC00000000CC
CC00000000CC
CC00000000CC
CC00000000CC
CC00000000CC
CC00000000CC
BD00000000EC
9F30000004FC
2ED632237EEC
04DFFFFFE6CC
0003444310CC
0000000000DC
0000000000FB
0000000007F7
05666667BFC1
0CFFFFFFD810
ENDCHAR
STARTCHAR Gbreve
ENCODING 286
SWIDTH 539 0
DWIDTH 17 0
BBX 13 27 2 0
BITMAP
00044000260000
0008A0005C0000
0006B0006A0000
0002E402D50000
00004CED700000
00000000000000
00000000000000
007CFFFFFD8100
0AFC86667AFC10
4F900000006F70
8F200000000EC0
9F000000000CD0
9F000000000BD0
9F000000000330
9F000000000000
9F000000000000
9F000002222210
9F00001FFFFFD0
9F000004444DD0
9F000000000BD0
9F000000000BD0
9F000000000BD0
9F000000000BD0
8F200000000DC0
4F900000005F80
0AFC76667AFD10
007CFFFFFD9100
ENDCHAR
STARTCHAR gbreve
ENCODING 287
SWIDTH 506 0
DWIDTH 16 0
BBX 12 26 2 -4
BITMAP
0004D0001F10
0003E0002F00
0000D701AA00
00003BEEA100
000000000000
000000000000
018DFFFFFFFC
1DFA766666EC
7F60000000CC
BE00000000CC
CC00000000CC
CC00000000CC
CC00000000CC
CC00000000CC
CC00000000CC
CC00000000CC
BD00000000EC
9F30000004FC
2ED632237EEC
04DFFFFFE6CC
0003444310CC
0000000000DC
0000000000FB
0000000007F7
05666667BFC1
0CFFFFFFD810
ENDCHAR
STARTCHAR Gdotaccent
ENCODING 288
SWIDTH 539 0
DWIDTH 17 0
BBX 13 26 2 0
BITMAP
000002F6000000
000003F6000000
000003F6000000
000002F6000000
00000000000000
00000000000000
007CFFFFFD8100
0AFC86667AFC10
4F900000006F70
8F200000000EC0
9F000000000CD0
9F000000000BD0
9F000000000330
9F000000000000
9F000000000000
9F000002222210
9F00001FFFFFD0
9F000004444DD0
9F000000000BD0
9F000000000BD0
9F000000000BD0
9F000000000BD0
8F200000000DC0
4F900000005F80
0AFC76667AFD10
007CFFFFFD9100
ENDCHAR
STARTCHAR gdotaccent
ENCODING 289
SWIDTH 506 0
DWIDTH 16 0
BBX 12 26 2 -4
BITMAP
000000F80000
000000F90000
000000F90000
000000F80000
000000000000
000000000000
018DFFFFFFFC
1DFA766666EC
7F60000000CC
BE00000000CC
CC00000000CC
CC00000000CC
CC00000000CC
CC00000000CC
CC00000000CC
CC00000000CC
BD00000000EC
9F30000004FC
2ED632237EEC
04DFFFFFE6CC
0003444310CC
0000000000DC
0000000000FB
0000000007F7
05666667BFC1
0CFFFFFFD810
ENDCHAR
STARTCHAR uni0122
ENCODING 290
SWIDTH 539 0
DWIDTH 17 0
BBX 13 27 2 -7
BITMAP
007CFFFFFD8100
0AFC86667AFC10
4F900000006F70
8F200000000EC0
9F000000000CD0
9F000000000BD0
9F000000000330
9F000000000000
9F000000000000
9F000002222210
9F00001FFFFFD0
9F000004444DD0
9F000000000BD0
9F000000000BD0
9F000000000BD0
9F000000000BD0
8F200000000DC0
4F900000005F80
0AFC76667AFD10
007CFFFFFD9100
00000000000000
000000AF000000
000000AF000000
000000AD000000
000000A9000000
000000A4000000
00000090000000
ENDCHAR
STARTCHAR uni0123
ENCODING 291
SWIDTH 506 0
DWIDTH 16 0
BBX 12 29 2 -4
BITMAP
000000170000
000000680000
000000B80000
000001F80000
000002F80000
000002F80000
000000000000
000000000000
000000000000
018DFFFFFFFC
1DFA766666EC
7F60000000CC
BE00000000CC
CC00000000CC
CC00000000CC
CC00000000CC
CC00000000CC
CC00000000CC
CC00000000CC
BD00000000EC
9F30000004FC
2ED632237EEC
04DFFFFFE6CC
0003444310CC
0000000000DC
0000000000FB
0000000007F7
05666667BFC1
0CFFFFFFD810
ENDCHAR
STARTCHAR hcircumflex
ENCODING 293
SWIDTH 507 0
DWIDTH 16 0
BBX 12 24 2 0
BITMAP
000005EC0000
00001D6C7000
8F008C04E200
9F02E300AA00
9F0000000000
9F0000000000
9F0000000000
9F0000000000
9F08DFFFE920
9FAD86679FE2
9FA0000004F9
9F30000000CD
9F000000009F
9F000000009F
9F000000009F
9F000000009F
9F000000009F
9F000000009F
9F000000009F
9F000000009F
9F000000009F
9F000000009F
9F000000009F
8F000000009E
ENDCHAR
STARTCHAR Hbar
ENCODING 294
SWIDTH 523 0
DWIDTH 17 0
BBX 18 20 0 0
BITMAP
002F7000000000EA00
002F7000000000EA00
002F7000000000EA00
003F8000000000EB00
3FFFFFFFFFFFFFFFFB
168FB666666666FD64
002F7000000000EA00
002F7000000000EA00
002F8222222222FA00
002FFFFFFFFFFFFA00
002FA444444445FA00
002F7000000000EA00
002F7000000000EA00
002F7000000000EA00
002F7000000000EA00
002F7000000000EA00
002F7000000000EA00
002F7000000000EA00
002F7000000000EA00
002F7000000000EA00
ENDCHAR
STARTCHAR hbar
ENCODING 295
SWIDTH 544 0
DWIDTH 17 0
BBX 16 22 0 0
BITMAP
0007F20000000000
0008F20000000000
0229F42222100000
3FFFFFFFFFE00000
044AF64444400000
0008F20000000000
0008F20000000000
0008F20022210000
0008F3AFFFFFC400
0008FCC65457DF40
0008FB0000001ED0
0008F400000009F1
0008F200000007F2
0008F200000007F3
0008F200000007F3
0008F200000007F3
0008F200000007F3
0008F200000007F3
0008F200000007F3
0008F200000007F3
0008F200000007F3
0007F100000007F2
ENDCHAR
STARTCHAR Itilde
ENCODING 296
SWIDTH 230 0
DWIDTH 7 0
BBX 8 27 0 0
BITMAP
10000100
B403EF90
B40AB6F0
A84F20E1
5FFA00D2
03300030
00000000
002F7000
002F7000
002F7000
002F7000
002F7000
002F7000
002F7000
002F7000
002F7000
002F7000
002F7000
002F7000
002F7000
002F7000
002F7000
002F7000
002F7000
002F7000
002F7000
002F7000
ENDCHAR
STARTCHAR itilde
ENCODING 297
SWIDTH 210 0
DWIDTH 7 0
BBX 8 22 -1 0
BITMAP
1D005EE3
1E01E9BA
0F48C04B
0AFF503C
00420003
00000000
0006F200
0007F200
0007F200
0007F200
0007F200
0007F200
0007F200
0007F200
0007F200
0007F200
0007F200
0007F200
0007F200
0007F200
0007F200
0006F200
ENDCHAR
STARTCHAR Imacron
ENCODING 298
SWIDTH 230 0
DWIDTH 7 0
BBX 8 26 0 0
BITMAP
12222220
EFFFFFF4
44444441
00000000
00000000
00000000
002F7000
002F7000
002F7000
002F7000
002F7000
002F7000
002F7000
002F7000
002F7000
002F7000
002F7000
002F7000
002F7000
002F7000
002F7000
002F7000
002F7000
002F7000
002F7000
002F7000
ENDCHAR
STARTCHAR imacron
ENCODING 299
SWIDTH 208 0
DWIDTH 7 0
BBX 8 20 -1 0
BITMAP
4FFFFFFE
16666665
00000000
00000000
0006F200
0007F200
0007F200
0007F200
0007F200
0007F200
0007F200
0007F200
0007F200
0007F200
0007F200
0007F200
0007F200
0007F200
0007F200
0006F200
ENDCHAR
STARTCHAR Ibreve
ENCODING 300
SWIDTH 231 0
DWIDTH 7 0
BBX 7 27 0 0
BITMAP
35000160
7B0004D0
5C0006B0
1E502C60
04CED700
00000000
00000000
002F7000
002F7000
002F7000
002F7000
002F7000
002F7000
002F7000
002F7000
002F7000
002F7000
002F7000
002F7000
002F7000
002F7000
002F7000
002F7000
002F7000
002F7000
002F7000
002F7000
ENDCHAR
STARTCHAR ibreve
ENCODING 301
SWIDTH 211 0
DWIDTH 7 0
BBX 7 22 0 0
BITMAP
C5000880
B7000A70
6C204E30
08DEC500
00000000
00000000
006F2000
007F2000
007F2000
007F2000
007F2000
007F2000
007F2000
007F2000
007F2000
007F2000
007F2000
007F2000
007F2000
007F2000
007F2000
006F2000
ENDCHAR
STARTCHAR Iogonek
ENCODING 302
SWIDTH 230 0
DWIDTH 7 0
BBX 4 24 1 -4
BITMAP
02F7
02F7
02F7
02F7
02F7
02F7
02F7
02F7
02F7
02F7
02F7
02F7
02F7
02F7
02F7
02F7
02F7
02F7
02F7
02F7
0970
6A20
EFF3
3310
ENDCHAR
STARTCHAR iogonek
ENCODING 303
SWIDTH 210 0
DWIDTH 7 0
BBX 5 26 0 -4
BITMAP
006F20
007F20
007F20
006F20
000000
000000
006F20
007F20
007F20
007F20
007F20
007F20
007F20
007F20
007F20
007F20
007F20
007F20
007F20
007F20
007F20
007F20
01C200
0B6100
3FFB00
043000
ENDCHAR
STARTCHAR Idotaccent
ENCODING 304
SWIDTH 230 0
DWIDTH 7 0
BBX 3 25 2 0
BITMAP
2F70
2F70
2F70
1F70
0000
2F70
2F70
2F70
2F70
2F70
2F70
2F70
2F70
2F70
2F70
2F70
2F70
2F70
2F70
2F70
2F70
2F70
2F70
2F70
2F70
ENDCHAR
STARTCHAR dotlessi
ENCODING 305
SWIDTH 212 0
DWIDTH 7 0
BBX 3 16 2 0
BITMAP
6F20
6F30
6F30
6F30
6F30
6F30
6F30
6F30
6F30
6F30
6F30
6F30
6F30
6F30
6F30
6F20
ENDCHAR
STARTCHAR IJ
ENCODING 306
SWIDTH 721 0
DWIDTH 23 0
BBX 19 20 2 0
BITMAP
1F700000000000000E90
1F800000000000000F90
1F800000000000000F90
1F800000000000000F90
1F800000000000000F90
1F800000000000000F90
1F800000000000000F90
1F800000000000000F90
1F800000000000000F90
1F800000000000000F90
1F800000000000000F90
1F800000000000000F90
1F800035000000000F90
1F80009F100000000F90
1F80009F100000000F90
1F80009F100000000F90
1F80007F300000002F80
1F80003FA00000009F40
1F800009FC86668CFA00
1F7000006CFFFFFC7000
ENDCHAR
STARTCHAR ij
ENCODING 307
SWIDTH 419 0
DWIDTH 13 0
BBX 9 26 2 -4
BITMAP
6F20000BC0
7F20000BD0
7F20000BD0
6F20000BC0
0000000000
0000000000
6F20000BC0
7F20000BD0
7F20000BD0
7F20000BD0
7F20000BD0
7F20000BD0
7F20000BD0
7F20000BD0
7F20000BD0
7F20000BD0
7F20000BD0
7F20000BD0
7F20000BD0
7F20000BD0
7F20000BD0
6F20000CD0
0000000EB0
0000006F70
00067AFD10
000EFD8100
ENDCHAR
STARTCHAR Jcircumflex
ENCODING 308
SWIDTH 494 0
DWIDTH 16 0
BBX 15 27 1 0
BITMAP
0000000000373000
0000000000DCC000
0000000006E1E600
000000000D707D00
000000006D001D60
0000000000000000
0000000000000000
00000000002F6000
00000000003F6000
00000000003F6000
00000000003F6000
00000000003F6000
00000000003F6000
00000000003F6000
00000000003F6000
00000000003F6000
00000000003F6000
00000000003F6000
00000000003F6000
44000000003F6000
CD000000003F6000
CD000000003F6000
CD000000003F6000
AF000000005F5000
6F70000000CF1000
0CFB76668DF70000
018DFFFFEC500000
ENDCHAR
STARTCHAR jcircumflex
ENCODING 309
SWIDTH 209 0
DWIDTH 7 0
BBX 9 26 -2 -4
BITMAP
0000BF6000
0006D5E100
001E60BA00
008C002E30
0000000000
0000000000
00006F2000
00007F2000
00007F2000
00007F2000
00007F2000
00007F2000
00007F2000
00007F2000
00007F2000
00007F2000
00007F2000
00007F2000
00007F2000
00007F2000
00007F2000
00007F2000
00009F1000
0002EC0000
479EF30000
9FEA300000
ENDCHAR
STARTCHAR uni0136
ENCODING 310
SWIDTH 530 0
DWIDTH 17 0
BBX 14 28 2 -8
BITMAP
4F400000001DD1
4F50000000BF40
4F50000007F700
4F5000004FA000
4F500002ED1000
4F50000CF30000
4F50009F600000
4F5005FA000000
4F503ED1000000
4F51DFE2000000
4F5AE4EC000000
4FAF505F700000
4FF6000AF30000
4F900001DC0000
4F5000004F8000
4F50000009F400
4F50000001DD10
4F500000003F90
4F5000000008F4
4F4000000000BE
00000000000000
0000006F300000
0000007F300000
0000007F200000
0000007E000000
00000079000000
00000075000000
00000031000000
ENDCHAR
STARTCHAR uni0137
ENCODING 311
SWIDTH 431 0
DWIDTH 14 0
BBX 12 29 2 -7
BITMAP
8F0000000000
9F0000000000
9F0000000000
9F0000000000
9F0000000000
9F0000000000
9F0000003EA0
9F000000CE10
9F000008F500
9F00003FA000
9F0000CE1000
9F0008F60000
9F003FB00000
9F00CE200000
9F008F500000
9F000CE10000
9F0002FB0000
9F00007F6000
9F00000BE200
9F000002EC00
9F0000005F80
8F00000009F3
000000000000
00003F700000
00003F700000
00003F500000
00003F100000
00003B000000
000036000000
ENDCHAR
STARTCHAR Lacute
ENCODING 313
SWIDTH 451 0
DWIDTH 14 0
BBX 12 27 2 0
BITMAP
000682000000
004FB0000000
00CE10000000
06F400000000
0D7000000000
000000000000
000000000000
4F4000000000
4F5000000000
4F5000000000
4F5000000000
4F5000000000
4F5000000000
4F5000000000
4F5000000000
4F5000000000
4F5000000000
4F5000000000
4F5000000000
4F5000000000
4F5000000000
4F5000000000
4F5000000000
4F5000000000
4F5000000000
4F9666666663
4FFFFFFFFFF8
ENDCHAR
STARTCHAR lacute
ENCODING 314
SWIDTH 207 0
DWIDTH 7 0
BBX 5 28 2 0
BITMAP
001770
009F70
03F900
0CB000
271000
000000
6F2000
7F2000
7F2000
7F2000
7F2000
7F2000
7F2000
7F2000
7F2000
7F2000
7F2000
7F2000
7F2000
7F2000
7F2000
7F2000
7F2000
7F2000
7F2000
7F2000
7F2000
6F2000
ENDCHAR
STARTCHAR uni013B
ENCODING 315
SWIDTH 451 0
DWIDTH 14 0
BBX 12 27 2 -7
BITMAP
4F4000000000
4F5000000000
4F5000000000
4F5000000000
4F5000000000
4F5000000000
4F5000000000
4F5000000000
4F5000000000
4F5000000000
4F5000000000
4F5000000000
4F5000000000
4F5000000000
4F5000000000
4F5000000000
4F5000000000
4F5000000000
4F9666666663
4FFFFFFFFFF8
000000000000
00000AE00000
00000BF00000
00000BD00000
00000B900000
00000B400000
000009000000
ENDCHAR
STARTCHAR uni013C
ENCODING 316
SWIDTH 211 0
DWIDTH 7 0
BBX 3 29 2 -7
BITMAP
6F20
7F20
7F20
7F20
7F20
7F20
7F20
7F20
7F20
7F20
7F20
7F20
7F20
7F20
7F20
7F20
7F20
7F20
7F20
7F20
7F20
6F20
0000
7F30
7F30
7F10
7C00
7700
7200
ENDCHAR
STARTCHAR Lcaron
ENCODING 317
SWIDTH 451 0
DWIDTH 14 0
BBX 12 20 2 0
BITMAP
4F400001F800
4F500002F900
4F500002F800
4F500002F600
4F500002F200
4F500002C000
4F5000017000
4F5000000000
4F5000000000
4F5000000000
4F5000000000
4F5000000000
4F5000000000
4F5000000000
4F5000000000
4F5000000000
4F5000000000
4F5000000000
4F9666666663
4FFFFFFFFFF8
ENDCHAR
STARTCHAR lcaron
ENCODING 318
SWIDTH 274 0
DWIDTH 9 0
BBX 7 22 2 0
BITMAP
6F206F30
7F207F40
7F207F30
7F207F10
7F207B00
7F207700
7F206200
7F200000
7F200000
7F200000
7F200000
7F200000
7F200000
7F200000
7F200000
7F200000
7F200000
7F200000
7F200000
7F200000
7F200000
6F200000
ENDCHAR
STARTCHAR Ldot
ENCODING 319
SWIDTH 500 0
DWIDTH 16 0
BBX 12 20 2 0
BITMAP
3F5000000000
4F6000000000
4F6000000000
4F6000000000
4F6000000000
4F6000000000
4F6000000000
4F6000000000
4F60002F9000
4F60002FA000
4F60002FA000
4F60002F9000
4F6000000000
4F6000000000
4F6000000000
4F6000000000
4F6000000000
4F6000000000
4FA666666664
3FFFFFFFFFF9
ENDCHAR
STARTCHAR ldot
ENCODING 320
SWIDTH 314 0
DWIDTH 10 0
BBX 7 22 2 0
BITMAP
6F300000
6F300000
6F300000
6F300000
6F300000
6F300000
6F300000
6F300000
6F300000
6F300000
6F302FA0
6F302FA0
6F302FA0
6F302FA0
6F300000
6F300000
6F300000
6F300000
6F300000
6F300000
6F300000
6F300000
ENDCHAR
STARTCHAR Lslash
ENCODING 321
SWIDTH 504 0
DWIDTH 16 0
BBX 14 20 0 0
BITMAP
001F8000000000
001F9000000000
001F9000000000
001F9000000000
001F9019200000
001F97ED100000
001FFE70000000
04CFB100000000
8FAF9000000000
731F9000000000
001F9000000000
001F9000000000
001F9000000000
001F9000000000
001F9000000000
001F9000000000
001F9000000000
001F9000000000
001FC666666665
001FFFFFFFFFFC
ENDCHAR
STARTCHAR lslash
ENCODING 322
SWIDTH 296 0
DWIDTH 9 0
BBX 9 22 0 0
BITMAP
0001F70000
0001F80000
0001F80000
0001F80000
0001F80000
0001F80000
0001F80670
0001FBCF60
0003FFB300
019FF90000
2ED7F80000
2811F80000
0001F80000
0001F80000
0001F80000
0001F80000
0001F80000
0001F80000
0001F80000
0001F80000
0001F80000
0001F70000
ENDCHAR
STARTCHAR Nacute
ENCODING 323
SWIDTH 579 0
DWIDTH 19 0
BBX 14 27 2 0
BITMAP
00000000068200
000000004FB000
00000000CE1000
00000006F40000
0000000D700000
00000000000000
00000000000000
4F7000000000BC
4FE200000000CD
4FFA00000000CD
4FDF40000000CD
4F5DD0000000CD
4F55F7000000CD
4F50BE200000CD
4F502FA00000CD
4F5008F40000CD
4F5000DC0000CD
4F50004F7000CD
4F50000AE100CD
4F500002EA00CD
4F5000007F40CD
4F5000000DC0CD
4F50000004F7CD
4F50000000AEDD
4F500000002EFD
4F5000000007FD
4F4000000000CC
ENDCHAR
STARTCHAR nacute
ENCODING 324
SWIDTH 507 0
DWIDTH 16 0
BBX 12 22 2 0
BITMAP
00000006FA00
0000001EC100
0000009E2000
000003E30000
000000000000
000000000000
8E08DFFFE920
9FAD86679FE2
9FA0000004F9
9F30000000CD
9F000000009F
9F000000009F
9F000000009F
9F000000009F
9F000000009F
9F000000009F
9F000000009F
9F000000009F
9F000000009F
9F000000009F
9F000000009F
8F000000009E
ENDCHAR
STARTCHAR uni0145
ENCODING 325
SWIDTH 579 0
DWIDTH 19 0
BBX 14 27 2 -7
BITMAP
4F7000000000BC
4FE200000000CD
4FFA00000000CD
4FDF40000000CD
4F5DD0000000CD
4F55F7000000CD
4F50BE200000CD
4F502FA00000CD
4F5008F40000CD
4F5000DC0000CD
4F50004F7000CD
4F50000AE100CD
4F500002EA00CD
4F5000007F40CD
4F5000000DC0CD
4F50000004F7CD
4F50000000AEDD
4F500000002EFD
4F5000000007FD
4F4000000000CC
00000000000000
0000007F200000
0000007F200000
0000007F100000
0000007C000000
00000077000000
00000072000000
ENDCHAR
STARTCHAR uni0146
ENCODING 326
SWIDTH 505 0
DWIDTH 16 0
BBX 12 23 2 -7
BITMAP
8E08DFFFE920
9FAD86679FE2
9FA0000004F9
9F30000000CD
9F000000009F
9F000000009F
9F000000009F
9F000000009F
9F000000009F
9F000000009F
9F000000009F
9F000000009F
9F000000009F
9F000000009F
9F000000009F
8F000000009E
000000000000
000009F10000
00000AF10000
00000AE00000
00000AA00000
00000A500000
000008100000
ENDCHAR
STARTCHAR Ncaron
ENCODING 327
SWIDTH 579 0
DWIDTH 19 0
BBX 14 27 2 0
BITMAP
00005400073000
00006E105E1000
00000C80D70000
000004E7E10000
000000BF600000
00000000000000
00000000000000
4F7000000000BC
4FE200000000CD
4FFA00000000CD
4FDF40000000CD
4F5DD0000000CD
4F55F7000000CD
4F50BE200000CD
4F502FA00000CD
4F5008F40000CD
4F5000DC0000CD
4F50004F7000CD
4F50000AE100CD
4F500002EA00CD
4F5000007F40CD
4F5000000DC0CD
4F50000004F7CD
4F50000000AEDD
4F500000002EFD
4F5000000007FD
4F4000000000CC
ENDCHAR
STARTCHAR ncaron
ENCODING 328
SWIDTH 507 0
DWIDTH 16 0
BBX 12 22 2 0
BITMAP
000AA004E200
0002F30D8000
00008C6D1000
00000DE50000
000000000000
000000000000
8E08DFFFE920
9FAD86679FE2
9FA0000004F9
9F30000000CD
9F000000009F
9F000000009F
9F000000009F
9F000000009F
9F000000009F
9F000000009F
9F000000009F
9F000000009F
9F000000009F
9F000000009F
9F000000009F
8F000000009E
ENDCHAR
STARTCHAR Eng
ENCODING 330
SWIDTH 519 0
DWIDTH 17 0
BBX 14 24 2 -4
BITMAP
3F8000000000BD
4FF200000000BD
4FFB00000000BD
4FDF50000000BD
4F6DD1000000BD
4F64F8000000BD
4F60AF200000BD
4F602EB00000BD
4F6007F50000BD
4F6000CD0000BD
4F60004F7000BD
4F60000AE200BD
4F600001EA00BD
4F6000007F40BD
4F6000000CD0BD
4F60000004F7BD
4F60000000AEDD
4F600000001EFD
4F6000000007FD
3F5000000000DD
000000000000DC
000000000004F8
0000000057AFD1
00000000DFD910
ENDCHAR
STARTCHAR eng
ENCODING 331
SWIDTH 507 0
DWIDTH 16 0
BBX 12 20 2 -4
BITMAP
8E08DFFFE920
9FAD86679FE2
9FA0000004FA
9F30000000BE
9F000000009F
9F000000009F
9F000000009F
9F000000009F
9F000000009F
9F000000009F
9F000000009F
9F000000009F
9F000000009F
9F000000009F
9F000000009F
8F000000009F
0000000000CE
0000000004FA
000000579FE2
000000CFE920
ENDCHAR
STARTCHAR Omacron
ENCODING 332
SWIDTH 553 0
DWIDTH 18 0
BBX 14 26 2 0
BITMAP
00012222220000
000CFFFFFF7000
00034444441000
00000000000000
00000000000000
00000000000000
007CFFFFFEB400
0AFC866668EF50
4F900000001DE0
8F2000000007F3
9F0000000005F4
9F0000000004F4
9F0000000004F4
9F0000000004F4
9F0000000004F4
9F0000000004F4
9F0000000004F4
9F0000000004F4
9F0000000004F4
9F0000000004F4
9F0000000004F4
9F0000000005F4
8F2000000007F3
4F900000001DE0
0AFC766668DF50
007CFFFFFEB400
ENDCHAR
STARTCHAR omacron
ENCODING 333
SWIDTH 496 0
DWIDTH 16 0
BBX 12 20 2 0
BITMAP
00AFFFFFF800
004666666300
000000000000
000000000000
019DFFFFD810
1DFA7667AFC1
8F50000006F7
CD00000000EB
EB00000000CC
EA00000000CC
EA00000000CC
EA00000000CC
EA00000000CC
EA00000000CC
EA00000000CC
EB00000000CC
CD00000000EB
8F50000006F7
1DFA7667AFC1
019DFFFFD810
ENDCHAR
STARTCHAR Obreve
ENCODING 334
SWIDTH 553 0
DWIDTH 18 0
BBX 14 27 2 0
BITMAP
00026000070000
0005D0002F0000
0003E0004D0000
0000D711B80000
00002BED910000
00000000000000
00000000000000
007CFFFFFEB400
0AFC866668EF50
4F900000001DE0
8F2000000007F3
9F0000000005F4
9F0000000004F4
9F0000000004F4
9F0000000004F4
9F0000000004F4
9F0000000004F4
9F0000000004F4
9F0000000004F4
9F0000000004F4
9F0000000004F4
9F0000000004F4
9F0000000005F4
8F2000000007F3
4F900000001DE0
0AFC766668DF50
007CFFFFFEB400
ENDCHAR
STARTCHAR obreve
ENCODING 335
SWIDTH 496 0
DWIDTH 16 0
BBX 12 22 2 0
BITMAP
003E0000E200
002F0001F000
000D7119B000
0003BEEA2000
000000000000
000000000000
019DFFFFD810
1DFA7667AFC1
8F50000006F7
CD00000000EB
EB00000000CC
EA00000000CC
EA00000000CC
EA00000000CC
EA00000000CC
EA00000000CC
EA00000000CC
EB00000000CC
CD00000000EB
8F50000006F7
1DFA7667AFC1
019DFFFFD810
ENDCHAR
STARTCHAR Ohungarumlaut
ENCODING 336
SWIDTH 553 0
DWIDTH 18 0
BBX 14 26 2 0
BITMAP
000000CD00CC00
000007E307E200
00001E602E5000
00009900980000
00000000000000
00000000000000
007CFFFFFEB400
0AFC866668EF50
4F900000001DE0
8F2000000007F3
9F0000000005F4
9F0000000004F4
9F0000000004F4
9F0000000004F4
9F0000000004F4
9F0000000004F4
9F0000000004F4
9F0000000004F4
9F0000000004F4
9F0000000004F4
9F0000000004F4
9F0000000005F4
8F2000000007F3
4F900000001DE0
0AFC766668DF50
007CFFFFFEB400
ENDCHAR
STARTCHAR ohungarumlaut
ENCODING 337
SWIDTH 496 0
DWIDTH 16 0
BBX 12 22 2 0
BITMAP
000008E209E2
00003F603F50
0000BA00C900
0005C106C000
000000000000
000000000000
019DFFFFD810
1DFA7667AFC1
8F50000006F7
CD00000000EB
EB00000000CC
EA00000000CC
EA00000000CC
EA00000000CC
EA00000000CC
EA00000000CC
EA00000000CC
EB00000000CC
CD00000000EB
8F50000006F7
1DFA7667AFC1
019DFFFFD810
ENDCHAR
STARTCHAR OE
ENCODING 338
SWIDTH 775 0
DWIDTH 25 0
BBX 21 20 2 0
BITMAP
006CFFFFFFFFFFFFFFFF60
09FC866668FB6666666620
3FA0000002F70000000000
7F30000002F70000000000
8F10000002F70000000000
8F10000002F70000000000
8F10000002F70000000000
8F10000002F70000000000
8F10000002F82222222100
8F10000002FFFFFFFFF700
8F10000002FA4444444200
8F10000002F70000000000
8F10000002F70000000000
8F10000002F70000000000
8F10000002F70000000000
8F10000002F70000000000
7F30000002F70000000000
3FA0000002F70000000000
09FC866668FB6666666620
006CFFFFFFFFFFFFFFFF60
ENDCHAR
STARTCHAR oe
ENCODING 339
SWIDTH 812 0
DWIDTH 26 0
BBX 22 16 2 0
BITMAP
019DFFFEC6006CEFFFD910
1DFA7667AF97FB7667AFD1
8F50000007FF70000005F8
CD00000000EF00000000DC
EB00000000DD00000000AE
EA00000000CC00000000AE
EA00000000CC00000000AE
EA00000000CD22222222BE
EA00000000CFFFFFFFFFFE
EA00000000CD4444444444
EA00000000CC0000000000
EB00000000DD0000000000
CD00000000EE0000000000
8F50000007FF6000000000
1DFA7667AF8AFA76666664
019DFFFFD7007CEFFFFFFA
ENDCHAR
STARTCHAR Racute
ENCODING 340
SWIDTH 534 0
DWIDTH 17 0
BBX 14 27 2 0
BITMAP
00000004840000
0000001EE20000
0000009F400000
000002F8000000
000009B0000000
00000000000000
00000000000000
4FFFFFFFFD9100
4F9666667AFD10
4F500000006F80
4F500000000DC0
4F500000000BD0
4F500000000BD0
4F500000000BD0
4F500000000CC0
4F500000002F90
4F62222236DE20
4FFFFFFFFFC300
4F844446F90000
4F500000BE1000
4F5000005F7000
4F5000000DD000
4F50000006F600
4F50000000ED00
4F500000007F40
4F500000001EB0
4F4000000008F3
ENDCHAR
STARTCHAR racute
ENCODING 341
SWIDTH 313 0
DWIDTH 10 0
BBX 8 22 2 0
BITMAP
0000CF40
0007F700
002E9000
00AB0000
00000000
00000000
8E07DFF2
9F9D8661
9FC10000
9F400000
9F100000
9F000000
9F000000
9F000000
9F000000
9F000000
9F000000
9F000000
9F000000
9F000000
9F000000
8F000000
ENDCHAR
STARTCHAR uni0156
ENCODING 342
SWIDTH 534 0
DWIDTH 17 0
BBX 14 27 2 -7
BITMAP
4FFFFFFFFD9100
4F9666667AFD10
4F500000006F80
4F500000000DC0
4F500000000BD0
4F500000000BD0
4F500000000BD0
4F500000000CC0
4F500000002F90
4F62222236DE20
4FFFFFFFFFC300
4F844446F90000
4F500000BE1000
4F5000005F7000
4F5000000DD000
4F50000006F600
4F50000000ED00
4F500000007F40
4F500000001EB0
4F4000000008F3
00000000000000
000004F5000000
000004F6000000
000004F4000000
000004E0000000
000004A0000000
00000440000000
ENDCHAR
STARTCHAR uni0157
ENCODING 343
SWIDTH 313 0
DWIDTH 10 0
BBX 8 23 2 -7
BITMAP
8E07DFF2
9F9D8661
9FC10000
9F400000
9F100000
9F000000
9F000000
9F000000
9F000000
9F000000
9F000000
9F000000
9F000000
9F000000
9F000000
8F000000
00000000
9F100000
9F100000
9E000000
9A000000
95000000
81000000
ENDCHAR
STARTCHAR Rcaron
ENCODING 344
SWIDTH 534 0
DWIDTH 17 0
BBX 14 27 2 0
BITMAP
00073001710000
0009C009C00000
0001E42F400000
00008C9B000000
00001DE3000000
00000000000000
00000000000000
4FFFFFFFFD9100
4F9666667AFD10
4F500000006F80
4F500000000DC0
4F500000000BD0
4F500000000BD0
4F500000000BD0
4F500000000CC0
4F500000002F90
4F62222236DE20
4FFFFFFFFFC300
4F844446F90000
4F500000BE1000
4F5000005F7000
4F5000000DD000
4F50000006F600
4F50000000ED00
4F500000007F40
4F500000001EB0
4F4000000008F3
ENDCHAR
STARTCHAR rcaron
ENCODING 345
SWIDTH 313 0
DWIDTH 10 0
BBX 8 22 2 0
BITMAP
5E100D70
0B907D10
02E4E400
007FA000
00000000
00000000
8E07DFF2
9F9D8661
9FC10000
9F400000
9F100000
9F000000
9F000000
9F000000
9F000000
9F000000
9F000000
9F000000
9F000000
9F000000
9F000000
8F000000
ENDCHAR
STARTCHAR Sacute
ENCODING 346
SWIDTH 562 0
DWIDTH 18 0
BBX 14 27 2 0
BITMAP
00000000583000
00000003FD1000
0000000BF30000
0000004F600000
000000B9000000
00000000000000
00000000000000
005BEFFFFEB400
07FD866678DF50
1FC10000001DE0
5F6000000007F3
6F4000000005F5
6F3000000002A3
6F500000000000
2FC10000000000
08FD7200000000
004CFFDA730000
0000269CFFD400
0000000016EF70
00000000001CF2
000000000005F5
5D2000000004F6
6F4000000004F6
5F6000000006F4
1EC00000001CE1
07FD866668DF60
005BEFFFFEB500
ENDCHAR
STARTCHAR sacute
ENCODING 347
SWIDTH 427 0
DWIDTH 14 0
BBX 12 22 1 0
BITMAP
0000007FA000
000002EC1000
00000AD10000
00004E300000
000000000000
000000000000
019DFFFFFF40
0CFB76666610
4F8000000000
6F4000000000
4F5000000000
1ED200000000
03DFA4000000
0016CFD82000
0000039EF900
000000008F80
000000000CD0
0000000009F0
0000000009F1
000000001DE0
16666678DF70
3FFFFFFEC600
ENDCHAR
STARTCHAR Scircumflex
ENCODING 348
SWIDTH 562 0
DWIDTH 18 0
BBX 14 27 2 0
BITMAP
00000066000000
000005EE500000
00000D77D00000
00006E11E60000
0000E6006D0000
00000000000000
00000000000000
005BEFFFFEB400
07FD866678DF50
1FC10000001DE0
5F6000000007F3
6F4000000005F5
6F3000000002A3
6F500000000000
2FC10000000000
08FD7200000000
004CFFDA730000
0000269CFFD400
0000000016EF70
00000000001CF2
000000000005F5
5D2000000004F6
6F4000000004F6
5F6000000006F4
1EC00000001CE1
07FD866668DF60
005BEFFFFEB500
ENDCHAR
STARTCHAR scircumflex
ENCODING 349
SWIDTH 427 0
DWIDTH 14 0
BBX 12 22 1 0
BITMAP
00005FC00000
0001E6D70000
0008C04E2000
002E400AA000
000000000000
000000000000
019DFFFFFF40
0CFB76666610
4F8000000000
6F4000000000
4F5000000000
1ED200000000
03DFA4000000
0016CFD82000
0000039EF900
000000008F80
000000000CD0
0000000009F0
0000000009F1
000000001DE0
16666678DF70
3FFFFFFEC600
ENDCHAR
STARTCHAR uni015E
ENCODING 350
SWIDTH 562 0
DWIDTH 18 0
BBX 14 27 2 -7
BITMAP
005BEFFFFEB400
07FD866678DF50
1FC10000001DE0
5F6000000007F3
6F4000000005F5
6F3000000002A3
6F500000000000
2FC10000000000
08FD7200000000
004CFFDA730000
0000269CFFD400
0000000016EF70
00000000001CF2
000000000005F5
5D2000000004F6
6F4000000004F6
5F6000000006F4
1EC00000001CE1
07FD866668DF60
005BEFFFFEB500
0000007A100000
000005FFB00000
00000146E60000
00000000980000
00000023D60000
000004FFD10000
00000143000000
ENDCHAR
STARTCHAR uni015F
ENCODING 351
SWIDTH 427 0
DWIDTH 14 0
BBX 11 23 1 -7
BITMAP
019DFFFFFF40
0CFB76666610
4F8000000000
6F4000000000
4F5000000000
1EC200000000
03DFA4000000
0016CFD71000
0000039EF900
000000008F70
000000000CD0
0000000009F0
0000000009F0
000000001DD0
16666678DF70
3FFFFFFFD700
00000A700000
00009FF80000
0000257F2000
0000000D4000
0000125F2000
00008FFA0000
000024300000
ENDCHAR
STARTCHAR Scaron
ENCODING 352
SWIDTH 562 0
DWIDTH 18 0
BBX 14 27 2 0
BITMAP
00017200370000
0000B900B90000
00003F24F20000
00000A9C800000
000002EE100000
00000000000000
00000000000000
005BEFFFFEB400
07FD866678DF50
1FC10000001DE0
5F6000000007F3
6F4000000005F5
6F3000000002A3
6F500000000000
2FC10000000000
08FD7200000000
004CFFDA730000
0000269CFFD400
0000000016EF70
00000000001CF2
000000000005F5
5D2000000004F6
6F4000000004F6
5F6000000006F4
1EC00000001CE1
07FD866668DF60
005BEFFFFEB500
ENDCHAR
STARTCHAR scaron
ENCODING 353
SWIDTH 427 0
DWIDTH 14 0
BBX 12 22 1 0
BITMAP
002E400AA000
0008C04E2000
0001E6D70000
00005EC00000
000000000000
000000000000
019DFFFFFF40
0CFB76666610
4F8000000000
6F4000000000
4F5000000000
1ED200000000
03DFA4000000
0016CFD82000
0000039EF900
000000008F80
000000000CD0
0000000009F0
0000000009F1
000000001DE0
16666678DF70
3FFFFFFEC600
ENDCHAR
STARTCHAR uni0162
ENCODING 354
SWIDTH 420 0
DWIDTH 13 0
BBX 13 28 0 -8
BITMAP
6FFFFFFFFFFFC0
266667FB666650
000001F8000000
000001F8000000
000001F8000000
000001F8000000
000001F8000000
000001F8000000
000001F8000000
000001F8000000
000001F8000000
000001F8000000
000001F8000000
000001F8000000
000001F8000000
000001F8000000
000001F8000000
000001F8000000
000001F8000000
000001F7000000
00000000000000
000001F8000000
000002F9000000
000002F7000000
000002F4000000
000002E0000000
000002A0000000
00000130000000
ENDCHAR
STARTCHAR uni0163
ENCODING 355
SWIDTH 347 0
DWIDTH 11 0
BBX 10 27 0 -8
BITMAP
0009F00000
0009F00000
0009F10000
3FFFFFFFF7
166CF76663
0009F00000
0009F00000
0009F00000
0009F00000
0009F00000
0009F00000
0009F00000
0009F00000
0009F00000
0009F10000
0008F30000
0004FA0000
00009FC865
000006CEFC
0000000000
000003F700
000003F700
000003F600
000003F300
000003D000
0000038000
0000012000
ENDCHAR
STARTCHAR Tcaron
ENCODING 356
SWIDTH 420 0
DWIDTH 13 0
BBX 13 27 0 0
BITMAP
00027100460000
0000D700D70000
00006E17D00000
00000C7E600000
000004FC000000
00000000000000
00000000000000
6FFFFFFFFFFFC0
266667FB666650
000001F8000000
000001F8000000
000001F8000000
000001F8000000
000001F8000000
000001F8000000
000001F8000000
000001F8000000
000001F8000000
000001F8000000
000001F8000000
000001F8000000
000001F8000000
000001F8000000
000001F8000000
000001F8000000
000001F8000000
000001F7000000
ENDCHAR
STARTCHAR tcaron
ENCODING 357
SWIDTH 396 0
DWIDTH 13 0
BBX 13 20 0 0
BITMAP
00001000004F60
0009F000004F60
0009F000004F60
0009F100004F30
3FFFFFFFF74E00
166CF766634A00
0009F000004500
0009F000000000
0009F000000000
0009F000000000
0009F000000000
0009F000000000
0009F000000000
0009F000000000
0009F000000000
0009F100000000
0008F300000000
0004FA00000000
00009FC8650000
000006CEFC0000
ENDCHAR
STARTCHAR Tbar
ENCODING 358
SWIDTH 501 0
DWIDTH 16 0
BBX 14 20 0 0
BITMAP
4FFFFFFFFFFFF1
166666FD666660
000000EA000000
000000EA000000
000000EA000000
000000EA000000
000000EA000000
000000EA000000
001222EB222100
009FFFFFFFFA00
002445EC444300
000000EA000000
000000EA000000
000000EA000000
000000EA000000
000000EA000000
000000EA000000
000000EA000000
000000EA000000
000000DA000000
ENDCHAR
STARTCHAR tbar
ENCODING 359
SWIDTH 350 0
DWIDTH 11 0
BBX 10 19 0 0
BITMAP
0008F10000
0009F10000
0009F10000
3FFFFFFFF8
166CF76663
0009F10000
0009F10000
0009F10000
022AF32221
3FFFFFFFF8
044BF54442
0009F10000
0009F10000
0009F10000
0009F10000
0007F40000
0003FB0000
00008FD865
000005CEFD
ENDCHAR
STARTCHAR Utilde
ENCODING 360
SWIDTH 552 0
DWIDTH 18 0
BBX 14 27 2 0
BITMAP
00010000100000
0009601DFB0000
0009608C5E2000
0008A3E40B4000
0003FFC00B4000
00002400031000
00000000000000
6F2000000007F1
7F2000000008F2
7F2000000008F2
7F2000000008F2
7F2000000008F2
7F2000000008F2
7F2000000008F2
7F2000000008F2
7F2000000008F2
7F2000000008F2
7F2000000008F2
7F2000000008F2
7F2000000008F2
7F2000000008F2
7F2000000008F2
6F3000000008F2
5F500000000AF0
2FB00000002FB0
08FD866679EE30
005CEFFFFEA300
ENDCHAR
STARTCHAR utilde
ENCODING 361
SWIDTH 507 0
DWIDTH 16 0
BBX 12 22 2 0
BITMAP
006800AFB000
007805E7E400
006B3D709600
002EFD109600
000241002100
000000000000
BC00000000BC
CD00000000CC
CD00000000CC
CD00000000CC
CD00000000CC
CD00000000CC
CD00000000CC
CD00000000CC
CD00000000CC
CD00000000CC
CD00000000CC
BD00000000CC
AF00000000EC
6F70000007FC
0CFB7668BEDC
018DFFFEB2BC
ENDCHAR
STARTCHAR Umacron
ENCODING 362
SWIDTH 552 0
DWIDTH 18 0
BBX 14 26 2 0
BITMAP
00012222220000
000CFFFFFF7000
00034444441000
00000000000000
00000000000000
00000000000000
6F2000000007F1
7F2000000008F2
7F2000000008F2
7F2000000008F2
7F2000000008F2
7F2000000008F2
7F2000000008F2
7F2000000008F2
7F2000000008F2
7F2000000008F2
7F2000000008F2
7F2000000008F2
7F2000000008F2
7F2000000008F2
7F2000000008F2
6F3000000008F2
5F500000000AF0
2FB00000002FB0
08FD866679EE30
005CEFFFFEA300
ENDCHAR
STARTCHAR umacron
ENCODING 363
SWIDTH 507 0
DWIDTH 16 0
BBX 12 20 2 0
BITMAP
008FFFFFF900
003666666300
000000000000
000000000000
BC00000000BC
CD00000000CC
CD00000000CC
CD00000000CC
CD00000000CC
CD00000000CC
CD00000000CC
CD00000000CC
CD00000000CC
CD00000000CC
CD00000000CC
BD00000000CC
AF00000000EC
6F70000007FC
0CFB7668BEDC
018DFFFEB2BC
ENDCHAR
STARTCHAR Ubreve
ENCODING 364
SWIDTH 552 0
DWIDTH 18 0
BBX 14 27 2 0
BITMAP
00026000070000
0005D0002F0000
0003E0004D0000
0000D711B80000
00002BED910000
00000000000000
00000000000000
6F2000000007F1
7F2000000008F2
7F2000000008F2
7F2000000008F2
7F2000000008F2
7F2000000008F2
7F2000000008F2
7F2000000008F2
7F2000000008F2
7F2000000008F2
7F2000000008F2
7F2000000008F2
7F2000000008F2
7F2000000008F2
7F2000000008F2
6F3000000008F2
5F500000000AF0
2FB00000002FB0
08FD866679EE30
005CEFFFFEA300
ENDCHAR
STARTCHAR ubreve
ENCODING 365
SWIDTH 507 0
DWIDTH 16 0
BBX 12 22 2 0
BITMAP
002F1000D300
001F2000F200
000B9117C000
0002AEEB2000
000000000000
000000000000
BC00000000BC
CD00000000CC
CD00000000CC
CD00000000CC
CD00000000CC
CD00000000CC
CD00000000CC
CD00000000CC
CD00000000CC
CD00000000CC
CD00000000CC
BD00000000CC
AF00000000EC
6F70000007FC
0CFB7668BEDC
018DFFFEB2BC
ENDCHAR
STARTCHAR Uring
ENCODING 366
SWIDTH 552 0
DWIDTH 18 0
BBX 14 29 2 0
BITMAP
00000021000000
00003DFFA00000
0000AB56E40000
0000C300960000
0000C300870000
0000A923D50000
00004FFFC00000
00000243000000
00000000000000
6F2000000007F1
7F2000000008F2
7F2000000008F2
7F2000000008F2
7F2000000008F2
7F2000000008F2
7F2000000008F2
7F2000000008F2
7F2000000008F2
7F2000000008F2
7F2000000008F2
7F2000000008F2
7F2000000008F2
7F2000000008F2
7F2000000008F2
6F3000000008F2
5F500000000AF0
2FB00000002FB0
08FD866679EE30
005CEFFFFEA300
ENDCHAR
STARTCHAR uring
ENCODING 367
SWIDTH 507 0
DWIDTH 16 0
BBX 12 24 2 0
BITMAP
000012100000
0007FFF70000
000F757F0000
002D000D2000
002D000C2000
001E424E1000
0009FFF90000
000034300000
BC00000000BC
CD00000000CC
CD00000000CC
CD00000000CC
CD00000000CC
CD00000000CC
CD00000000CC
CD00000000CC
CD00000000CC
CD00000000CC
CD00000000CC
BD00000000CC
AF00000000EC
6F70000007FC
0CFB7668BEDC
018DFFFEB2BC
ENDCHAR
STARTCHAR Uhungarumlaut
ENCODING 368
SWIDTH 552 0
DWIDTH 18 0
BBX 14 26 2 0
BITMAP
000001DB01DA00
000008E109D100
00003F403F3000
0000B700B70000
00000000000000
00000000000000
6F2000000007F1
7F2000000008F2
7F2000000008F2
7F2000000008F2
7F2000000008F2
7F2000000008F2
7F2000000008F2
7F2000000008F2
7F2000000008F2
7F2000000008F2
7F2000000008F2
7F2000000008F2
7F2000000008F2
7F2000000008F2
7F2000000008F2
6F3000000008F2
5F500000000AF0
2FB00000002FB0
08FD866679EE30
005CEFFFFEA300
ENDCHAR
STARTCHAR uhungarumlaut
ENCODING 369
SWIDTH 507 0
DWIDTH 16 0
BBX 12 22 2 0
BITMAP
000008E209E2
00003F603F50
0000BA00C900
0005C106C000
000000000000
000000000000
BC00000000BC
CD00000000CC
CD00000000CC
CD00000000CC
CD00000000CC
CD00000000CC
CD00000000CC
CD00000000CC
CD00000000CC
CD00000000CC
CD00000000CC
BD00000000CC
AF00000000EC
6F70000007FC
0CFB7668BEDC
018DFFFEB2BC
ENDCHAR
STARTCHAR Uogonek
ENCODING 370
SWIDTH 552 0
DWIDTH 18 0
BBX 14 24 2 -4
BITMAP
6F2000000007F1
7F2000000008F2
7F2000000008F2
7F2000000008F2
7F2000000008F2
7F2000000008F2
7F2000000008F2
7F2000000008F2
7F2000000008F2
7F2000000008F2
7F2000000008F2
7F2000000008F2
7F2000000008F2
7F2000000008F2
7F2000000008F2
6F3000000008F2
5F500000000AF0
2FB00000002FB0
08FD866679EE30
005CEFFFFEA300
00000088000000
000004B2000000
00000DFF500000
00000241000000
ENDCHAR
STARTCHAR uogonek
ENCODING 371
SWIDTH 503 0
DWIDTH 16 0
BBX 12 20 2 -4
BITMAP
BC00000000BC
CD00000000CC
CD00000000CC
CD00000000CC
CD00000000CC
CD00000000CC
CD00000000CC
CD00000000CC
CD00000000CC
CD00000000CC
CD00000000CC
BD00000000CC
AF00000000EC
6F70000007FC
0CFB7668BEDC
018DFFFEB3DC
000000000970
000000006A20
00000000DFE3
000000002410
ENDCHAR
STARTCHAR Wcircumflex
ENCODING 372
SWIDTH 795 0
DWIDTH 25 0
BBX 24 27 1 0
BITMAP
000000000017400000000000
00000000009CE20000000000
0000000002F3B90000000000
000000000AA03F2000000000
000000003E300AA000000000
000000000000000000000000
000000000000000000000000
EC000000006FB000000006F5
BF10000000AFF10000000AF2
7F40000000EBF50000000DE0
4F70000003F4D90000001FA0
1FA0000007F19D0000005F70
0CE000000BB05F2000008F30
09F200001F701F600000BF00
05F500005F300CA00000EB00
02F800009E0008E00002F800
00DB0000DA0004F40006F500
00AE0002F60000E80009F100
007F3006F10000BC000CD000
003F600AC000007F100F9000
000F900E8000002F503F6000
000BC03F4000000D906F3000
0008F17F00000009D0AE0000
0005F4BB00000005F2DB0000
0001F8F700000001F7F70000
0000DEF300000000CEF40000
00009FD0000000008FE10000
ENDCHAR
STARTCHAR wcircumflex
ENCODING 373
SWIDTH 682 0
DWIDTH 22 0
BBX 22 22 0 0
BITMAP
0000000003ED1000000000
000000000C8B9000000000
000000006D12F300000000
00000001E5008C00000000
0000000000000000000000
0000000000000000000000
4F60000001ED00000008F1
1EA0000004FF2000000DC0
0BE0000008EF6000002F80
06F400000D8CA000006F40
02F800002F48E00000BE00
00CC00006F14F30000EA00
008F1000AB00E70004F500
004F5000E700AB0008F100
000E9003F3006F000CC000
000AD007E0002F401F7000
0005F20BA0000D806F3000
0001F71F600009C0AE0000
0000BB4F200005F1E90000
00007E9D000001F8F50000
00003FF9000000CFF10000
00000DF50000007FB00000
ENDCHAR
STARTCHAR Ycircumflex
ENCODING 374
SWIDTH 493 0
DWIDTH 16 0
BBX 15 27 0 0
BITMAP
0000001750000000
0000007DF3000000
000001E59B000000
000009C02F400000
00001E4009C00000
0000000000000000
0000000000000000
1FB0000000001EC0
08F4000000008F50
01EB00000001EC00
008F40000007F400
001EB000001EC000
0008F400007F4000
0001EB0001EB0000
00007F4007F40000
00001EB01EB00000
000007F47F300000
000001ECEA000000
0000006FF3000000
0000000EB0000000
0000000EA0000000
0000000EA0000000
0000000EA0000000
0000000EA0000000
0000000EA0000000
0000000EA0000000
0000000DA0000000
ENDCHAR
STARTCHAR ycircumflex
ENCODING 375
SWIDTH 459 0
DWIDTH 15 0
BBX 13 26 1 -4
BITMAP
000007FA000000
00002E4E500000
0000B907D00000
0004E200D70000
00000000000000
00000000000000
E9000000000DB0
AE100000004F60
4F60000000AE10
0EB0000001EA00
08F2000006F400
03F700000BE000
00CC00002F8000
007F30007F3000
002F8000DD0000
000BE003F70000
0005F408F20000
0001EA0EB00000
00009E5F600000
00004FEE100000
000008FA000000
000005F4000000
00000CD0000000
00007F60000000
267BFA00000000
5FFD7000000000
ENDCHAR
STARTCHAR Ydieresis
ENCODING 376
SWIDTH 493 0
DWIDTH 16 0
BBX 15 26 0 0
BITMAP
00007F0004F40000
00008F1004F40000
00008F1004F40000
00007F0004F40000
0000000000000000
0000000000000000
1FB0000000001EC0
08F4000000008F50
01EB00000001EC00
008F40000007F400
001EB000001EC000
0008F400007F4000
0001EB0001EB0000
00007F4007F40000
00001EB01EB00000
000007F47F300000
000001ECEA000000
0000006FF3000000
0000000EB0000000
0000000EA0000000
0000000EA0000000
0000000EA0000000
0000000EA0000000
0000000EA0000000
0000000EA0000000
0000000DA0000000
ENDCHAR
STARTCHAR Zacute
ENCODING 377
SWIDTH 482 0
DWIDTH 15 0
BBX 14 27 1 0
BITMAP
00000000276000
00000000BF5000
00000004F80000
0000000CC00000
0000005D200000
00000000000000
00000000000000
4FFFFFFFFFFFB0
16666666668FB0
0000000000BF40
0000000005F900
000000001EE100
000000009F5000
00000003FB0000
0000000CF20000
0000007F800000
000002ED000000
00000AF4000000
00005FA0000000
0001DE10000000
0008F600000000
003FB000000000
00CF3000000000
06F80000000000
1ED10000000000
8FA66666666660
9FFFFFFFFFFFF1
ENDCHAR
STARTCHAR zacute
ENCODING 378
SWIDTH 405 0
DWIDTH 13 0
BBX 11 22 1 0
BITMAP
00000008F800
0000003FB000
000000CC1000
000006D20000
000000000000
000000000000
AFFFFFFFFF90
46666666BF70
00000001ED10
0000000AF400
0000004F9000
000001DE1000
000009F50000
00003FB00000
0000CE200000
0007F7000000
002FC0000000
00BF30000000
06F800000000
1ED100000000
9FA666666650
DFFFFFFFFFD0
ENDCHAR
STARTCHAR Zdotaccent
ENCODING 379
SWIDTH 482 0
DWIDTH 15 0
BBX 14 26 1 0
BITMAP
0000006F200000
0000007F200000
0000007F200000
0000006F200000
00000000000000
00000000000000
4FFFFFFFFFFFB0
16666666668FB0
0000000000BF40
0000000005F900
000000001EE100
000000009F5000
00000003FB0000
0000000CF20000
0000007F800000
000002ED000000
00000AF4000000
00005FA0000000
0001DE10000000
0008F600000000
003FB000000000
00CF3000000000
06F80000000000
1ED10000000000
8FA66666666660
9FFFFFFFFFFFF1
ENDCHAR
STARTCHAR zdotaccent
ENCODING 380
SWIDTH 405 0
DWIDTH 13 0
BBX 11 22 1 0
BITMAP
00000BD00000
00000BE00000
00000BE00000
00000BD00000
000000000000
000000000000
AFFFFFFFFF90
46666666BF70
00000001ED10
0000000AF400
0000004F9000
000001DE1000
000009F50000
00003FB00000
0000CE200000
0007F7000000
002FC0000000
00BF30000000
06F800000000
1ED100000000
9FA666666650
DFFFFFFFFFD0
ENDCHAR
STARTCHAR Zcaron
ENCODING 381
SWIDTH 482 0
DWIDTH 15 0
BBX 14 27 1 0
BITMAP
00006400172000
00007D007D0000
00000D61E60000
000006D8D00000
000000CF400000
00000000000000
00000000000000
4FFFFFFFFFFFB0
16666666668FB0
0000000000BF40
0000000005F900
000000001EE100
000000009F5000
00000003FB0000
0000000CF20000
0000007F800000
000002ED000000
00000AF4000000
00005FA0000000
0001DE10000000
0008F600000000
003FB000000000
00CF3000000000
06F80000000000
1ED10000000000
8FA66666666660
9FFFFFFFFFFFF1
ENDCHAR
STARTCHAR zcaron
ENCODING 382
SWIDTH 405 0
DWIDTH 13 0
BBX 11 22 1 0
BITMAP
000B9005E100
0003F30D7000
00009B7D0000
00001DE40000
000000000000
000000000000
AFFFFFFFFF90
46666666BF70
00000001ED10
0000000AF400
0000004F9000
000001DE1000
000009F50000
00003FB00000
0000CE200000
0007F7000000
002FC0000000
00BF30000000
06F800000000
1ED100000000
9FA666666650
DFFFFFFFFFD0
ENDCHAR
STARTCHAR florin
ENCODING 402
SWIDTH 494 0
DWIDTH 16 0
BBX 16 26 0 -4
BITMAP
000000000007CFF3
0000000000BFB761
0000000006F70000
000000000DD00000
000000002F800000
000000005F400000
000000009F100000
00000000CC000000
00001223FA222000
00009FFFFFFFF400
0000244AF6444100
0000000AE0000000
0000000EB0000000
0000002F80000000
0000005F40000000
0000008F10000000
000000BD00000000
000000EA00000000
000002F700000000
000006F300000000
000009F000000000
00000CC000000000
00002F8000000000
0000BF2000000000
268CF70000000000
6FEC500000000000
ENDCHAR
STARTCHAR AEacute
ENCODING 508
SWIDTH 773 0
DWIDTH 25 0
BBX 23 27 0 0
BITMAP
000000000000000771000000
000000000000006FA0000000
00000000000001ED10000000
00000000000007E300000000
0000000000001E6000000000
000000000000000000000000
000000000000000000000000
00000000003EFFFFFFFFFF90
0000000000BEFD6666666640
0000000004F7EB0000000000
000000000DD0EB0000000000
000000006F50EB0000000000
00000001EB00EB0000000000
00000008F300EB0000000000
0000002F9000EB0000000000
000000AE1000EB2222222100
000004F60000EFFFFFFFFB00
00000CC00000EC4444444300
00005F400000EB0000000000
0001DB222222EB0000000000
0007FFFFFFFFFB0000000000
001EA4444444EB0000000000
009E10000000EB0000000000
03F800000000EB0000000000
0BE100000000EB0000000000
5F7000000000ED6666666640
CD0000000000EFFFFFFFFF90
ENDCHAR
STARTCHAR aeacute
ENCODING 509
SWIDTH 795 0
DWIDTH 25 0
BBX 22 22 2 0
BITMAP
0000000000009F70000000
000000000004FA00000000
00000000000DC000000000
00000000007D1000000000
0000000000000000000000
0000000000000000000000
05FFFFFEC5018DFFFEC500
02666668BF7CFA7668CF70
0000000009FF3000000AE1
0000000002FB00000003F5
0000000000F900000001F6
0000222223F900000001F6
02BFFFFFFFF900000001F6
2EE8544445FA22222223F6
9F30000000FFFFFFFFFFF6
DB00000000FB4444444441
E900000000F90000000000
EA00000001F90000000000
DC00000003FC0000000000
8F4000000BFF4000000000
1DF97668DF4EF976666662
019DFFFEA3029EFFFFFFF5
ENDCHAR
STARTCHAR Oslashacute
ENCODING 510
SWIDTH 558 0
DWIDTH 18 0
BBX 16 27 1 0
BITMAP
0000000005830000
000000003FD10000
00000000BF300000
00000004F6000000
0000000B90000000
0000000000000000
0000000000000000
0006CFFFFFEB5092
009FC866668CFBE1
03FA00000000CF50
07F300000001EF50
08F10000000BEF60
08F10000007E5F60
08F1000003F43F60
08F100001D803F60
08F10000AC003F60
08F10006E2003F60
08F1003F50003F60
08F101D900003F60
08F10AC000003F60
08F16E2000003F60
08F3E50000003F60
08FD900000003F60
07FC000000005F50
06FA00000000CF10
2ECFC766668DF700
4906CEFFFFEC5000
ENDCHAR
STARTCHAR oslashacute
ENCODING 511
SWIDTH 521 0
DWIDTH 17 0
BBX 16 22 0 0
BITMAP
0000000002EE1000
000000000BE30000
000000005F500000
00000000D7000000
0000000000000000
0000000000000000
00006CEFFFEA2001
0008FC86678EE3BA
002FA0000002EFD2
007F30000001CF20
008F1000001CFF30
008F100001CC7F30
008F10001CC16F30
008F1001DB106F30
008F102DB1006F30
008F12DB00006F30
008F3DA000006F30
008FEA0000007F30
007FA00000009F20
03EFA0000001ED00
1E98FC76678EF400
03006CEFFFEB3000
ENDCHAR
STARTCHAR uni0218
ENCODING 536
SWIDTH 562 0
DWIDTH 18 0
BBX 14 27 2 -7
BITMAP
005BEFFFFEB400
07FD866678DF50
1FC10000001DE0
5F6000000007F3
6F4000000005F5
6F3000000002A3
6F500000000000
2FC10000000000
08FD7200000000
004CFFDA730000
0000269CFFD400
0000000016EF70
00000000001CF2
000000000005F5
5D2000000004F6
6F4000000004F6
5F6000000006F4
1EC00000001CE1
07FD866668DF60
005BEFFFFEB500
00000000000000
0000007F200000
0000008F200000
0000008F100000
0000008C000000
00000086000000
00000071000000
ENDCHAR
STARTCHAR uni0219
ENCODING 537
SWIDTH 427 0
DWIDTH 14 0
BBX 12 24 1 -8
BITMAP
019DFFFFFF40
0CFB76666610
4F8000000000
6F4000000000
4F5000000000
1ED200000000
03DFA4000000
0016CFD82000
0000039EF900
000000008F80
000000000CD0
0000000009F0
0000000009F1
000000001DE0
16666678DF70
3FFFFFFEC600
000000000000
000009F10000
000009F10000
000009F00000
000009B00000
000009700000
000009200000
000004000000
ENDCHAR
STARTCHAR circumflex
ENCODING 710
SWIDTH 326 0
DWIDTH 10 0
BBX 7 4 2 18
BITMAP
01DE4000
08C6D100
2F40C800
A9004E20
ENDCHAR
STARTCHAR caron
ENCODING 711
SWIDTH 326 0
DWIDTH 10 0
BBX 7 4 2 18
BITMAP
BA004E20
2F40C800
08C6D100
01CE4000
ENDCHAR
STARTCHAR uni02C9
ENCODING 713
SWIDTH 358 0
DWIDTH 11 0
BBX 8 2 2 18
BITMAP
DFFFFFF5
56666662
ENDCHAR
STARTCHAR breve
ENCODING 728
SWIDTH 332 0
DWIDTH 11 0
BBX 7 4 2 18
BITMAP
D4000970
C6000B60
7C204E20
09DEC500
ENDCHAR
STARTCHAR dotaccent
ENCODING 729
SWIDTH 183 0
DWIDTH 6 0
BBX 2 4 2 18
BITMAP
DB
DB
DB
DB
ENDCHAR
STARTCHAR ring
ENCODING 730
SWIDTH 297 0
DWIDTH 10 0
BBX 6 7 1 16
BITMAP
001200
1CFFE5
4D558C
58001D
5C326C
1DFFF7
014420
ENDCHAR
STARTCHAR ogonek
ENCODING 731
SWIDTH 243 0
DWIDTH 8 0
BBX 4 5 2 -4
BITMAP
01C2
0A60
6B20
BFF4
1410
ENDCHAR
STARTCHAR tilde
ENCODING 732
SWIDTH 369 0
DWIDTH 12 0
BBX 7 5 2 17
BITMAP
D103DE50
D20CB9C0
C66E11E0
8FF800E0
03300040
ENDCHAR
STARTCHAR hungarumlaut
ENCODING 733
SWIDTH 377 0
DWIDTH 12 0
BBX 8 4 2 18
BITMAP
01DB01DB
08E209D1
2F403F40
A800B700
ENDCHAR
STARTCHAR Mu
ENCODING 924
SWIDTH 527 0
DWIDTH 17 0
BBX 13 22 2 -5
BITMAP
13000000001300
6F400000005F30
6F400000005F40
6F400000005F40
6F400000005F40
6F400000005F40
6F400000005F40
6F400000005F40
6F400000005F40
6F400000005F40
6F400000005F40
6F400000005F40
6F400000005F40
6F500000007F40
6FA0000000DF40
6FF931124CEF40
6F9EFFFFFA6F30
6F413444201410
6F400000000000
6F400000000000
6F400000000000
14100000000000
ENDCHAR
STARTCHAR Pi
ENCODING 928
SWIDTH 605 0
DWIDTH 19 0
BBX 18 22 1 -1
BITMAP
111111111111111110
CFFFFFFFFFFFFFFFF2
3448F8444444FC4440
0004F4000000EA0000
0004F4000000EA0000
0004F4000000EA0000
0004F4000000EA0000
0004F4000000EA0000
0004F4000000EA0000
0004F4000000EA0000
0004F4000000EA0000
0004F4000000EA0000
0004F4000000EA0000
0004F4000000EA0000
0004F4000000EA0000
0004F4000000EA0000
0004F4000000EA0000
0004F4000000EA0000
0004F4000000EA0000
0004F4000000EA0000
0004F4000000EA0000
000141000000320000
ENDCHAR
STARTCHAR Sigma
ENCODING 931
SWIDTH 481 0
DWIDTH 15 0
BBX 13 22 1 -1
BITMAP
01111111111100
1FFFFFFFFFFF80
0DF54444444420
05F80000000000
00AF3000000000
002EC000000000
0006F700000000
0000CE20000000
00003FB0000000
000008F5000000
000001DE100000
000000BF200000
000005F9000000
00001ED1000000
00009F40000000
0004FA00000000
000DE100000000
008F6000000000
03FB0000000000
0BF31111111100
1FFFFFFFFFFF80
04444444444420
ENDCHAR
STARTCHAR uni0901
ENCODING 2305
SWIDTH 0 0
DWIDTH 0 0
BBX 11 7 -9 21
BITMAP
00005F200000
560026100830
AC0000001F60
8E1000004F40
3FA31114CE00
06EFFFFFD300
001344430000
ENDCHAR
STARTCHAR uni0902
ENCODING 2306
SWIDTH 0 0
DWIDTH 0 0
BBX 3 3 -5 23
BITMAP
1100
AF10
2400
ENDCHAR
STARTCHAR uni0903
ENCODING 2307
SWIDTH 247 0
DWIDTH 8 0
BBX 2 12 3 2
BITMAP
DC
DC
00
00
00
00
00
00
00
00
DC
DC
ENDCHAR
STARTCHAR uni0905
ENCODING 2309
SWIDTH 598 0
DWIDTH 19 0
BBX 19 20 1 0
BITMAP
0BFFFEA2000003FFFF80
046668EE200005F86630
0000002EA00005F30000
00000009F00005F30000
00000007F10005F30000
00000007F20005F30000
00000008F00005F30000
0000000DC00005F30000
001124BF400005F30000
00DFFFF5000005F30000
003446CF511116F30000
0000000CFFFFFFF30000
00000008F54448F30000
00000006F20005F30000
00000007F10005F30000
0000000CE00005F30000
111123AF700005F30000
CFFFFFE7000005F30000
34444300000005F30000
00000000000004D20000
ENDCHAR
STARTCHAR uni0906
ENCODING 2310
SWIDTH 828 0
DWIDTH 27 0
BBX 26 20 1 0
BITMAP
0BFFFEA2000004FFFFFFFFFFFE
046669EE200006F766666FB665
0000003F900006F200000F8000
0000000AE00006F200000F8000
00000008F00006F200000F8000
00000007F10006F200000F8000
00000009E00006F200000F8000
0000001DB00006F200000F8000
001124BF300006F200000F8000
00EFFFF4000006F200000F8000
004456CE411117F200000F8000
0000001DFFFFFFF200000F8000
00000009F44449F200000F8000
00000007F10006F200000F8000
00000008F00006F200000F8000
0000000CD00006F200000F8000
111124BF600006F200000F8000
DFFFFFE6000006F200000F8000
34444300000006F200000F8000
00000000000005D100000C7000
ENDCHAR
STARTCHAR uni0907
ENCODING 2311
SWIDTH 478 0
DWIDTH 15 0
BBX 17 21 -1 -1
BITMAP
6FFFFFFFFFFFFFFFB0
266666666668F96640
000000000003F50000
000000000003F50000
000000011114F50000
00005CFFFFFFF50000
0003FB644444400000
0009F1000000000000
000AD0000000000000
0009E0000000000000
0005F9321110000000
00007EFFFFFEA20000
000001344457EC0000
0000000000006F2000
000BA00000004F4000
000CC00000004F4000
000CE10000006F2000
000CFB321124DD0000
000CCCFFFFFFC30000
000CB0344442000000
000BA0000000000000
ENDCHAR
STARTCHAR uni0908
ENCODING 2312
SWIDTH 478 0
DWIDTH 15 0
BBX 17 29 -1 -1
BITMAP
00000000002AEFF700
0000000002EE866200
000000000AE2000000
000000000EA0000000
000000000F90000000
000000000F80000000
000000000E90000000
0000000009C2000000
6FFFFFFFFFFFFFFFB0
266666666668F96640
000000000003F50000
000000000003F50000
000000011114F50000
00005CFFFFFFF50000
0003FB644444400000
0009F1000000000000
000AD0000000000000
0009E0000000000000
0005F9321110000000
00007EFFFFFEA20000
000001344457EC0000
0000000000006F2000
000BA00000004F4000
000CC00000004F4000
000CE10000006F2000
000CFB321124DD0000
000CCCFFFFFFC30000
000CB0344442000000
000BA0000000000000
ENDCHAR
STARTCHAR uni0909
ENCODING 2313
SWIDTH 471 0
DWIDTH 15 0
BBX 17 21 -1 -1
BITMAP
6FFFFFFFFFFFFFFF70
2666666666AFB66620
000000000006F40000
000000000000E90000
000000000000CB0000
000000000000CB0000
000000000000DA0000
000000000003F70000
00000001125DD10000
0000001FFFFE200000
00000004458ED10000
000000000003F80000
000000000000CC0000
006E10000000AD0000
007F10000000AD0000
007F10000000AD0000
006F30000000CC0000
002F90000002F80000
0009F931125DE20000
00009FFFFFFC300000
000001344420000000
ENDCHAR
STARTCHAR uni090A
ENCODING 2314
SWIDTH 661 0
DWIDTH 21 0
BBX 23 21 -1 -1
BITMAP
6FFFFFFFFFFFFFFFFFFFFF80
2666666666AFA66666666630
000000000006F30000000000
000000000000E90000000000
000000000000CB0000000000
000000000000CB0000000000
000000000000DB0000000000
000000000003F90000000000
00000001125DF30000000000
0000001FFFFF711111000000
00000004458EFFFFFFD50000
000000000003FA4446CF6000
000000000000CB00000CD000
006E10000000AD000007F100
007F10000000AD000006F100
007F10000000AD000007F100
006F30000000CC00000BE000
002F90000002F800139F8000
0009F931125DE203FFF80000
00008FFFFFFC300043100000
000001344420000000000000
ENDCHAR
STARTCHAR uni090B
ENCODING 2315
SWIDTH 753 0
DWIDTH 24 0
BBX 26 21 -1 -1
BITMAP
6FFFFFFFFFFFFFFFFFFFFFFFF8
266666666666DE666666666662
000000000000BC000000000000
000000000000BC000000000000
000000000000BC000000000000
000000011100BC000000111000
00003BFFFFD6BC000007FFA000
0003ED75458EEC0001AF8CA000
000AE2000003FC002DF50CA000
000DA0000000DC04ED300CA000
000E90000000BC7FC1000CA000
000E90000000BFF900000DA000
000850000001CF60007DFFA000
00000000002CFC0007F8431000
0000000004EDCC000DB0000000
000000007FB1BC000F80000000
0000001AF900BC000F80000000
000002CF6000BC000EA0000000
00004EE30000BC000AF7211000
0005FC200000BC0001BFFFF100
00024000000023000002444000
ENDCHAR
STARTCHAR uni090C
ENCODING 2316
SWIDTH 676 0
DWIDTH 22 0
BBX 24 27 -1 -7
BITMAP
6FFFFFFFFFFFFFFFFFFFFFF1
266666666666666666ED6650
000000000000000000DB0000
000000000000000000DB0000
000000000000000000DB0000
000000010000000100DB0000
00002AEFFC405DFFD6DB0000
0001DE856AF5FA658EFB0000
0007F40000AFA00004FB0000
000AE000005F500000EB0000
000BC000004F400000DB0000
000BC000004F400000DB0000
000BC000004F400000DB0000
000BC0000003000000DB0000
000BD0000000000000DB0000
0008F3000000000000DB0000
0002ED521100000000DB0000
00004DFFFD00000001DB0000
0000002443000007EFFB0000
000000000000007FA5420000
00000000000000CC00000000
00000000000000F800000000
00000000000000F800000000
00000000000000DC00000270
000000000000006F93238ED1
0000000000000007EFFFF910
000000000000000003431000
ENDCHAR
STARTCHAR uni090D
ENCODING 2317
SWIDTH 521 0
DWIDTH 17 0
BBX 19 28 -1 0
BITMAP
00002F4000000BA00000
00001F6000000D900000
00000BD421128F500000
000002CFFFFFE7000000
00000002444310000000
00000000000000000000
00000000000000000000
00000000000000000000
6FFFFFFFFFFFFFFFFF40
2667FA66666666FC6610
0001F700000000E90000
0001F700000000E90000
0001F700000000E90000
0001F700000000E90000
0001F700000000E90000
0001F700000001F80000
0001F700000005F50000
0001F70000126ED00000
0001F70007FFFC200000
0001F700014420000000
0001F700000000000000
0001F700000000000000
0001F700000000000000
0000E900000000000000
0000AE10000000000000
00003ED5211111100000
000003DFFFFFFFB00000
00000002444444300000
ENDCHAR
STARTCHAR uni090E
ENCODING 2318
SWIDTH 522 0
DWIDTH 17 0
BBX 19 28 -1 0
BITMAP
00000009D00000000000
00000008F00000000000
00000004F80000000000
000000009FB300000000
0000000005DFA2000000
000000000006EF700000
00000000000019F50000
00000000000000EA0000
6FFFFFFFFFFFFFFFFF40
2667FA66666666FC6610
0001F700000000E90000
0001F700000000E90000
0001F700000000E90000
0001F700000000E90000
0001F700000000E90000
0001F700000001F80000
0001F700000005F50000
0001F70000126ED00000
0001F70007FFFC200000
0001F700014420000000
0001F700000000000000
0001F700000000000000
0001F700000000000000
0000E900000000000000
0000AE10000000000000
00003ED5211111100000
000003DFFFFFFFB00000
00000002444444300000
ENDCHAR
STARTCHAR uni090F
ENCODING 2319
SWIDTH 526 0
DWIDTH 17 0
BBX 19 20 -1 0
BITMAP
6FFFFFFFFFFFFFFFFF40
2667FA66666666FC6610
0001F700000000E90000
0001F700000000E90000
0001F700000000E90000
0001F700000000E90000
0001F700000000E90000
0001F700000001F80000
0001F700000005F50000
0001F70000126ED00000
0001F70007FFFC200000
0001F700014420000000
0001F700000000000000
0001F700000000000000
0001F700000000000000
0000E900000000000000
0000AE10000000000000
00003ED5211111100000
000003DFFFFFFFB00000
00000002444444300000
ENDCHAR
STARTCHAR uni0910
ENCODING 2320
SWIDTH 526 0
DWIDTH 17 0
BBX 19 28 -1 0
BITMAP
000000002F8000000000
0000000009F400000000
0000000001DD10000000
00000000003F80000000
000000000007F3000000
000000000000BD000000
0000000000001E800000
00000000000003E40000
6FFFFFFFFFFFFFFFFF40
2667FA66666666FC6610
0001F700000000E90000
0001F700000000E90000
0001F700000000E90000
0001F700000000E90000
0001F700000000E90000
0001F700000001F80000
0001F700000005F50000
0001F70000126ED00000
0001F70007FFFC200000
0001F700014420000000
0001F700000000000000
0001F700000000000000
0001F700000000000000
0000E900000000000000
0000AE10000000000000
00003ED5211111100000
000003DFFFFFFFB00000
00000002444444300000
ENDCHAR
STARTCHAR uni0911
ENCODING 2321
SWIDTH 829 0
DWIDTH 27 0
BBX 26 27 1 0
BITMAP
00000000000005700000019200
0000000000000AD0000004F300
00000000000008F1000007F100
00000000000003FA31125EB000
000000000000006EFFFFFC2000
00000000000000013444200000
00000000000000000000000000
0BFFFEA2000003FFFFFFFFFFFF
046668EE200005F866666FC665
0000002EA00005F300000E9000
00000009F00005F300000E9000
00000007F10005F300000E9000
00000007F20005F300000E9000
00000008F00005F300000E9000
0000000DC00005F300000E9000
001124BF400005F300000E9000
00DFFFF5000005F300000E9000
003446CF511116F300000E9000
0000000CFFFFFFF300000E9000
00000008F54448F300000E9000
00000006F20005F300000E9000
00000007F10005F300000E9000
0000000CE00005F300000E9000
111123AF700005F300000E9000
CFFFFFE7000005F300000E9000
34444300000005F300000E9000
00000000000004D200000B7000
ENDCHAR
STARTCHAR uni0912
ENCODING 2322
SWIDTH 828 0
DWIDTH 27 0
BBX 26 28 1 0
BITMAP
00000000000000AC0000000000
000000000000009E0000000000
000000000000005F7000000000
000000000000000AFB30000000
00000000000000005DFA200000
0000000000000000006EF70000
00000000000000000001AF4000
000000000000000000000F9000
0BFFFEA2000003FFFFFFFFFFFE
046668EE200005F866666FB665
0000002EA00005F300000F8000
00000009F00005F300000F8000
00000007F10005F300000F8000
00000007F20005F300000F8000
00000008F00005F300000F8000
0000000DC00005F300000F8000
001124BF400005F300000F8000
00DFFFF5000005F300000F8000
003446CF511116F300000F8000
0000000CFFFFFFF300000F8000
00000008F54448F300000F8000
00000006F20005F300000F8000
00000007F10005F300000F8000
0000000CE00005F300000F8000
111123AF700005F300000F8000
CFFFFFE7000005F300000F8000
34444300000005F300000F8000
00000000000004D200000C7000
ENDCHAR
STARTCHAR uni0913
ENCODING 2323
SWIDTH 829 0
DWIDTH 27 0
BBX 26 28 1 0
BITMAP
0000000000000003F900000000
00000000000000009F40000000
00000000000000001DD1000000
000000000000000004F9000000
0000000000000000008F400000
0000000000000000000CD10000
00000000000000000002E90000
000000000000000000004F4000
0BFFFEA2000003FFFFFFFFFFFF
046668EE200005F866666FC665
0000002EA00005F300000E9000
00000009F00005F300000E9000
00000007F10005F300000E9000
00000007F20005F300000E9000
00000008F00005F300000E9000
0000000DC00005F300000E9000
001124BF400005F300000E9000
00DFFFF5000005F300000E9000
003446CF511116F300000E9000
0000000CFFFFFFF300000E9000
00000008F54448F300000E9000
00000006F20005F300000E9000
00000007F10005F300000E9000
0000000CE00005F300000E9000
111123AF700005F300000E9000
CFFFFFE7000005F300000E9000
34444300000005F300000E9000
00000000000004D200000B7000
ENDCHAR
STARTCHAR uni0914
ENCODING 2324
SWIDTH 829 0
DWIDTH 27 0
BBX 26 28 1 0
BITMAP
0000000000000007F4000D9000
0000000000000000DD100D9000
00000000000000003F800D9000
000000000000000008F30D9000
000000000000000000CC0C9000
0000000000000000002E7B9000
00000000000000000004EA9000
000000000000000000006F9000
0BFFFEA2000003FFFFFFFFFFFF
046668EE200005F866666FC665
0000002EA00005F300000E9000
00000009F00005F300000E9000
00000007F10005F300000E9000
00000007F20005F300000E9000
00000008F00005F300000E9000
0000000DC00005F300000E9000
001124BF400005F300000E9000
00DFFFF5000005F300000E9000
003446CF511116F300000E9000
0000000CFFFFFFF300000E9000
00000008F54448F300000E9000
00000006F20005F300000E9000
00000007F10005F300000E9000
0000000CE00005F300000E9000
111123AF700005F300000E9000
CFFFFFE7000005F300000E9000
34444300000005F300000E9000
00000000000004D200000B7000
ENDCHAR
STARTCHAR uni0915
ENCODING 2325
SWIDTH 725 0
DWIDTH 23 0
BBX 25 20 -1 0
BITMAP
6FFFFFFFFFFFFFFFFFFFFFFFA0
266666666667F9666666666630
000000000002F5000000000000
000000000002F5000000000000
000000011002F5001100000000
00003BFFF702F69EFFFC400000
0002EE754202FEC6446DF50000
000AE2000002FC000000DD0000
000E90000002F70000006F2000
001F70000002F50000004F4000
001F70000002F50000004F4000
001F70000002F50000004F4000
001F70000002F50000004F4000
000F90000004F50000006F3000
000CD1000009F5000000BE0000
0004FC42138EF500123AF70000
00005EFFFFD5F504FFFE700000
000000344302F5014430000000
000000000002F5000000000000
000000000002D4000000000000
ENDCHAR
STARTCHAR uni0916
ENCODING 2326
SWIDTH 696 0
DWIDTH 22 0
BBX 24 20 -1 0
BITMAP
6FFFFFFFFFFFFFFFFFFFFFFA
26666669F8666666668F9663
00000005F3000000003F5000
00000005F3000000003F5000
00000005F3000001003F5000
00000005F3002AFF703F5000
00000005F301DE75203F5000
00000006F207F400003F5000
0000000AF00BD000003F5000
0011127F900CB000003F5000
00DFFFFA100CB000003F5000
00BF6420000BD000004F5000
001DC0000008F200009F5000
0004F8000002ED5238EF5000
00008F4000004DFFFD5F5000
00000CD100000034303F5000
000002EA00000000003F5000
0000006F60000000003F5000
0000000AE2000000003F5000
00000001C9000000002D4000
ENDCHAR
STARTCHAR uni0917
ENCODING 2327
SWIDTH 494 0
DWIDTH 16 0
BBX 18 20 -1 0
BITMAP
6FFFFFFFFFFFFFFFF3
26666DE66666CE6661
00000BC00000AD0000
00000BC00000AD0000
00000BC00000AD0000
00000BC00000AD0000
00000BC00000AD0000
00000BC00000AD0000
00000BC00000AD0000
00000DC00000AD0000
00002F900000AD0000
0024CF300000AD0000
06FFD5000000AD0000
014300000000AD0000
000000000000AD0000
000000000000AD0000
000000000000AD0000
000000000000AD0000
000000000000AD0000
0000000000008B0000
ENDCHAR
STARTCHAR uni0918
ENCODING 2328
SWIDTH 559 0
DWIDTH 18 0
BBX 20 20 -1 0
BITMAP
6FFFFFFFFFFFFFFFFFF5
2666EE86666666CF6661
0006F3000000009F0000
000AE0000000009F0000
000BD0000000009F0000
000AD0000000009F0000
0008F2000000009F0000
0002EC421100009F0000
00002EFFFC00009F0000
0001DD744300009F0000
0007F3000000009F0000
000AE0000000009F0000
000BD0000000009F0000
000AE000000000BF0000
0008F200000002FF0000
0002FD5211125DEF0000
00004DFFFFFFF99F0000
000000344444209F0000
000000000000009F0000
000000000000007C0000
ENDCHAR
STARTCHAR uni0919
ENCODING 2329
SWIDTH 505 0
DWIDTH 16 0
BBX 18 21 -1 -1
BITMAP
6FFFFFFFFFFFFFFFF9
266666666668F86663
000000000004F40000
000000000004F40000
000000011115F40000
00004CFFFFFFF30000
0002EC644444300000
0007F2000000000000
0009E0000000000100
0007F1000000008F10
0003FA321110002400
00006EFFFFFE810000
000000344458FA0000
0000000000009F1000
0000000000006F3000
0007700000005F3000
000BC00000006F3000
0009E00000008F1000
0004F9311126EB0000
00007EFFFFFFB20000
000001344442000000
ENDCHAR
STARTCHAR uni091A
ENCODING 2330
SWIDTH 563 0
DWIDTH 18 0
BBX 20 20 -1 0
BITMAP
6FFFFFFFFFFFFFFFFFF7
26666666666666AF7662
000000000000007F2000
000000000000007F2000
000000000000007F2000
001111111110007F2000
04FFFFFFFFF5007F2000
01444BF95441007F2000
00003F700000007F2000
00008F100000007F2000
00009E000000007F2000
00009E000000007F2000
00008F000000009F2000
00005F50000001DF2000
00000CE731124CEF2000
000001BFFFFFFB8F2000
000000024444207F2000
000000000000007F2000
000000000000007F2000
000000000000006D1000
ENDCHAR
STARTCHAR uni091B
ENCODING 2331
SWIDTH 581 0
DWIDTH 19 0
BBX 20 19 -1 1
BITMAP
6FFFFFFFFFFFFFFFFFFF
2666DF966666667FA665
0004F6000000002F6000
0008F1000000002F6000
0008F0000000002F6000
0008F0000000113F5000
0008F1000006FFFF2000
0006F4000001459FA000
0001DD5210000008F100
00001DFFF4000005F300
0000CE8541000004F400
0005F50000000004F400
0008F10000000004F400
0008F00000000004F400
0008F10000000005F300
0006F4000000000AE000
0001ED521111239F7000
00003DFFFFFFFFE80000
00000024444443100000
ENDCHAR
STARTCHAR uni091C
ENCODING 2332
SWIDTH 547 0
DWIDTH 18 0
BBX 19 20 -1 0
BITMAP
6FFFFFFFFFFFFFFFFFE0
26666666666666FB6650
00000000000000F80000
00000000000000F80000
00000000000000F80000
00000000000000F80000
00011111111112F80000
000BFFFFFFFFFFF80000
0003446DD54444F80000
00000001E90000F80000
00000000BD0000F80000
00000000AD0000F80000
00000000AD0000F80000
00000000AD0000F80000
00000001EB0000F80000
0011124BF50000F80000
01FFFFFE600000F80000
00444430000000F80000
00000000000000F80000
00000000000000C70000
ENDCHAR
STARTCHAR uni091D
ENCODING 2333
SWIDTH 664 0
DWIDTH 21 0
BBX 23 21 -1 -1
BITMAP
6FFFFFFFFFFFFFFFFFFFFFA0
26666666669F866668F96630
00000000004F400004F40000
00000000004F400004F40000
00000001116F400004F40000
00005CFFFFFF300004F40000
0003FC644443000004F40000
0008F1000000000004F40000
000AD0000000000004F40000
0009F0000000000004F40000
0005FA321111111115F40000
00007EFFFFFFFFFFFFF40000
00000134457EC44447F40000
000000000007F10004F40000
000CA0000005F30004F40000
000CC0000006F20004F40000
000CF931125DD00004F40000
000CCCFFFFFC300004F40000
000CA0344420000004F40000
000CA0000000000003F40000
000CA0000000000000000000
ENDCHAR
STARTCHAR uni091E
ENCODING 2334
SWIDTH 592 0
DWIDTH 19 0
BBX 21 20 -1 0
BITMAP
6FFFFFFFFFFFFFFFFFFF50
266666666666666BF66620
0000000000000008F00000
0000000000000008F00000
0001110000000008F00000
001FFFFD70000008F00000
0004445AF9000008F00000
000000009F100008F00000
000000004F400008F00000
000000002F611119F00000
000000002FFFFFFFF00000
000000002F84444AF00000
000000002F400008F00000
000000003F300008F00000
000000008F100008F00000
00011137F9000008F00000
009FFFFF90000008F00000
0024444100000008F00000
0000000000000008F00000
0000000000000006D00000
ENDCHAR
STARTCHAR uni091F
ENCODING 2335
SWIDTH 485 0
DWIDTH 16 0
BBX 17 19 -1 1
BITMAP
6FFFFFFFFFFFFFFFE0
26666666666AF76650
000000000006F20000
000000000006F20000
000000000006F20000
000000011117F20000
00002AEFFFFFF10000
0001DE854444300000
0008F3000000000000
000CC0000000000000
000DA0000000000000
000DA0000000000000
000DA000000006A000
000DA000000009E000
000CC00000000AD000
0009F20000001EA000
0002ED521124CF3000
00003DFFFFFFD40000
000000244442000000
ENDCHAR
STARTCHAR uni0920
ENCODING 2336
SWIDTH 512 0
DWIDTH 16 0
BBX 18 19 -1 1
BITMAP
6FFFFFFFFFFFFFFFFC
266666666666FB6664
000000000000F80000
000000000000F80000
000000000002F70000
00000001113BF20000
00002AEFFFFF910000
0001DE854457ED2000
0008F30000002F9000
000CC00000000AD000
000DA000000008F000
000DA000000008F000
000DA000000008F000
000DA000000008F000
000DB00000000AE000
0009E20000001EB000
0003ED521124CF4000
00004DFFFFFFD50000
000000244443000000
ENDCHAR
STARTCHAR uni0921
ENCODING 2337
SWIDTH 475 0
DWIDTH 15 0
BBX 17 21 -1 -1
BITMAP
6FFFFFFFFFFFFFFFA0
266666666668F86630
000000000004F40000
000000000004F40000
000000011115F40000
00003BEFFFFFF30000
0001ED644444300000
0006F3000000000000
0008F0000000000000
0009E0000000000000
0007F2000000000000
0002FB321110000000
00005EFFFFFEA10000
000000244458FC0000
0000000000008F2000
0002200000006F3000
000BB00000005F3000
0009E00000008F2000
0004F9311126EC0000
00007EFFFFFFB20000
000001344442000000
ENDCHAR
STARTCHAR uni0922
ENCODING 2338
SWIDTH 485 0
DWIDTH 16 0
BBX 17 19 -1 1
BITMAP
6FFFFFFFFFFFFFFFE0
266666666668F96650
000000000003F50000
000000000003F50000
000000000003F50000
000000011115F50000
00001AEFFFFFF40000
0001DE854444400000
0007F4000000000000
000BD0000000000000
000CB0000001000000
000CB00006EFFB2000
000CB0002FA56EA000
000CB0005F2008E000
000BC0004C0007F000
0008F20000000AD000
0002ED5211137F8000
00003CFFFFFFFA1000
000000244444100000
ENDCHAR
STARTCHAR uni0923
ENCODING 2339
SWIDTH 681 0
DWIDTH 22 0
BBX 24 20 -1 0
BITMAP
6FFFFFFFFFFFFFFFFFFFFFF3
2669F766666CE66666CE6661
0006F200000AD00000AD0000
0006F200000AD00000AD0000
0006F200000AD00000AD0000
0006F200000AD00000AD0000
0006F200000AD00000AD0000
0006F200000AD00000AD0000
0006F200000AD00000AD0000
0006F200000AD00000AD0000
0005F300000BC00000AD0000
0003F700001EA00000AD0000
0000BE6224BF300000AD0000
00001BFFFFE5000000AD0000
000000244300000000AD0000
000000000000000000AD0000
000000000000000000AD0000
000000000000000000AD0000
000000000000000000AD0000
0000000000000000008B0000
ENDCHAR
STARTCHAR uni0924
ENCODING 2340
SWIDTH 496 0
DWIDTH 16 0
BBX 18 21 -1 -1
BITMAP
6FFFFFFFFFFFFFFFF4
266666666666CF6661
0000000000009E0000
0000000000009E0000
0000000000009E0000
0000000000009E0000
000000011111AE0000
00003BFFFFFFFE0000
0002EE754444BE0000
0009F20000009E0000
000CB00000009E0000
000DA00000009E0000
000DA00000009E0000
000DA00000009E0000
000DA00000009E0000
000DA00000009E0000
000DB00000009E0000
000AE10000009E0000
0003FC5200009E0000
00004DFF80009E0000
000000342000230000
ENDCHAR
STARTCHAR uni0925
ENCODING 2341
SWIDTH 593 0
DWIDTH 19 0
BBX 19 20 1 0
BITMAP
0007DED9200005FFFF60
00AF968EE10008F76620
01F80003F60008F10000
03F50000F80008F10000
03F40000F80008F10000
00410000F80008F10000
00000004F60008F10000
0111125DE10008F10000
1FFFFFFD300008F10000
1F944420000008F10000
1F700000000008F10000
0F800000000008F10000
0EA0000000000AF10000
09F2000000003FF10000
02EE63111137EDF10000
002BFFFFFFFF88F10000
00002444443108F10000
00000000000008F10000
00000000000008F10000
00000000000006D10000
ENDCHAR
STARTCHAR uni0926
ENCODING 2342
SWIDTH 489 0
DWIDTH 16 0
BBX 18 20 -1 0
BITMAP
6FFFFFFFFFFFFFFFF1
266666666666DD6650
000000000000CC0000
000000000000CC0000
000000011111CC0000
000019EFFFFFFB0000
0001DF854444420000
0007F5000000000000
000BD0000000000000
000CB0000000000000
000CB0000000000000
000CB0000000000000
000CB00000003F3000
000BD00000004F4000
0008F30000007F4000
0001ED521126EF4000
00003CFFFFFE9F4000
0000002444413F4000
0000000000003F4000
0000000000003F3000
ENDCHAR
STARTCHAR uni0927
ENCODING 2343
SWIDTH 560 0
DWIDTH 18 0
BBX 20 20 -1 0
BITMAP
6FFFFFFF600BFFFFFFF5
2666EE86200466BF6662
0006F3000000008F0000
0009E0000000008F0000
000AD0000000008F0000
0009E0000000008F0000
0007F2000000008F0000
0001EC421100008F0000
00002DFFFD00008F0000
0001DD744300008F0000
0007F3000000008F0000
0009E0000000008F0000
000AD0000000009F0000
000AE000000000AF0000
0007F200000002EF0000
0002ED5211125DEF0000
00004DFFFFFFFA9F0000
000000244444208F0000
000000000000008F0000
000000000000007C0000
ENDCHAR
STARTCHAR uni0928
ENCODING 2344
SWIDTH 473 0
DWIDTH 15 0
BBX 17 20 -1 0
BITMAP
6FFFFFFFFFFFFFFF80
266666666669F86630
000000000005F30000
000000000005F30000
000000000005F30000
000000000005F30000
000000000005F30000
000001111116F30000
0006EFFFFFFFF30000
003FB5444448F30000
007F10000005F30000
008F00000005F30000
005F30000005F30000
001930000005F30000
000000000005F30000
000000000005F30000
000000000005F30000
000000000005F30000
000000000005F30000
000000000004D20000
ENDCHAR
STARTCHAR uni0928093C
ENCODING 2345
SWIDTH 473 0
DWIDTH 15 0
BBX 17 21 -1 -1
BITMAP
6FFFFFFFFFFFFFFF80
266666666669F86630
000000000005F30000
000000000005F30000
000000000005F30000
000000000005F30000
000000000005F30000
000001111116F30000
0006EFFFFFFFF30000
003FB5444448F30000
007F10000005F30000
008F00000005F30000
005F30000005F30000
001930000005F30000
000000000005F30000
000000000005F30000
000000000005F30000
000000000005F30000
000000100005F30000
000004F60003A10000
000001410000000000
ENDCHAR
STARTCHAR uni092A
ENCODING 2346
SWIDTH 503 0
DWIDTH 16 0
BBX 18 20 -1 0
BITMAP
6FFFFFFFFFFFFFFFF8
266AF76666669F8663
0006F20000005F3000
0006F20000005F3000
0006F20000005F3000
0006F20000005F3000
0006F20000005F3000
0006F20000005F3000
0006F20000005F3000
0006F20000005F3000
0005F40000007F3000
0002F8000000CF3000
00009F83124AFF3000
000009FFFFFC7F3000
0000001444205F3000
0000000000005F3000
0000000000005F3000
0000000000005F3000
0000000000005F3000
0000000000004D2000
ENDCHAR
STARTCHAR uni092B
ENCODING 2347
SWIDTH 739 0
DWIDTH 24 0
BBX 26 20 -1 0
BITMAP
6FFFFFFFFFFFFFFFFFFFFFFFF1
266AF7666666DD666666666650
0006F2000000BC000000000000
0006F2000000BC000000000000
0006F2000000BC001110000000
0006F2000000BC5DFFFE810000
0006F2000000BEE85459FB0000
0006F2000000BF4000007F5000
0006F2000000BE0000000F9000
0006F2000000BC0000000DA000
0005F4000000DC0000000DA000
0002F9000003FC0000000DA000
00009F83126DFC0000000DA000
000009FFFFF8BC0000000F9000
000000144410BC0000005F6000
000000000000BC001126ED0000
000000000000BC00CFFFB20000
000000000000BC003442000000
000000000000BC000000000000
0000000000009A000000000000
ENDCHAR
STARTCHAR uni092C
ENCODING 2348
SWIDTH 491 0
DWIDTH 16 0
BBX 18 20 -1 0
BITMAP
6FFFFFFFFFFFFFFFF2
266666666666DD6650
000000000000CC0000
000000000000CC0000
000000011100CC0000
00002AFFFC00CC0000
0002EE754300CC0000
000AFD200000CC0000
000EA9D20000CC0000
000F808D2000CC0000
000F8008E300CC0000
000F80008E30CC0000
000F800007E3CC0000
000EA000007EEC0000
000BE1000008FC0000
0004FC42125DEC0000
00005DFFFFF7CC0000
000000344410CC0000
000000000000CC0000
000000000000990000
ENDCHAR
STARTCHAR uni092D
ENCODING 2349
SWIDTH 491 0
DWIDTH 16 0
BBX 18 20 -1 0
BITMAP
6EC600000FFFFFFFF2
26BF70000566DD6650
000BE0000000CC0000
0007F1000000CC0000
0007F1000000CC0000
0007F1000000CC0000
0007F1000000CC0000
0007F1000000CC0000
0007F3111111CC0000
0007FFFFFFFFFC0000
0007F6444444DC0000
0007F1000000CC0000
0007F1000000CC0000
0006F1000000CC0000
000130000000CC0000
000000000000CC0000
000000000000CC0000
000000000000CC0000
000000000000CC0000
000000000000990000
ENDCHAR
STARTCHAR uni092E
ENCODING 2350
SWIDTH 490 0
DWIDTH 16 0
BBX 18 20 -1 0
BITMAP
6FFFFFFFFFFFFFFFF1
266AF7666666DD6650
0007F1000000CB0000
0007F1000000CB0000
0007F1000000CB0000
0007F1000000CB0000
0007F1000000CB0000
0007F1000000CB0000
0007F3111111DB0000
0007FFFFFFFFFB0000
0007F5444444DB0000
0007F1000000CB0000
0007F1000000CB0000
0007F1000000CB0000
000130000000CB0000
000000000000CB0000
000000000000CB0000
000000000000CB0000
000000000000CB0000
000000000000A90000
ENDCHAR
STARTCHAR uni092F
ENCODING 2351
SWIDTH 564 0
DWIDTH 18 0
BBX 20 20 -1 0
BITMAP
6FFFFFFFFFFFFFFFFFF7
2666669EB66666AF7662
00000006F300007F2000
00000002F600007F2000
00000001F700007F2000
00000004F600007F2000
0001125DE100007F2000
000CFFFD4000007F2000
000CC4300000007F2000
000CB0000000007F2000
000CB0000000007F2000
000CB0000000007F2000
000AE0000000009F2000
0005F600000002EF2000
0000BF8311136EDF2000
000019FFFFFFF97F2000
000000134443107F2000
000000000000007F2000
000000000000007F2000
000000000000005D1000
ENDCHAR
STARTCHAR uni0930
ENCODING 2352
SWIDTH 337 0
DWIDTH 11 0
BBX 13 20 -1 0
BITMAP
6FFFFFFFFFFF30
26666669F86610
00000005F30000
00000005F30000
00000005F30000
00000005F30000
00000005F30000
00000006F20000
0000000AE00000
0011127F900000
00DFFFFA100000
00BF6420000000
001EC000000000
0004F800000000
00008F30000000
00000CD1000000
000003F9000000
0000006F500000
0000000BE10000
00000001C70000
ENDCHAR
STARTCHAR uni0930093C
ENCODING 2353
SWIDTH 347 0
DWIDTH 11 0
BBX 13 22 -1 -2
BITMAP
6FFFFFFFFFFF80
26666667FB6630
00000001F70000
00000001F70000
00000001F70000
00000001F70000
00000001F70000
00000002F70000
00000006F40000
0001125ED00000
009FFFFD200000
007FA430000000
000BE200000000
0002EA00000000
00006F50000000
00000BE1000000
000002EA000000
0000006F400000
0000000BD10000
00100002E90000
07F30000470000
02410000000000
ENDCHAR
STARTCHAR uni0932
ENCODING 2354
SWIDTH 676 0
DWIDTH 22 0
BBX 24 20 -1 0
BITMAP
6FFFFFFFFFFFFFFFFFFFFFF1
266666666666666666ED6650
000000000000000000DB0000
000000000000000000DB0000
000000000000000000DB0000
000000010000000100DB0000
00002AEFFC405DFFD6DB0000
0001DE856AF5FA658EFB0000
0007F40000AFA00004FB0000
000AE000005F500000EB0000
000BC000004F400000DB0000
000BC000004F400000DB0000
000BC000004F300000DB0000
000BC0000003000000DB0000
000BD0000000000000DB0000
0008F3000000000000DB0000
0002ED521100000000DB0000
00004DFFFD00000000DB0000
000000244300000000DB0000
000000000000000000A90000
ENDCHAR
STARTCHAR uni0933
ENCODING 2355
SWIDTH 672 0
DWIDTH 22 0
BBX 23 19 -1 1
BITMAP
6FFFFFFFFFFFFFFFFFFFFFE0
266666666666667FA6666650
000000000000001F60000000
000000000000001F60000000
000000000000001F60000000
000000010000002F70000000
00002AEFFD502AEFFB500000
0002EE756AF7EC656BF60000
0009E200008FD10000BE0000
000CB000003F8000006F2000
000DA000001F7000004F3000
000DA000001F7000004F4000
000DA000001F7000004F4000
000DA000001F7000004F4000
000CB000002F8000005F3000
000AE100006FC000009F1000
0003FC4237EBFA3238F80000
00004DFFFF915EFFFF800000
000000343100003431000000
ENDCHAR
STARTCHAR uni0933093C
ENCODING 2356
SWIDTH 672 0
DWIDTH 22 0
BBX 23 22 -1 -2
BITMAP
6FFFFFFFFFFFFFFFFFFFFFE0
266666666666667FA6666650
000000000000001F60000000
000000000000001F60000000
000000000000001F60000000
000000010000002F70000000
00002AEFFD502AEFFB500000
0002EE756AF7EC656BF60000
0009E200008FD10000BE0000
000CB000003F8000006F2000
000DA000001F7000004F3000
000DA000001F7000004F4000
000DA000001F7000004F4000
000DA000001F7000004F4000
000CB000002F8000005F3000
000AE100006FC000009F1000
0003FC4237EBFA3238F80000
00004DFFFF915EFFFF800000
000000343100003431000000
000000010000000000000000
0000003F7000000000000000
000000142000000000000000
ENDCHAR
STARTCHAR uni0935
ENCODING 2357
SWIDTH 484 0
DWIDTH 15 0
BBX 17 20 -1 0
BITMAP
6FFFFFFFFFFFFFFFE0
266666666666FB6650
000000000000E80000
000000000000E80000
000000011100E80000
00002AFFFA00E80000
0002EE754200E80000
0009F2000000E80000
000DB0000000E80000
000F90000000E80000
000F90000000E80000
000F90000000E80000
000F90000000E80000
000EA0000001F80000
000BE1000006F80000
0003FC42137EF80000
00004DFFFFE5E80000
000000344300E80000
000000000000E80000
000000000000C70000
ENDCHAR
STARTCHAR uni0936
ENCODING 2358
SWIDTH 614 0
DWIDTH 20 0
BBX 20 20 1 0
BITMAP
002AEFEA300000AFFFF1
01DE868EE20000CD6650
06F30002F80000CB0000
09F00000DA0000CB0000
09E00000CB0000CB0000
09D00000CB0000CB0000
00000000CB0000CB0000
00000000EA0000CB0000
00000003F70000CB0000
0111125DE20000CB0000
9FFFFFFD300000CB0000
6FA44420000000CB0000
0AE20000000000CB0000
01EC0000000000CB0000
004F7000000000CB0000
0009F300000000CB0000
0001DD10000000CB0000
00003F90000000CB0000
000007F4000000CB0000
000000AB000000A90000
ENDCHAR
STARTCHAR uni0937
ENCODING 2359
SWIDTH 505 0
DWIDTH 16 0
BBX 18 20 -1 0
BITMAP
6FFFFFFFFFFFFFFFF9
266AF96666669F8663
0006FE2000004F4000
0006FAD100004F4000
0006F2AC10004F4000
0006F20BB0004F4000
0006F201D9004F4000
0006F2002E804F4000
0006F20003E64F4000
0006F200004E9F4000
0005F4000006FF4000
0002F8000000CF4000
0000AF83123AFF4000
000019FFFFFC6F4000
0000001444304F4000
0000000000004F4000
0000000000004F4000
0000000000004F4000
0000000000004F4000
0000000000003D3000
ENDCHAR
STARTCHAR uni0938
ENCODING 2360
SWIDTH 575 0
DWIDTH 18 0
BBX 20 20 -1 0
BITMAP
6FFFFFFFFFFFFFFFFFFD
2666666FB666667FA664
0000001F8000001F7000
0000001F8000001F7000
0000001F8000001F7000
0000001F8000001F7000
0000001F8000001F7000
0000002F7000001F7000
0000005F4000001F7000
001125EC1111113F7000
00DFFFFFFFFFFFFF7000
00BF64444444445F7000
002EA0000000001F7000
0006F5000000001F7000
0000CD100000001F7000
00003F800000001F7000
000009F30000001F7000
000001EC0000001F7000
0000005F6000001F7000
0000000AC000001D6000
ENDCHAR
STARTCHAR uni0939
ENCODING 2361
SWIDTH 481 0
DWIDTH 15 0
BBX 17 22 -1 -2
BITMAP
6FFFFFFFFFFFFFFFC0
266666666666FB6640
000000000000F80000
000000000000F80000
000000011112F80000
00003BFFFFFFF70000
0001EE754444410000
0005F4000000000000
0007F1000000000000
0005F3000000000000
0001DC421110000000
00002CFFFFFE800000
00009F95445AF80000
0003F7000000BE0000
0008F10000007F1000
0009E00000006F1000
0009E0000000140000
0008F1000000000000
0005F6000000000000
0000CE731111110000
00001AFFFFFFFA0000
000000144444420000
ENDCHAR
STARTCHAR uni093C
ENCODING 2364
SWIDTH 0 0
DWIDTH 0 0
BBX 3 3 -6 -3
BITMAP
0110
2F90
0420
ENDCHAR
STARTCHAR uni093D
ENCODING 2365
SWIDTH 529 0
DWIDTH 17 0
BBX 13 21 2 -1
BITMAP
0008DFFFFFB000
008FA666664000
00DC0000000000
00F80000000000
00F90000000000
00DD0000000000
008F7000000000
001DF910000000
0001BFE6000000
000006EFD40000
00000018EF9000
000000002BF700
0000000000CE00
00000000007F20
00000000006F20
00000000006F20
1D500000008F10
0AF4000000BE00
00AF931128F800
0006DFFFFF9000
00000344410000
ENDCHAR
STARTCHAR uni093E
ENCODING 2366
SWIDTH 231 0
DWIDTH 7 0
BBX 9 20 -1 0
BITMAP
6FFFFFFFD0
2667FB6640
0001F70000
0001F70000
0001F70000
0001F70000
0001F70000
0001F70000
0001F70000
0001F70000
0001F70000
0001F70000
0001F70000
0001F70000
0001F70000
0001F70000
0001F70000
0001F70000
0001F70000
0001D60000
ENDCHAR
STARTCHAR uni093F
ENCODING 2367
SWIDTH 231 0
DWIDTH 7 0
BBX 21 28 -1 0
BITMAP
000004BEFFFFFFFFFEB400
00005FD76666666668DF40
0000DD1000000000001DC0
0000F900000000000009F0
0001F700000000000008F0
0001F700000000000006D0
0001F70000000000000000
0001F80000000000000000
6FFFFFFFD0000000000000
2667FB6640000000000000
0001F70000000000000000
0001F70000000000000000
0001F70000000000000000
0001F70000000000000000
0001F70000000000000000
0001F70000000000000000
0001F70000000000000000
0001F70000000000000000
0001F70000000000000000
0001F70000000000000000
0001F70000000000000000
0001F70000000000000000
0001F70000000000000000
0001F70000000000000000
0001F70000000000000000
0001F70000000000000000
0001F70000000000000000
0001D60000000000000000
ENDCHAR
STARTCHAR uni0940
ENCODING 2368
SWIDTH 231 0
DWIDTH 7 0
BBX 13 28 -5 0
BITMAP
018DFFD8100000
0CFA77AFB00000
4F600007F40000
7F100002F70000
8F000001F70000
6C000001F70000
00000001F70000
00000001F80000
00006FFFFFFFD0
00002667FB6640
00000001F70000
00000001F70000
00000001F70000
00000001F70000
00000001F70000
00000001F70000
00000001F70000
00000001F70000
00000001F70000
00000001F70000
00000001F70000
00000001F70000
00000001F70000
00000001F70000
00000001F70000
00000001F70000
00000001F70000
00000001D60000
ENDCHAR
STARTCHAR uni0941
ENCODING 2369
SWIDTH 0 0
DWIDTH 0 0
BBX 13 9 -12 -8
BITMAP
00000000110000
00000007FFE900
02000001458F80
1F800000000AC0
09E100000008E0
01E900000008D0
006F7000000CB0
0008FB7666AF40
00004BEFFFC600
ENDCHAR
STARTCHAR uni0942
ENCODING 2370
SWIDTH 0 0
DWIDTH 0 0
BBX 13 9 -9 -8
BITMAP
00001100000000
02BFFFFC500000
0BE7546BF80000
2F6000006F5000
4F3000000BD000
4F30000003F500
2F60000000BC00
0CE76500004F30
02AEFE00000500
ENDCHAR
STARTCHAR uni0943
ENCODING 2371
SWIDTH 0 0
DWIDTH 0 0
BBX 10 9 -9 -8
BITMAP
0001110000
05DFFF1000
3FB6440000
8E10000000
AD00000000
AD00000002
7F200002CC
1ED7669ED3
03BEFFD710
ENDCHAR
STARTCHAR uni0945
ENCODING 2373
SWIDTH 0 0
DWIDTH 0 0
BBX 11 6 -9 21
BITMAP
130000000310
8E0000002F50
6F1000005F30
2FB32224DD00
05EFFFFFC300
000244420000
ENDCHAR
STARTCHAR uni0946
ENCODING 2374
SWIDTH 0 0
DWIDTH 0 0
BBX 10 10 -12 18
BITMAP
3F40000000
2F60000000
0DD1000000
04EE600000
002AFD6000
00003BFC20
0000005EB0
00000009F1
0000001FF9
0000000663
ENDCHAR
STARTCHAR uni0947
ENCODING 2375
SWIDTH 0 0
DWIDTH 0 0
BBX 8 10 -10 18
BITMAP
BE200000
3FB00000
08F50000
01DE1000
004FA000
0009F500
0001DE10
00003FA0
000006F9
00000053
ENDCHAR
STARTCHAR uni0948
ENCODING 2376
SWIDTH 0 0
DWIDTH 0 0
BBX 8 10 -10 18
BITMAP
EB0006F1
6F6007F1
0CE207F1
03FA06F1
008F55F1
000DE5F1
0003FAF1
00007FF1
00000AF9
00000163
ENDCHAR
STARTCHAR uni0949
ENCODING 2377
SWIDTH 231 0
DWIDTH 7 0
BBX 11 27 -2 0
BITMAP
291000000750
3F3000000D90
1F6000001E70
0BD52113AF20
02CFFFFFE500
000244430000
000000000000
06FFFFFFFD00
02667FB66400
00001F700000
00001F700000
00001F700000
00001F700000
00001F700000
00001F700000
00001F700000
00001F700000
00001F700000
00001F700000
00001F700000
00001F700000
00001F700000
00001F700000
00001F700000
00001F700000
00001F700000
00001D600000
ENDCHAR
STARTCHAR uni094A
ENCODING 2378
SWIDTH 231 0
DWIDTH 7 0
BBX 12 28 -4 0
BITMAP
CA0000000000
CC0000000000
8F5000000000
1CF920000000
007EF8100000
00018EE50000
000002BF3000
0000002F7000
0006FFFFFFFD
0002667FB664
0000001F7000
0000001F7000
0000001F7000
0000001F7000
0000001F7000
0000001F7000
0000001F7000
0000001F7000
0000001F7000
0000001F7000
0000001F7000
0000001F7000
0000001F7000
0000001F7000
0000001F7000
0000001F7000
0000001F7000
0000001D6000
ENDCHAR
STARTCHAR uni094B
ENCODING 2379
SWIDTH 231 0
DWIDTH 7 0
BBX 11 28 -3 0
BITMAP
5F6000000000
0BE200000000
02EB00000000
005F60000000
000AE2000000
0001DB000000
00003E600000
000005E20000
006FFFFFFFD0
002667FB6640
000001F70000
000001F70000
000001F70000
000001F70000
000001F70000
000001F70000
000001F70000
000001F70000
000001F70000
000001F70000
000001F70000
000001F70000
000001F70000
000001F70000
000001F70000
000001F70000
000001F70000
000001D60000
ENDCHAR
STARTCHAR uni094C
ENCODING 2380
SWIDTH 231 0
DWIDTH 7 0
BBX 11 28 -3 0
BITMAP
8E3000F70000
1DC000F70000
04F700F70000
008E20F70000
000CB0E70000
0002E5C70000
00004EB70000
000007F80000
006FFFFFFFD0
002667FB6640
000001F70000
000001F70000
000001F70000
000001F70000
000001F70000
000001F70000
000001F70000
000001F70000
000001F70000
000001F70000
000001F70000
000001F70000
000001F70000
000001F70000
000001F70000
000001F70000
000001F70000
000001D60000
ENDCHAR
STARTCHAR uni094D
ENCODING 2381
SWIDTH 0 0
DWIDTH 0 0
BBX 6 5 -5 -7
BITMAP
5F4000
0BD100
02EA00
006F50
000AE1
ENDCHAR
STARTCHAR uni0950
ENCODING 2384
SWIDTH 847 0
DWIDTH 27 0
BBX 24 26 1 0
BITMAP
000000000000000110000000
000000000000000AF0000000
000000000000000340000000
000000000000000000000000
000000000000000000000071
000000000000000000004BF3
000BFFFEA300000AFFFFFD40
00046668DF40000366653000
000000001EC0000000000000
0000000008F0000000000000
0000000007F1000000000000
0000000008F1000111110000
000000000CD0000AFFFFE810
00001124AF50000244459FB0
0000CFFFF4000000000007F3
00003457EC000000000002F7
000000002E711110000000F8
0000000009FFFFFE200000F8
0000000007F5446F500000F8
3F40000007F1002F600000F8
3F50000007F1002F600000F8
2F70000009F0001F600000F7
0DC000001EC0000E900003F5
05FB4224CF400009F6224CE1
006EFFFFD5000001AFFFFD40
000034430000000001342000
ENDCHAR
STARTCHAR uni0951
ENCODING 2385
SWIDTH 0 0
DWIDTH 0 0
BBX 3 6 -5 22
BITMAP
7F10
7F10
7F10
7F10
7F10
7F10
ENDCHAR
STARTCHAR uni0952
ENCODING 2386
SWIDTH 0 0
DWIDTH 0 0
BBX 12 3 -14 -4
BITMAP
011111111110
4FFFFFFFFFF2
144444444440
ENDCHAR
STARTCHAR uni0953
ENCODING 2387
SWIDTH 0 0
DWIDTH 0 0
BBX 6 6 -9 22
BITMAP
1F9000
07F400
00CD10
003F90
0007F4
0000CC
ENDCHAR
STARTCHAR uni0954
ENCODING 2388
SWIDTH 0 0
DWIDTH 0 0
BBX 6 6 -5 22
BITMAP
0003E8
000CD1
007F40
02F900
0CD100
5F4000
ENDCHAR
STARTCHAR uni0915093C
ENCODING 2392
SWIDTH 725 0
DWIDTH 23 0
BBX 25 22 -1 -2
BITMAP
6FFFFFFFFFFFFFFFFFFFFFFFA0
266666666667F9666666666630
000000000002F5000000000000
000000000002F5000000000000
000000011002F5001100000000
00003BFFF702F69EFFFC400000
0002EE754202FEC6446DF50000
000AE2000002FD000000DD0000
000E90000002F70000006F2000
001F70000002F50000004F4000
001F70000002F50000004F4000
001F70000002F50000004F4000
001F70000002F50000004F4000
000F90000004F50000006F3000
000CD1000009F5000000BE0000
0004FC42138EF500123AF70000
00005EFFFFD5F504FFFE700000
000000344302F5014430000000
000000000002F5000000000000
000000100002F5000000000000
000006F4000020000000000000
00000141000000000000000000
ENDCHAR
STARTCHAR uni0916093C
ENCODING 2393
SWIDTH 696 0
DWIDTH 22 0
BBX 24 22 -1 -2
BITMAP
6FFFFFFFFFFFFFFFFFFFFFFA
26666669F8666666668F9663
00000005F3000000003F5000
00000005F3000000003F5000
00000005F3000001003F5000
00000005F3002AFF703F5000
00000005F301DE75203F5000
00000006F207F400003F5000
0000000AF00BD000003F5000
0011127F900CB000003F5000
00DFFFFA100CB000003F5000
00BF6420000BD000004F5000
001EB0000008F200009F5000
0005F7000002ED5238EF5000
00009F3000004DFFFD5F5000
00001DC000000034303F5000
000004F800000000003F5000
0000008F30000000003F5000
0000000DD1000000003F5000
00010003F9000000002F5000
008F20002200000000031000
002400000000000000000000
ENDCHAR
STARTCHAR uni0917093C
ENCODING 2394
SWIDTH 494 0
DWIDTH 16 0
BBX 18 22 -1 -2
BITMAP
6FFFFFFFFFFFFFFFF3
26666DE66666CE6661
00000BC00000AD0000
00000BC00000AD0000
00000BC00000AD0000
00000BC00000AD0000
00000BC00000AD0000
00000BC00000AD0000
00000BC00000AD0000
00000DC00000AD0000
00002F900000AD0000
0024CF300000AD0000
06FFD5000000AD0000
014300000000AD0000
000000000000AD0000
000000000000AD0000
000000000000AD0000
000000000000AD0000
000000000000AD0000
000011000000AD0000
0000DC000000340000
000033000000000000
ENDCHAR
STARTCHAR uni091C093C
ENCODING 2395
SWIDTH 547 0
DWIDTH 18 0
BBX 19 22 -1 -2
BITMAP
6FFFFFFFFFFFFFFFFFE0
26666666666666FB6650
00000000000000F80000
00000000000000F80000
00000000000000F80000
00000000000000F80000
00011111111112F80000
000BFFFFFFFFFFF80000
0003446DD54444F80000
00000001E90000F80000
00000000BD0000F80000
00000000AD0000F80000
00000000AD0000F80000
00000000AD0000F80000
00000001EB0000F80000
0011124BF50000F80000
01FFFFFE600000F80000
00444430000000F80000
00000000000000F80000
00001000000000E80000
0004F600000000000000
00014100000000000000
ENDCHAR
STARTCHAR uni0921093C
ENCODING 2396
SWIDTH 475 0
DWIDTH 15 0
BBX 17 25 -1 -5
BITMAP
6FFFFFFFFFFFFFFFA0
266666666668F86630
000000000004F40000
000000000004F40000
000000011115F40000
00003BEFFFFFF30000
0001ED644444300000
0006F3000000000000
0008F0000000000000
0009E0000000000000
0007F2000000000000
0002FB321110000000
00005EFFFFFEA10000
000000244458FC0000
0000000000008F2000
0002200000006F3000
000BB00000005F3000
0009E00000008F2000
0004F9311126EC0000
00007EFFFFFFB20000
000001344442000000
000000000000000000
000000001100000000
00000001F900000000
000000004200000000
ENDCHAR
STARTCHAR uni0922093C
ENCODING 2397
SWIDTH 485 0
DWIDTH 16 0
BBX 17 24 -1 -4
BITMAP
6FFFFFFFFFFFFFFFE0
266666666668F96650
000000000003F50000
000000000003F50000
000000000003F50000
000000011115F50000
00001AEFFFFFF40000
0001DE854444400000
0007F4000000000000
000BD0000000000000
000CB0000001000000
000CB00006EFFB2000
000CB0002FA56EA000
000CB0005F2008E000
000BC0004C0007F000
0008F20000000AD000
0002ED5211137F8000
00003CFFFFFFFA1000
000000244444100000
000000000000000000
000000000000000000
000000001100000000
00000000CD00000000
000000003300000000
ENDCHAR
STARTCHAR uni092B093C
ENCODING 2398
SWIDTH 739 0
DWIDTH 24 0
BBX 26 22 -1 -2
BITMAP
6FFFFFFFFFFFFFFFFFFFFFFFF1
266AF7666666DD666666666650
0006F2000000BC000000000000
0006F2000000BC000000000000
0006F2000000BC001110000000
0006F2000000BC5DFFFE810000
0006F2000000BEE85459FB0000
0006F2000000BF5000007F5000
0006F2000000BE0000000F9000
0006F2000000BC0000000DA000
0005F4000000DC0000000DA000
0002F9000003FC0000000DA000
00009F83126DFC0000000DA000
000009FFFFF8BC0000000F9000
000000144410BC0000005F6000
000000000000BC001126ED0000
000000000000BC00CFFFB20000
000000000000BC003442000000
000000000000BC000000000000
000001100000BC000000000000
000009F1000034000000000000
00000240000000000000000000
ENDCHAR
STARTCHAR uni092F093C
ENCODING 2399
SWIDTH 564 0
DWIDTH 18 0
BBX 20 22 -1 -2
BITMAP
6FFFFFFFFFFFFFFFFFF7
2666669EB66666AF7662
00000006F300007F2000
00000002F600007F2000
00000001F700007F2000
00000004F600007F2000
0001125DE100007F2000
000CFFFD4000007F2000
000CC4300000007F2000
000CB0000000007F2000
000CB0000000007F2000
000CB0000000007F2000
000AE0000000009F2000
0005F600000002EF2000
0000BF8311136EDF2000
000019FFFFFFF97F2000
000000134443107F2000
000000000000007F2000
000000000000007F2000
000011000000006F2000
0000AF00000000120000
00002400000000000000
ENDCHAR
STARTCHAR uni0960
ENCODING 2400
SWIDTH 753 0
DWIDTH 24 0
BBX 26 25 -1 -5
BITMAP
6FFFFFFFFFFFFFFFFFFFFFFFF8
266666666666DE666666666662
000000000000BC000000000000
000000000000BC000000000000
000000000000BC000000000000
000000011100BC000000111000
00003BFFFFD6BC000007FFA000
0003ED75458EEC0001AF8CA000
000AE2000004FC002CF60CA000
000DA0000000DC04EE300CA000
000E90000000BC6FC2000DA000
000E90000000BFFA108DFFA000
000950000000CF7008F8431000
00000000002CFC000DA0000000
0000000004EEDC000F80000000
000000006FC2BC000EA0000000
00000009FA10BC000AF6211000
000001BF7000BC0001DFFFF100
00003DE50000BC0007F9544000
0004ED200000BC000EA0000000
00036100000044000F80000000
00000000000000000F90000000
00000000000000000BF6211000
000000000000000002CFFFF700
00000000000000000002444100
ENDCHAR
STARTCHAR uni0961
ENCODING 2401
SWIDTH 676 0
DWIDTH 22 0
BBX 24 28 -1 -8
BITMAP
6FFFFFFFFFFFFFFFFFFFFFF1
266666666666666666ED6650
000000000000000000DB0000
000000000000000000DB0000
000000000000000000DB0000
000000010000000100DB0000
00002AEFFC405DFFD6DB0000
0001DE856AF6FA657EFB0000
0007F40000AF900004FB0000
000AE000005F500000EB0000
000BC000004F400000DB0000
000BC000004F400000DB0000
000BC000004F300000DB0000
000BC0000001000001DB0000
000BD00000000019EFFB0000
0008F3000000008F95420000
0002ED52110000DB00000000
00004DFFFD0000E800000000
00000024430000EA00000000
000000000000009F62110000
000000000000001CFFFF2000
000000000000006F95440000
00000000000000DB00000000
00000000000000E800000000
00000000000000DA00000000
000000000000009F62110000
000000000000001BFFFF7000
000000000000000024442000
ENDCHAR
STARTCHAR uni0964
ENCODING 2404
SWIDTH 286 0
DWIDTH 9 0
BBX 3 20 4 0
BITMAP
6F10
6F20
6F20
6F20
6F20
6F20
6F20
6F20
6F20
6F20
6F20
6F20
6F20
6F20
6F20
6F20
6F20
6F20
6F20
6F10
ENDCHAR
STARTCHAR uni0965
ENCODING 2405
SWIDTH 518 0
DWIDTH 17 0
BBX 10 20 4 0
BITMAP
6F100000F7
6F200000F8
6F200000F8
6F200000F8
6F200000F8
6F200000F8
6F200000F8
6F200000F8
6F200000F8
6F200000F8
6F200000F8
6F200000F8
6F200000F8
6F200000F8
6F200000F8
6F200000F8
6F200000F8
6F200000F8
6F200000F8
6F100000E7
ENDCHAR
STARTCHAR uni0966
ENCODING 2406
SWIDTH 519 0
DWIDTH 17 0
BBX 13 22 2 -1
BITMAP
00001111100000
019EFFFFFD6000
1DF854446BF700
7F50000000BE10
BE000000005F40
CC000000003F60
CC000000003F60
CC000000003F60
CC000000003F60
CC000000003F60
CC000000003F60
CC000000003F60
CC000000003F60
CC000000003F60
CC000000003F60
CC000000003F60
CC000000003F60
BD000000005F50
8F300000009F20
1ED5211138F900
03CFFFFFFF9000
00024444310000
ENDCHAR
STARTCHAR uni0967
ENCODING 2407
SWIDTH 288 0
DWIDTH 9 0
BBX 7 21 0 0
BITMAP
00001750
0007EFA0
04CFBEA0
6FD40DA0
66000DA0
00000DA0
00000DA0
00000DA0
00000DA0
00000DA0
00000DA0
00000DA0
00000DA0
00000DA0
00000DA0
00000DA0
00000DA0
00000DA0
00000DA0
00000DA0
00000DA0
ENDCHAR
STARTCHAR uni0968
ENCODING 2408
SWIDTH 453 0
DWIDTH 15 0
BBX 13 22 1 -1
BITMAP
00001111000000
006DFFFFFC4000
08FB64446CF500
1FA0000000DD00
5F400000008F10
6F300000006F20
6F200000006F20
02000000008F10
0000000001DC00
000000001BF400
00000003DE5000
0000006ED30000
000019FA100000
0002CF60000000
005ED300000000
05FB1000000000
0ED00000000000
3F700000000000
4F600000000000
4F711111111100
4FFFFFFFFFFF40
14444444444410
ENDCHAR
STARTCHAR uni0969
ENCODING 2409
SWIDTH 489 0
DWIDTH 16 0
BBX 13 22 1 -1
BITMAP
00001111100000
006DFFFFFD7000
07FB64446AF900
1EB00000009F20
3F600000003F50
4F400000002F60
29200000002F60
00000000003F50
00000000007F20
0000001137F800
000007FFFF5000
000002446BF500
0000000000AE10
00000000004F40
03000000002F60
4F400000002F60
4F400000002F60
3F600000004F50
0EA00000008F20
07F9321138F900
008EFFFFFF9100
00013444410000
ENDCHAR
STARTCHAR uni096A
ENCODING 2410
SWIDTH 453 0
DWIDTH 15 0
BBX 15 22 0 -1
BITMAP
0000000001320000
000000001EFC0000
000000009ECC0000
00000003F7BC0000
0000000BD0BC0000
0000005F50BC0000
000001DB00BC0000
000008F200BC0000
00002F8000BC0000
0000BE1000BC0000
0004F50000BC0000
000DC00000BC0000
007F300000BC0000
02E9000000BC0000
0AE1000000BC0000
3F71111111BC1100
7FFFFFFFFFFFFF80
1444444444CD4420
0000000000BC0000
0000000000BC0000
0000000000BC0000
0000000000230000
ENDCHAR
STARTCHAR uni096B
ENCODING 2411
SWIDTH 480 0
DWIDTH 15 0
BBX 12 22 2 -1
BITMAP
111111111110
CFFFFFFFFFF5
CD4444444441
CC0000000000
CC0000000000
CC0000000000
CC0000000000
CC0011110000
CC6EFFFFE910
CED644459FC0
BE20000006F5
0000000000F9
0000000000DA
0000000000DB
0000000000DB
BA00000000DB
CB00000000DA
BD00000000F9
8F30000005F6
1ED521126ED0
03CFFFFFFB20
000244442000
ENDCHAR
STARTCHAR uni096C
ENCODING 2412
SWIDTH 495 0
DWIDTH 16 0
BBX 13 22 2 -1
BITMAP
00001111111000
019EFFFFFFF300
1DF85444444000
7F500000000000
BE000000000000
CC000000000000
CC000000000000
CC000000000000
CC001111000000
CC3CFFFFFC4000
CDE954447DF400
CF50000001EC00
CE000000008F10
CC000000006F20
CC000000006F30
CC000000006F30
CC000000006F30
BD000000008F20
8F30000000CD00
1ED521124BF600
03CFFFFFFE6000
00024444300000
ENDCHAR
STARTCHAR uni096D
ENCODING 2413
SWIDTH 380 0
DWIDTH 12 0
BBX 12 22 0 -1
BITMAP
011111111110
7FFFFFFFFFF8
1444444448F6
000000000AF2
000000001EB0
000000006F50
00000000CE00
00000002F900
00000008F300
0000000EC000
0000005F7000
000000AF1000
000001FA0000
000007F40000
00000CE00000
00003F800000
00009F200000
0000EC000000
0005F6000000
000BE1000000
002FA0000000
001410000000
ENDCHAR
STARTCHAR uni096E
ENCODING 2414
SWIDTH 523 0
DWIDTH 17 0
BBX 13 22 2 -1
BITMAP
00001111100000
02AEFFFFFE8000
1DE8544459FA00
8F400000008F30
BD000000002F70
CC000000001F70
CC000000001F70
BD000000002F70
8F300000006F30
1DD5211137EA00
01CFFFFFFF9000
0AF954446AF600
6F500000009F20
AE000000003F60
CC000000001F70
CC000000001F80
CC000000001F70
BD000000002F60
8F300000007F30
1ED5211137FB00
03CFFFFFFFA100
00024444410000
ENDCHAR
STARTCHAR uni096F
ENCODING 2415
SWIDTH 493 0
DWIDTH 16 0
BBX 13 22 1 -1
BITMAP
00001111100000
006DFFFFFE7000
07FB64446AF900
1FB00000008F30
5F500000002F70
6F300000000F80
6F300000000F80
6F300000000F80
6F300000000F80
5F400000000F80
2F900000000F80
09F93111111F80
009FFFFFFFFF80
00014444444F80
00000000000F80
00000000000F80
00000000000F80
00000000001F70
00000000006F40
0011111137EB00
06FFFFFFFFA100
01444444410000
ENDCHAR
STARTCHAR uni0970
ENCODING 2416
SWIDTH 391 0
DWIDTH 13 0
BBX 11 12 1 4
BITMAP
000011000000
019EFFFC4000
0CF8546CF500
6F500000DD00
AE0000007F20
BC0000005F30
BC0000005F30
AE0000007F20
7F300000BE00
1ED5223AF700
02CFFFFE7000
000244300000
ENDCHAR
STARTCHAR uni0972
ENCODING 2418
SWIDTH 598 0
DWIDTH 19 0
BBX 20 27 1 0
BITMAP
00000000048000000093
0000000008F0000002F5
0000000006F2000005F3
0000000001EB31114DD0
00000000004EFFFFFD30
00000000000034443000
00000000000000000000
0BFFFEA2000003FFFF80
046668EE200005F86630
0000002EA00005F30000
00000009F00005F30000
00000007F10005F30000
00000007F20005F30000
00000008F00005F30000
0000000DC00005F30000
001124BF400005F30000
00DFFFF5000005F30000
003446CF511116F30000
0000000CFFFFFFF30000
00000008F54448F30000
00000006F20005F30000
00000007F10005F30000
0000000CE00005F30000
111123AF700005F30000
CFFFFFE7000005F30000
34444300000005F30000
00000000000004D20000
ENDCHAR
STARTCHAR Wgrave
ENCODING 7808
SWIDTH 795 0
DWIDTH 25 0
BBX 24 27 1 0
BITMAP
000000017700000000000000
000000009F60000000000000
000000001CE1000000000000
0000000002E8000000000000
00000000005E100000000000
000000000000000000000000
000000000000000000000000
EC000000006FB000000006F5
BF10000000AFF10000000AF2
7F40000000EBF50000000DE0
4F70000003F4D90000001FA0
1FA0000007F19D0000005F70
0CE000000BB05F2000008F30
09F200001F701F600000BF00
05F500005F300CA00000EB00
02F800009E0008E00002F800
00DB0000DA0004F40006F500
00AE0002F60000E80009F100
007F3006F10000BC000CD000
003F600AC000007F100F9000
000F900E8000002F503F6000
000BC03F4000000D906F3000
0008F17F00000009D0AE0000
0005F4BB00000005F2DB0000
0001F8F700000001F7F70000
0000DEF300000000CEF40000
00009FD0000000008FE10000
ENDCHAR
STARTCHAR wgrave
ENCODING 7809
SWIDTH 682 0
DWIDTH 22 0
BBX 22 22 0 0
BITMAP
0000000AF6000000000000
00000001CE200000000000
000000002EA00000000000
0000000003E40000000000
0000000000000000000000
0000000000000000000000
4F60000001ED00000008F1
1EA0000004FF2000000DC0
0BE0000008EF6000002F80
06F400000D8CA000006F40
02F800002F48E00000BE00
00CC00006F14F30000EA00
008F1000AB00E70004F500
004F5000E700AB0008F100
000E9003F3006F000CC000
000AD007E0002F401F7000
0005F20BA0000D806F3000
0001F71F600009C0AE0000
0000BB4F200005F1E90000
00007E9D000001F8F50000
00003FF9000000CFF10000
00000DF50000007FB00000
ENDCHAR
STARTCHAR Wacute
ENCODING 7810
SWIDTH 795 0
DWIDTH 25 0
BBX 24 27 1 0
BITMAP
000000000000048400000000
0000000000001EE200000000
0000000000008F4000000000
000000000002F80000000000
000000000009B00000000000
000000000000000000000000
000000000000000000000000
EC000000006FB000000006F5
BF10000000AFF10000000AF2
7F40000000EBF50000000DE0
4F70000003F4D90000001FA0
1FA0000007F19D0000005F70
0CE000000BB05F2000008F30
09F200001F701F600000BF00
05F500005F300CA00000EB00
02F800009E0008E00002F800
00DB0000DA0004F40006F500
00AE0002F60000E80009F100
007F3006F10000BC000CD000
003F600AC000007F100F9000
000F900E8000002F503F6000
000BC03F4000000D906F3000
0008F17F00000009D0AE0000
0005F4BB00000005F2DB0000
0001F8F700000001F7F70000
0000DEF300000000CEF40000
00009FD0000000008FE10000
ENDCHAR
STARTCHAR wacute
ENCODING 7811
SWIDTH 682 0
DWIDTH 22 0
BBX 22 22 0 0
BITMAP
0000000000008F80000000
000000000003FA00000000
00000000000CC100000000
00000000006D2000000000
0000000000000000000000
0000000000000000000000
4F60000001ED00000008F1
1EA0000004FF2000000DC0
0BE0000008EF6000002F80
06F400000D8CA000006F40
02F800002F48E00000BE00
00CC00006F14F30000EA00
008F1000AB00E70004F500
004F5000E700AB0008F100
000E9003F3006F000CC000
000AD007E0002F401F7000
0005F20BA0000D806F3000
0001F71F600009C0AE0000
0000BB4F200005F1E90000
00007E9D000001F8F50000
00003FF9000000CFF10000
00000DF50000007FB00000
ENDCHAR
STARTCHAR Wdieresis
ENCODING 7812
SWIDTH 795 0
DWIDTH 25 0
BBX 24 26 1 0
BITMAP
00000000AD0007F100000000
00000000AD0007F100000000
00000000AD0007F100000000
00000000AD0007F100000000
000000000000000000000000
000000000000000000000000
EC000000006FB000000006F5
BF10000000AFF10000000AF2
7F40000000EBF50000000DE0
4F70000003F4D90000001FA0
1FA0000007F19D0000005F70
0CE000000BB05F2000008F30
09F200001F701F600000BF00
05F500005F300CA00000EB00
02F800009E0008E00002F800
00DB0000DA0004F40006F500
00AE0002F60000E80009F100
007F3006F10000BC000CD000
003F600AC000007F100F9000
000F900E8000002F503F6000
000BC03F4000000D906F3000
0008F17F00000009D0AE0000
0005F4BB00000005F2DB0000
0001F8F700000001F7F70000
0000DEF300000000CEF40000
00009FD0000000008FE10000
ENDCHAR
STARTCHAR wdieresis
ENCODING 7813
SWIDTH 682 0
DWIDTH 22 0
BBX 22 22 0 0
BITMAP
00000007F1004F40000000
00000007F1004F40000000
00000007F1004F40000000
00000007F1003F40000000
0000000000000000000000
0000000000000000000000
4F60000001ED00000008F1
1EA0000004FF2000000DC0
0BE0000008EF6000002F80
06F400000D8CA000006F40
02F800002F48E00000BE00
00CC00006F14F30000EA00
008F1000AB00E70004F500
004F5000E700AB0008F100
000E9003F3006F000CC000
000AD007E0002F401F7000
0005F20BA0000D806F3000
0001F71F600009C0AE0000
0000BB4F200005F1E90000
00007E9D000001F8F50000
00003FF9000000CFF10000
00000DF50000007FB00000
ENDCHAR
STARTCHAR uni1E9E
ENCODING 7838
SWIDTH 542 0
DWIDTH 17 0
BBX 14 20 2 0
BITMAP
005CEFFFFFFFD0
07FD8666666EC0
1FC00000005F60
5F50000000CD00
6F30000005F500
6F3000000CC000
6F3000005F5000
6F300000DC0000
6F300005F61000
6F300008FFFB20
6F300002459FD0
6F3000000007F5
6F3000000002F7
6F3000000001F8
6F3000000001F8
6F3000000001F8
6F3000000003F7
6F300000000AF3
6F30016668CF90
6F2002FFFFC600
ENDCHAR
STARTCHAR Ygrave
ENCODING 7922
SWIDTH 493 0
DWIDTH 16 0
BBX 15 27 0 0
BITMAP
0000573000000000
00003FD000000000
000006F600000000
000000AE10000000
0000001D70000000
0000000000000000
0000000000000000
1FB0000000001EC0
08F4000000008F50
01EB00000001EC00
008F40000007F400
001EB000001EC000
0008F400007F4000
0001EB0001EB0000
00007F4007F40000
00001EB01EB00000
000007F47F300000
000001ECEA000000
0000006FF3000000
0000000EB0000000
0000000EA0000000
0000000EA0000000
0000000EA0000000
0000000EA0000000
0000000EA0000000
0000000EA0000000
0000000DA0000000
ENDCHAR
STARTCHAR ygrave
ENCODING 7923
SWIDTH 459 0
DWIDTH 15 0
BBX 13 26 1 -4
BITMAP
0008F800000000
0000BF30000000
00001CC0000000
000002D5000000
00000000000000
00000000000000
E9000000000DB0
AE100000004F60
4F60000000AE10
0EB0000001EA00
08F2000006F400
03F700000BE000
00CC00002F8000
007F30007F3000
002F8000DD0000
000BE003F70000
0005F408F20000
0001EA0EB00000
00009E5F600000
00004FEE100000
000008FA000000
000005F4000000
00000CD0000000
00007F60000000
267BFA00000000
5FFD7000000000
ENDCHAR
STARTCHAR uni200B
ENCODING 8203
SWIDTH 0 0
DWIDTH 0 0
BBX 1 1 0 0
BITMAP
00
ENDCHAR
STARTCHAR uni200C
ENCODING 8204
SWIDTH 0 0
DWIDTH 0 0
BBX 2 33 -1 -7
BITMAP
66
BC
BC
BC
BC
BC
BC
BC
BC
BC
BC
BC
BC
BC
BC
BC
BC
BC
BC
BC
BC
BC
BC
BC
BC
BC
BC
BC
BC
BC
BC
BC
BC
ENDCHAR
STARTCHAR uni200D
ENCODING 8205
SWIDTH 0 0
DWIDTH 0 0
BBX 8 33 -4 -7
BITMAP
55000046
BF5004FB
0BF65FB1
00BFFB00
006FF600
06FFFF60
6FABC9F6
9A0BC09B
000BC000
000BC000
000BC000
000BC000
000BC000
000BC000
000BC000
000BC000
000BC000
000BC000
000BC000
000BC000
000BC000
000BC000
000BC000
000BC000
000BC000
000BC000
000BC000
000BC000
000BC000
000BC000
000BC000
000BC000
000BC000
ENDCHAR
STARTCHAR endash
ENCODING 8211
SWIDTH 408 0
DWIDTH 13 0
BBX 11 3 1 9
BITMAP
122222222210
BFFFFFFFFFC0
344444444430
ENDCHAR
STARTCHAR emdash
ENCODING 8212
SWIDTH 537 0
DWIDTH 17 0
BBX 15 3 1 9
BITMAP
1222222222222210
BFFFFFFFFFFFFFD0
3444444444444440
ENDCHAR
STARTCHAR quoteleft
ENCODING 8216
SWIDTH 179 0
DWIDTH 6 0
BBX 2 8 2 13
BITMAP
04
1B
5B
9B
DB
FB
FB
EA
ENDCHAR
STARTCHAR quoteright
ENCODING 8217
SWIDTH 179 0
DWIDTH 6 0
BBX 2 8 2 12
BITMAP
EA
FB
FB
F9
F5
F1
C0
40
ENDCHAR
STARTCHAR quotesinglbase
ENCODING 8218
SWIDTH 187 0
DWIDTH 6 0
BBX 2 7 2 -3
BITMAP
CC
DD
DC
DA
D5
D1
90
ENDCHAR
STARTCHAR quotedblleft
ENCODING 8220
SWIDTH 329 0
DWIDTH 11 0
BBX 7 8 2 13
BITMAP
04000040
1B000480
5B000880
9B000C80
DB001F80
FB003F80
FB003F80
EA002F70
ENDCHAR
STARTCHAR quotedblright
ENCODING 8221
SWIDTH 329 0
DWIDTH 11 0
BBX 7 8 2 12
BITMAP
EA002F70
FB003F80
FB003F80
F9003F60
F5003F20
F1003D00
C0003900
40001300
ENDCHAR
STARTCHAR quotedblbase
ENCODING 8222
SWIDTH 337 0
DWIDTH 11 0
BBX 7 8 2 -4
BITMAP
CC001F90
DD001FA0
DC001F90
DB001F60
D7001F20
D3001D00
B0001800
40000000
ENDCHAR
STARTCHAR dagger
ENCODING 8224
SWIDTH 427 0
DWIDTH 14 0
BBX 12 20 1 0
BITMAP
00000E900000
00000E800000
00000D800000
00000D700000
01111C711110
8FFFFFFFFFF3
13333D833330
00000E800000
00000F900000
00000F900000
00000F900000
00000E900000
00000E800000
00000E800000
00000D700000
00000D700000
00000C700000
00000C600000
00000B500000
00000A400000
ENDCHAR
STARTCHAR daggerdbl
ENCODING 8225
SWIDTH 427 0
DWIDTH 14 0
BBX 12 20 1 0
BITMAP
00000E900000
00000E800000
00000D800000
00000D700000
01111C711110
8FFFFFFFFFF3
13333D933330
00000E800000
00000E900000
00000F900000
00000E900000
00000E800000
12222D822220
8FFFFFFFFFF3
24444D944441
00000C700000
00000D700000
00000E800000
00000E800000
00000E900000
ENDCHAR
STARTCHAR bullet
ENCODING 8226
SWIDTH 273 0
DWIDTH 9 0
BBX 4 5 2 7
BITMAP
1EFA
1FFC
1FFC
1FFC
1EFA
ENDCHAR
STARTCHAR ellipsis
ENCODING 8230
SWIDTH 591 0
DWIDTH 19 0
BBX 15 4 2 0
BITMAP
CE00006F50000FB0
DE00006F60000FC0
DE00006F60000FC0
CE00006F50000FB0
ENDCHAR
STARTCHAR perthousand
ENCODING 8240
SWIDTH 1027 0
DWIDTH 33 0
BBX 31 20 1 0
BITMAP
02ADFEC4000001D50000000000000000
0CE867CF300006E10000000000000000
4F30000D80000D800000000000000000
6F00000AB0005F100000000000000000
6E000009B000B9000000000000000000
6E000009B003F3000000000000000000
4F10000C900AB0000000000000000000
1EB4237F502F40000000000000000000
04EFFFF8008C00000000000000000000
0003441001E600000000000000000000
0000000007E000000000000000000000
000000000D7005CEFDA200019DFEC500
000000005E104F7334BC000BC4337F40
00000000C9009B00002F302F30000A90
00000004F200B900000F504F100008B0
0000000AB000C800000F505F000008C0
0000002F4000B900000F504F100009B0
0000009C00009C00003F302F40000C90
000001E500004FB768EC000CE867BF40
000006D0000005CEFDA200019DFEC500
ENDCHAR
STARTCHAR guilsinglleft
ENCODING 8249
SWIDTH 290 0
DWIDTH 9 0
BBX 6 12 2 2
BITMAP
000032
0004E3
004E80
04F800
4F8000
D90000
BC1000
1CC100
01CC10
001CC1
0001C3
000010
ENDCHAR
STARTCHAR guilsinglright
ENCODING 8250
SWIDTH 290 0
DWIDTH 9 0
BBX 6 12 2 2
BITMAP
500000
D70000
4F8000
04F800
004F80
0004F3
0008E2
008E40
08E300
8E3000
D30000
100000
ENDCHAR
STARTCHAR fraction
ENCODING 8260
SWIDTH 117 0
DWIDTH 4 0
BBX 17 20 -7 0
BITMAP
000000000000000AC0
000000000000007E20
00000000000003F500
0000000000001D8000
000000000000BC0000
000000000008E20000
00000000004F400000
0000000002E8000000
000000000CB0000000
000000008E10000000
00000005F400000000
0000002E7000000000
000000CB0000000000
000009D10000000000
00005F400000000000
0002E7000000000000
001CA0000000000000
009D10000000000000
05F300000000000000
1E6000000000000000
ENDCHAR
STARTCHAR Euro
ENCODING 8364
SWIDTH 523 0
DWIDTH 17 0
BBX 14 20 1 0
BITMAP
00007CFFFFC700
000AFB8667BFB0
004F90000008F4
007F30000002F8
008F10000001F8
008F1000000011
129F3222210000
CFFFFFFFF80000
34AF5444420000
008F1000000000
129F3222210000
CFFFFFFFF80000
34AF5444420000
008F1000000000
008F10000000B6
008F20000001F8
006F40000003F7
002FA000000AF3
0008FC8668CF90
00006CFFFFC600
ENDCHAR
STARTCHAR uni20B9
ENCODING 8377
SWIDTH 414 0
DWIDTH 13 0
BBX 12 20 1 0
BITMAP
BFFFFFFFFFF3
46668ED66661
000003F60000
000000EA0000
111111DB1110
CFFFFFFFFFF3
344444EC4440
000000EA0000
000003F70000
11125DE20000
CFFFFD300000
8F8420000000
0CE100000000
02EB00000000
004F80000000
0008F4000000
0000BE200000
00002EC00000
000004F80000
0000007D2000
ENDCHAR
STARTCHAR trademark
ENCODING 8482
SWIDTH 591 0
DWIDTH 19 0
BBX 15 9 2 13
BITMAP
5666650240000250
DFFFFF08F2000CD0
00780008E9004ED0
007800089D20B8D0
007800088793C3D0
0078000880DC43D0
00780008805A03D0
00780008800003D0
0045000450000180
ENDCHAR
STARTCHAR uni2126
ENCODING 8486
SWIDTH 629 0
DWIDTH 20 0
BBX 18 22 1 -1
BITMAP
000000111111000000
0002AEFFFFFFFA2000
001DE85444457EE200
008F3000000002EA00
00CC0000000000AD00
00DA00000000008F00
00DA00000000008F00
00DA00000000008F00
00DA00000000008F00
00DA00000000008F00
00DA00000000008F00
00DA00000000008F00
00DA00000000008F00
00DA00000000008F00
00DA00000000008F00
00DA00000000008F00
00DA00000000008F00
00BC0000000000AD00
006F2000000001E800
112BD52100124CD211
BFFFFFFD00BFFFFFFD
344444430034444443
ENDCHAR
STARTCHAR partialdiff
ENCODING 8706
SWIDTH 481 0
DWIDTH 15 0
BBX 13 22 1 -1
BITMAP
00010000000000
000FFEB6100000
000457AFE60000
000000019F7000
0000000007F300
0000000000DA00
00000000007E00
00000111003F30
003BFFFFFA3F50
03EE75446CDF60
0BF2000000CF70
0FA00000005F70
1F800000003F70
1F800000002F70
1F800000002F70
1F800000002F70
1F800000002F70
0FA00000004F60
0CE10000009F30
04FC421138FB00
005EFFFFFFA100
00003444410000
ENDCHAR
STARTCHAR uni2206
ENCODING 8710
SWIDTH 594 0
DWIDTH 19 0
BBX 17 22 1 -1
BITMAP
000000013100000000
0000000BFB00000000
0000001FFF20000000
0000007F6F80000000
000000DC0CD0000000
000003F707F4000000
000009F101F9000000
00000EB000BE100000
00005F50005F600000
0000BE10000EB00000
0002F9000009F20000
0007F4000004F70000
000DD0000000DD0000
003F800000007F4000
009F200000002F9000
01EC000000000BE100
05F60000000006F500
0BF10000000001EB00
2FA00000000000AF20
7F6111111111115F70
DFFFFFFFFFFFFFFFD0
444444444444444440
ENDCHAR
STARTCHAR minus
ENCODING 8722
SWIDTH 523 0
DWIDTH 17 0
BBX 13 3 2 9
BITMAP
11111111111100
BFFFFFFFFFFF70
34444444444420
ENDCHAR
STARTCHAR approxequal
ENCODING 8776
SWIDTH 523 0
DWIDTH 17 0
BBX 13 9 2 6
BITMAP
00010000000000
4CFFEC95325B70
BC7569CFFFFD30
20000001342000
00000000000000
00010000000000
4CFFEC95325B70
BC7569CFFFFD30
20000001342000
ENDCHAR
STARTCHAR notequal
ENCODING 8800
SWIDTH 523 0
DWIDTH 17 0
BBX 13 15 2 3
BITMAP
00000000310000
00000002F30000
00000008C00000
1111111D811100
BFFFFFFFFFFF70
344444BC444420
000000E6000000
000004F2000000
000009C0000000
11111E81111100
BFFFFFFFFFFF70
3444BC44444420
0000E700000000
0004F200000000
00069000000000
ENDCHAR
STARTCHAR lessequal
ENCODING 8804
SWIDTH 523 0
DWIDTH 17 0
BBX 13 13 2 3
BITMAP
00000000026B60
00000037CFFB40
00048DFEA51000
4AEFD840000000
BFB20000000000
6CFEA610000000
0026BFFC730000
0000015AEFD920
00000000048D70
00000000000000
11111111111100
BFFFFFFFFFFF70
34444444444420
ENDCHAR
STARTCHAR greaterequal
ENCODING 8805
SWIDTH 523 0
DWIDTH 17 0
BBX 13 13 2 3
BITMAP
AA510000000000
6CFFB620000000
0026BFFC730000
00000159EFD820
0000000004DF70
00000027BFFB30
00048DFEA51000
4AEFD840000000
BC730000000000
00000000000000
11111111111100
BFFFFFFFFFFF70
34444444444420
ENDCHAR
STARTCHAR uni25CC
ENCODING 9676
SWIDTH 701 0
DWIDTH 22 0
BBX 19 19 2 1
BITMAP
00000007E805C6000000
0003C80CFD0CFE000000
0009FF25C607E8000000
0004EB000000006E9000
00000000000000CFF000
1CE300000000005C7000
4FF80000000000009C20
0AB2000000000002FF80
0000000000000000CE40
5EA00000000000000000
AFF10000000000000000
3C80000000000003DC10
0000000000000007FF40
009E600000000002BA00
00FFB000000007E80000
007C44C700000CFE0000
00000BFF05EA05C60000
000006E90AFF10000000
0000000004C800000000
ENDCHAR
STARTCHAR commaaccent
ENCODING 63171
SWIDTH 0 0
DWIDTH 0 0
BBX 3 7 6 -8
BITMAP
8F10
9F10
9F10
9D00
9900
9400
8000
ENDCHAR
STARTCHAR .notdef
ENCODING -1
SWIDTH 600 0
DWIDTH 19 0
BBX 13 20 3 -1
BITMAP
01111111111100
2FFFFFFFFFFF50
2F944444447F50
2F700000004F50
2F700000004F50
2F700000004F50
2F700000004F50
2F700000004F50
2F700000004F50
2F700000004F50
2F700000004F50
2F700000004F50
2F700000004F50
2F700000004F50
2F700000004F50
2F700000004F50
2F700000004F50
2F711111115F50
2FFFFFFFFFFF50
14444444444410
ENDCHAR
STARTCHAR .null
ENCODING -1
SWIDTH 0 0
DWIDTH 0 0
BBX 1 1 0 0
BITMAP
00
ENDCHAR
STARTCHAR nonmarkingreturn
ENCODING -1
SWIDTH 333 0
DWIDTH 11 0
BBX 1 1 0 0
BITMAP
00
ENDCHAR
STARTCHAR uni0915094D
ENCODING -1
SWIDTH 519 0
DWIDTH 17 0
BBX 22 20 -1 0
BITMAP
6FFFFFFFFFFFFFFFFFFFFB
266666666667F966666664
000000000002F500000000
000000000002F500000000
000000011002F500110000
00003BFFF702F69EFFFC40
0002EE754202FEC6446CF4
000AE2000002FC000000C8
000E90000002F700000000
001F70000002F500000000
001F70000002F500000000
001F70000002F500000000
001F70000002F500000000
000F90000004F500000000
000CD1000009F500000000
0004FC42138EF500000000
00005EFFFFD5F500000000
000000344302F500000000
000000000002F500000000
000000000002D400000000
ENDCHAR
STARTCHAR uni0916094D
ENCODING -1
SWIDTH 468 0
DWIDTH 15 0
BBX 20 20 -1 0
BITMAP
6FFFFFFFFFFFFFFFFFF7
26666669F86666666662
00000005F30000000000
00000005F30000000000
00000005F30000010000
00000005F3002AFF7000
00000005F301DE752000
00000006F207F4000000
0000000AF00BD0000000
0011127F900CB0000000
00DFFFFA100CB0000000
00BF6420000BD0000000
001DC0000008F2000022
0004F8000002ED5227E8
00008F4000004DFFFE70
00000CD1000000343000
000002EA000000000000
0000006F600000000000
0000000AE20000000000
00000001C90000000000
ENDCHAR
STARTCHAR uni0917094D
ENCODING -1
SWIDTH 264 0
DWIDTH 8 0
BBX 10 14 -1 6
BITMAP
6FFFFFFFFD
26666DE664
00000BC000
00000BC000
00000BC000
00000BC000
00000BC000
00000BC000
00000BC000
00000DC000
00002F9000
0024CF3000
06FFD50000
0143000000
ENDCHAR
STARTCHAR uni0918094D
ENCODING -1
SWIDTH 321 0
DWIDTH 10 0
BBX 16 18 -1 2
BITMAP
6FFFFFFFFFFFFFF3
2666EE8666666661
0006F30000000000
000AE00000000000
000BD00000000000
000AD00000000000
0008F20000000000
0002EC4211000000
00002EFFFC000000
0001DD7443000000
0007F30000000000
000AE00000000000
000BD00000000000
000AE00000000000
0008F200000002A2
0002FD5211125EC1
00004DFFFFFFFA10
0000003444441000
ENDCHAR
STARTCHAR uni0919094D
ENCODING -1
SWIDTH 505 0
DWIDTH 16 0
BBX 18 27 -1 -7
BITMAP
6FFFFFFFFFFFFFFFF9
266666666668F86663
000000000004F40000
000000000004F40000
000000011115F40000
00004CFFFFFFF30000
0002EC644444300000
0007F2000000000000
0009E0000000000100
0007F1000000008F10
0003FA321110002400
00006EFFFFFE810000
000000344458FA0000
0000000000009F1000
0000000000006F3000
0007700000005F3000
000BC00000006F3000
0009E00000008F1000
0004F9311126EB0000
00007EFFFFFFB20000
000001344442000000
000000002000000000
00000000DB00000000
000000003F70000000
0000000008F3000000
0000000000DD100000
00000000003D500000
ENDCHAR
STARTCHAR uni091A094D
ENCODING -1
SWIDTH 330 0
DWIDTH 11 0
BBX 16 17 -1 3
BITMAP
6FFFFFFFFFFFFFF6
2666666666666662
0000000000000000
0000000000000000
0000000000000000
0011111111100000
04FFFFFFFFF50000
01444BF954410000
00003F7000000000
00008F1000000000
00009E0000000000
00009E0000000000
00008F0000000000
00005F50000001A4
00000CE731125DD2
000001BFFFFFFB20
0000000244442000
ENDCHAR
STARTCHAR uni091B094D
ENCODING -1
SWIDTH 581 0
DWIDTH 19 0
BBX 20 19 -1 1
BITMAP
6FFFFFFFFFFFFFFFFFFF
2666DF96666666666665
0004F600000000000000
0008F100000000000000
0008F000000011000000
0008F0000006FFE81000
0008F1000001459FA000
0006F40000000008F100
0001DD5210000004F300
00001DFFF4000004F400
0000CE8541000004F400
0005F50000000004F400
0008F10000000004F400
0008F00000000004F400
0008F10000000005F300
0006F4000000000AF100
0001ED521111239F8000
00003DFFFFFFFFF80000
00000024444443100000
ENDCHAR
STARTCHAR uni091C094D
ENCODING -1
SWIDTH 309 0
DWIDTH 10 0
BBX 15 18 -1 2
BITMAP
6FFFFFFFFFFFFF40
2666666666666610
0000000000000000
0000000000000000
0000000000000000
0000000000000000
0001111111111100
000BFFFFFFFFFF40
0003446DD5444410
00000001E9000000
00000000BD000000
00000000AD000000
00000000AD000000
00000000AD000000
00000001EB000000
0011124BF5000000
01FFFFFE60000000
0044443000000000
ENDCHAR
STARTCHAR uni091D094D
ENCODING -1
SWIDTH 432 0
DWIDTH 14 0
BBX 19 21 -1 -1
BITMAP
6FFFFFFFFFFFFFFFFF20
26666666669F86666500
00000000004F40000000
00000000004F40000000
00000011116F40000000
00006DFFFFFF30000000
0005FB64444300000000
0009E000000000000000
0009E000000000000000
0006F932111111111100
00009FFFFFFFFFFFFF20
00000134458FC4444400
000000000008F1000000
000CA0000005F3000000
000CB0000005F3000000
000CE0000007F1000000
000CFA32125EB0000000
000CCCFFFFFB20000000
000CA034442000000000
000CA000000000000000
000CA000000000000000
ENDCHAR
STARTCHAR uni091E094D
ENCODING -1
SWIDTH 359 0
DWIDTH 11 0
BBX 16 18 -1 2
BITMAP
6FFFFFFFFFFFFFFB
2666666666666664
0000000000000000
0000000000000000
0001110000000000
001FFFFD70000000
0004445AF9000000
000000009F100000
000000004F400000
000000002F611111
000000002FFFFFFC
000000002F844443
000000002F400000
000000003F300000
000000008F100000
00011137F9000000
009FFFFF90000000
0024444100000000
ENDCHAR
STARTCHAR uni091F094D
ENCODING -1
SWIDTH 485 0
DWIDTH 16 0
BBX 17 26 -1 -6
BITMAP
6FFFFFFFFFFFFFFFE0
26666666666AF76650
000000000006F20000
000000000006F20000
000000000006F20000
000000011117F20000
00002AEFFFFFF10000
0001DE854444300000
0008F3000000000000
000CC0000000000000
000DA0000000000000
000DA0000000000000
000DA000000006A000
000DA000000009E000
000CC00000000AD000
0009F20000001EA000
0002ED521124CF3000
00003DFFFFFFD40000
000000244442000000
000000000000000000
000000004400000000
000000006F40000000
000000000CD1000000
0000000003F9000000
00000000008F400000
00000000000BA00000
ENDCHAR
STARTCHAR uni0920094D
ENCODING -1
SWIDTH 512 0
DWIDTH 16 0
BBX 18 26 -1 -6
BITMAP
6FFFFFFFFFFFFFFFFC
266666666666FB6664
000000000000F80000
000000000000F80000
000000000002F70000
00000001113BF20000
00002AEFFFFF910000
0001DE854457ED2000
0008F30000002F9000
000CC00000000AD000
000DA000000008F000
000DA000000008F000
000DA000000008F000
000DA000000008F000
000DB00000000AE000
0009E20000001EB000
0003ED521124CF4000
00004DFFFFFFD50000
000000244443000000
000000000000000000
000000005300000000
00000000AE10000000
000000001EA0000000
0000000006F5000000
0000000000BE100000
00000000002C700000
ENDCHAR
STARTCHAR uni0921094D
ENCODING -1
SWIDTH 475 0
DWIDTH 15 0
BBX 17 27 -1 -7
BITMAP
6FFFFFFFFFFFFFFFA0
266666666668F86630
000000000004F40000
000000000004F40000
000000011115F40000
00003BEFFFFFF30000
0001ED644444300000
0006F3000000000000
0008F0000000000000
0009E0000000000000
0007F2000000000000
0002FB321110000000
00005EFFFFFEA10000
000000244458FC0000
0000000000008F2000
0002200000006F3000
000BB00000005F3000
0009E00000008F2000
0004F9311126EC0000
00007EFFFFFFB20000
000001344442000000
000000001100000000
00000000AD10000000
000000001EA0000000
0000000005F5000000
0000000000AE200000
00000000001C800000
ENDCHAR
STARTCHAR uni0922094D
ENCODING -1
SWIDTH 485 0
DWIDTH 16 0
BBX 17 26 -1 -6
BITMAP
6FFFFFFFFFFFFFFFE0
266666666668F96650
000000000003F50000
000000000003F50000
000000000003F50000
000000011115F50000
00001AEFFFFFF40000
0001DE854444400000
0007F4000000000000
000BD0000000000000
000CB0000001000000
000CB00006EFFB2000
000CB0002FA56EA000
000CB0005F2008E000
000BC0004C0007F000
0008F20000000AD000
0002ED5211137F8000
00003CFFFFFFFA1000
000000244444100000
000000000000000000
000000004300000000
000000008F30000000
000000000DC0000000
0000000004F7000000
00000000009F300000
00000000001C900000
ENDCHAR
STARTCHAR uni0923094D
ENCODING -1
SWIDTH 454 0
DWIDTH 15 0
BBX 16 15 -1 5
BITMAP
6FFFFFFFFFFFFFFE
2669F766666CE665
0006F200000AD000
0006F200000AD000
0006F200000AD000
0006F200000AD000
0006F200000AD000
0006F200000AD000
0006F200000AD000
0006F200000AD000
0005F300000BC000
0003F700001EA000
0000BE6224BF3000
00001BFFFFE50000
0000002443000000
ENDCHAR
STARTCHAR uni0924094D
ENCODING -1
SWIDTH 263 0
DWIDTH 8 0
BBX 13 21 -1 -1
BITMAP
6FFFFFFFFFFFA0
26666666666630
00000000000000
00000000000000
00000000000000
00000000000000
00000001111110
00003BFFFFFFB0
0003ED75444420
0009F200000000
000CB000000000
000DA000000000
000DA000000000
000DA000000000
000DA000000000
000DA000000000
000DB000000000
000AE100000000
0003FC42000000
00005DFF800000
00000034200000
ENDCHAR
STARTCHAR uni0925094D
ENCODING -1
SWIDTH 359 0
DWIDTH 11 0
BBX 15 17 1 3
BITMAP
0007DED920000000
00AF968EE1000000
01F80003F6000000
03F50000F8000000
03F40000F8000000
00410000F8000000
00000004F6000000
0111125DE1000000
1FFFFFFD30000000
1F94442000000000
1F70000000000000
0F80000000000000
0EA0000000000000
09F2000000003E30
02EE63111127FB00
002BFFFFFFFE8000
0000244444310000
ENDCHAR
STARTCHAR uni0926094D
ENCODING -1
SWIDTH 489 0
DWIDTH 16 0
BBX 18 25 -1 -5
BITMAP
6FFFFFFFFFFFFFFFF1
266666666666DD6650
000000000000CC0000
000000000000CC0000
000000011111CC0000
000019EFFFFFFB0000
0001DF854444420000
0007F5000000000000
000BD0000000000000
000CB0000000000000
000CB0000000000000
000CB0000000000000
000CB00000003F3000
000BD00000004F4000
0008F30000007F4000
0001ED521126EF4000
00003CFFFFFE9F4000
0000002444413F4000
0000000000003F4000
0000000031003F3000
00000000DC00000000
000000003F70000000
0000000008F3000000
0000000001DC000000
00000000003D500000
ENDCHAR
STARTCHAR uni0927094D
ENCODING -1
SWIDTH 321 0
DWIDTH 10 0
BBX 16 18 -1 2
BITMAP
6FFFFFFFA00FFFF7
2666EE8630056662
0006F30000000000
000AE00000000000
000BD00000000000
000AD00000000000
0008F20000000000
0002EC4211000000
00002EFFFC000000
0001DD7443000000
0007F30000000000
000AE00000000000
000BD00000000000
000AE00000000000
0008F200000002A2
0002FD5211125EC1
00004DFFFFFFFA10
0000003444441000
ENDCHAR
STARTCHAR uni0928094D
ENCODING -1
SWIDTH 233 0
DWIDTH 7 0
BBX 12 14 -1 6
BITMAP
6FFFFFFFFFFA
266666666663
000000000000
000000000000
000000000000
000000000000
000000000000
000001111111
0009EFFFFFFA
007F95444442
00BD00000000
00CB00000000
009D00000000
004D10000000
ENDCHAR
STARTCHAR uni092A094D
ENCODING -1
SWIDTH 269 0
DWIDTH 9 0
BBX 14 15 -1 5
BITMAP
6FFFFFFFFFFFFB
266AF766666664
0006F200000000
0006F200000000
0006F200000000
0006F200000000
0006F200000000
0006F200000000
0006F200000000
0006F200000000
0005F400000000
0002F800000087
00009F83124BF4
000009FFFFFC40
00000014442000
ENDCHAR
STARTCHAR uni092B094D
ENCODING -1
SWIDTH 530 0
DWIDTH 17 0
BBX 23 20 -1 0
BITMAP
6FFFFFFFFFFFFFFFFFFFFF30
266AF7666666DD6666666610
0006F2000000BC0000000000
0006F2000000BC0000000000
0006F2000000BC0011100000
0006F2000000BC5DFFFE8000
0006F2000000BEE85459FA00
0006F2000000BF4000006D00
0006F2000000BE0000000000
0006F2000000BC0000000000
0005F4000000DC0000000000
0002F9000003FC0000000000
00009F83126DFC0000000000
000009FFFFF8BC0000000000
000000144410BC0000000000
000000000000BC0000000000
000000000000BC0000000000
000000000000BC0000000000
000000000000BC0000000000
0000000000009A0000000000
ENDCHAR
STARTCHAR uni092C094D
ENCODING -1
SWIDTH 265 0
DWIDTH 8 0
BBX 14 18 -1 2
BITMAP
6FFFFFFFFFFFF7
26666666666662
00000000000000
00000000000000
00000001110000
00002AFFFD0000
0002EE75430000
000AFD20000000
000DA9D2000000
000E808D200000
000E8008D20000
000E80008D2022
000E800008D29A
000EA000007DC9
000BE1000008F6
0003FC42124CD1
00005DFFFFFC20
00000034442000
ENDCHAR
STARTCHAR uni092D094D
ENCODING -1
SWIDTH 261 0
DWIDTH 8 0
BBX 13 15 -1 5
BITMAP
6EC600000FFFB0
26BF7000056640
000BE000000000
0007F100000000
0007F100000000
0007F100000000
0007F100000000
0007F100000000
0007F311111110
0007FFFFFFFFC0
0007F644444430
0007F100000000
0007F100000000
0007F100000000
00025000000000
ENDCHAR
STARTCHAR uni092E094D
ENCODING -1
SWIDTH 261 0
DWIDTH 8 0
BBX 13 15 -1 5
BITMAP
6FFFFFFFFFFFB0
266AF766666640
0007F100000000
0007F100000000
0007F100000000
0007F100000000
0007F100000000
0007F100000000
0007F311111110
0007FFFFFFFFC0
0007F544444430
0007F100000000
0007F100000000
0007F100000000
00025000000000
ENDCHAR
STARTCHAR uni092F094D
ENCODING -1
SWIDTH 323 0
DWIDTH 10 0
BBX 16 17 -1 3
BITMAP
6FFFFFFFFFFFFF70
2666669EB6666620
00000006F3000000
00000002F6000000
00000001F7000000
00000004F6000000
0001125DE1000000
000CFFFD40000000
000CC43000000000
000CB00000000000
000CB00000000000
000CB00000000000
000AE00000000000
0005F600000003D4
0000BF8311127EB1
000019FFFFFFE800
0000001344431000
ENDCHAR
STARTCHAR uni0930094D
ENCODING -1
SWIDTH 337 0
DWIDTH 11 0
BBX 13 27 -1 -7
BITMAP
6FFFFFFFFFFF30
26666669F86610
00000005F30000
00000005F30000
00000005F30000
00000005F30000
00000005F30000
00000006F20000
0000000AE00000
0011127F900000
00DFFFFA100000
00CF6420000000
002EB000000000
0005F700000000
0000AF30000000
00001DC0000000
000004F8000000
0000008F300000
0000000CD10000
00000003E80000
00000000110000
00000570000000
000004F7000000
0000008F300000
0000001DC00000
00000003F90000
00000000440000
ENDCHAR
STARTCHAR uni0932094D
ENCODING -1
SWIDTH 431 0
DWIDTH 14 0
BBX 19 19 -1 1
BITMAP
6FFFFFFFFFFFFFFFFFF0
26666666666666666650
00000000000000000000
00000000000000000000
00000000000000000000
00000001000000010000
00002AEFFC405DFFD700
0001DE856AF5FA658FA0
0007F40000AFA0000370
000AE000005F50000000
000BC000004F40000000
000BC000004F40000000
000BC000004F30000000
000BC000000300000000
000BD000000000000000
0008F300000000000000
0002ED52110000000000
00004DFFFD0000000000
00000024430000000000
ENDCHAR
STARTCHAR uni0933094D
ENCODING -1
SWIDTH 677 0
DWIDTH 22 0
BBX 24 19 -1 1
BITMAP
6FFFFFFFFFFFFFFFFFFFFFF1
266666666666666666666650
000000000000000000000000
000000000000000000000000
000000000000000000000000
000000010000000100000000
00002AEFFD602BFFFC500000
0002EE756AF7EC656BF60000
0009E200008FD10000BE0000
000CB000003F8000006F3000
000DA000001F7000004F3000
000DA000001F7000004F4000
000DA000001F7000004F4000
000DA000001F7000004F4000
000CB000002F8000005F3000
000AE100006FC000009F1000
0003FC4237EBFA3238F80000
00004DFFFF915EFFFF800000
000000343100003431000000
ENDCHAR
STARTCHAR uni0935094D
ENCODING -1
SWIDTH 255 0
DWIDTH 8 0
BBX 14 18 -1 2
BITMAP
6FFFFFFFFFFFF7
26666666666662
00000000000000
00000000000000
00000001110000
00002AFFFD0000
0002EE75430000
000AE200000000
000DA000000000
000E8000000000
000E8000000000
000E8000000022
000E800000009A
000EA0000000B9
000BE1000001E6
0003FC42124CD1
00005DFFFFFC20
00000034442000
ENDCHAR
STARTCHAR uni0936094D
ENCODING -1
SWIDTH 378 0
DWIDTH 12 0
BBX 10 20 1 0
BITMAP
002AEFEA30
01DE868EE2
06F30002F8
09F00000DA
09E00000CB
09D00000CB
00000000CB
00000000EA
00000003F7
0111125DE2
9FFFFFFD30
6FA4442000
0AE2000000
01EC000000
004F700000
0009F30000
0001DD1000
00003F9000
000007F400
000000AB00
ENDCHAR
STARTCHAR uni0937094D
ENCODING -1
SWIDTH 282 0
DWIDTH 9 0
BBX 15 15 -1 5
BITMAP
6FFFFFFFFFFFFF20
266AF96666666510
0006FE2000000000
0006FAD100000000
0006F2AC10000000
0006F20BB0000000
0006F201CA000000
0006F2002D800000
0006F20003E60000
0006F200004F5000
0005F4000005E810
0002F8000000CE20
00009F83124BF500
000009FFFFFC3000
0000001444200000
ENDCHAR
STARTCHAR uni0938094D
ENCODING -1
SWIDTH 338 0
DWIDTH 11 0
BBX 16 20 -1 0
BITMAP
6FFFFFFFFFFFFFF7
2666666FB6666662
0000001F80000000
0000001F80000000
0000001F80000000
0000001F80000000
0000001F80000000
0000002F70000000
0000005F40000000
001125EC11111110
00DFFFFFFFFFFFF7
00BF644444444442
002EA00000000000
0006F50000000000
0000CD1000000000
00003F8000000000
000009F300000000
000001EC00000000
0000005F60000000
0000000AC0000000
ENDCHAR
STARTCHAR uni0939094D
ENCODING -1
SWIDTH 457 0
DWIDTH 15 0
BBX 19 22 -1 -2
BITMAP
6FFFFFFFFFFFFFFFB000
266666666666FB664000
000000000000F8000000
000000000000F8000000
000000011112F8000000
00003BFFFFFFF7000000
0001EE75444441000000
0005F400000000000000
0007F100000000000000
0005F300000000000000
0001DC42111111111110
00002CFFFFFFFFFFFFF0
00008F95444444444440
0003F700000000000000
0008F100000000000000
0009E000000000000000
0009E000000000000000
0008F000000000000000
0005F500000000000000
0000CE73111111000000
00001AFFFFFFFA000000
00000014444442000000
ENDCHAR
STARTCHAR uni0915093C094D
ENCODING -1
SWIDTH 519 0
DWIDTH 17 0
BBX 22 22 -1 -2
BITMAP
6FFFFFFFFFFFFFFFFFFFFB
266666666667F966666664
000000000002F500000000
000000000002F500000000
000000011002F500110000
00003BFFF702F69EFFFC40
0002EE754202FEC6446CF4
000AE2000002FD000000C8
000E90000002F700000000
001F70000002F500000000
001F70000002F500000000
001F70000002F500000000
001F70000002F500000000
000F90000004F500000000
000CD1000009F500000000
0004FC42138EF500000000
00005EFFFFD5F500000000
000000344302F500000000
000000000002F500000000
000001000002F500000000
00005F5000002000000000
0000141000000000000000
ENDCHAR
STARTCHAR uni0916093C094D
ENCODING -1
SWIDTH 463 0
DWIDTH 15 0
BBX 20 22 -1 -2
BITMAP
6FFFFFFFFFFFFFFFFFF7
26666669F86666666662
00000005F30000000000
00000005F30000000000
00000005F30000010000
00000005F3002AFF7000
00000005F301DE752000
00000006F207F4000000
0000000AF00BD0000000
0011127F900CB0000000
00DFFFFA100CB0000000
00BF6420000BD0000000
001EC0000008F2000022
0005F7000002ED5227E8
00009F3000004DFFFE70
00001DD1000000343000
000003F9000000000000
0000008F400000000000
0000000CE10000000000
00011002E90000000000
000CD000110000000000
00033000000000000000
ENDCHAR
STARTCHAR uni0917093C094D
ENCODING -1
SWIDTH 264 0
DWIDTH 8 0
BBX 10 21 -1 -1
BITMAP
6FFFFFFFFD
26666DE664
00000BC000
00000BC000
00000BC000
00000BC000
00000BC000
00000BC000
00000BC000
00000DC000
00002F9000
0024CF3000
06FFD50000
0143000000
0000000000
0000000000
0000000000
0000000000
0000110000
0000BE0000
0000330000
ENDCHAR
STARTCHAR uni091C093C094D
ENCODING -1
SWIDTH 314 0
DWIDTH 10 0
BBX 15 23 -1 -3
BITMAP
6FFFFFFFFFFFFF40
2666666666666610
0000000000000000
0000000000000000
0000000000000000
0000000000000000
0001111111111100
000BFFFFFFFFFF40
0003446DD5444410
00000001E9000000
00000000BD000000
00000000AD000000
00000000AD000000
00000000AD000000
00000001EB000000
0011124BF5000000
01FFFFFE60000000
0044443000000000
0000000000000000
0000000000000000
0000110000000000
0001F90000000000
0000420000000000
ENDCHAR
STARTCHAR uni0928093C094D
ENCODING -1
SWIDTH 241 0
DWIDTH 8 0
BBX 12 21 -1 -1
BITMAP
2FFFFFFFFFFE
166666666665
000000000000
000000000000
000000000000
000000000000
000000000000
000001111111
0006EFFFFFFE
004FB5444443
008F10000000
008F00000000
005F30000000
001930000000
000000000000
000000000000
000000000000
000000000000
000001100000
00000FA00000
000004300000
ENDCHAR
STARTCHAR uni092B093C094D
ENCODING -1
SWIDTH 530 0
DWIDTH 17 0
BBX 23 22 -1 -2
BITMAP
6FFFFFFFFFFFFFFFFFFFFF30
266AF7666666DD6666666610
0006F2000000BC0000000000
0006F2000000BC0000000000
0006F2000000BC0011100000
0006F2000000BC5DFFFE8000
0006F2000000BEE85459FA00
0006F2000000BF5000006D00
0006F2000000BE0000000000
0006F2000000BC0000000000
0005F4000000DC0000000000
0002F9000003FC0000000000
00009F83126DFC0000000000
000009FFFFF8BC0000000000
000000144410BC0000000000
000000000000BC0000000000
000000000000BC0000000000
000000000000BC0000000000
000000000000BC0000000000
000000100000BC0000000000
000008F20000330000000000
000002400000000000000000
ENDCHAR
STARTCHAR uni092F093C094D
ENCODING -1
SWIDTH 325 0
DWIDTH 10 0
BBX 16 22 -1 -2
BITMAP
6FFFFFFFFFFFFF70
2666669EB6666620
00000006F3000000
00000002F6000000
00000001F7000000
00000004F6000000
0001125DE1000000
000CFFFD40000000
000CC43000000000
000CB00000000000
000CB00000000000
000CB00000000000
000AE00000000000
0005F600000003D4
0000BF8311127EB1
000019FFFFFFE800
0000001344431000
0000000000000000
0000000000000000
0000001000000000
000004F600000000
0000014100000000
ENDCHAR
ENDFONT
